{
  "asset" : {
    "generator" : "UE Viewer (umodel) build 1579 based",
    "version" : "2.0"
  },
  "scene" : 0,
  "scenes" : [
    {
      "nodes" : [ 0 ]
    }
  ],
  "nodes" : [
    {
      "name" : "Toybox_GlassWall_01",
      "mesh" : 0
    }
  ],
  "materials" : [
    {
      "name" : "SpaceGlass_01",
      "pbrMetallicRoughness" : {
        "baseColorFactor" : [ 0.3, 0.3, 0.3, 1.0 ],
        "metallicFactor" : 0.1,
        "roughnessFactor" : 0.5
      }
    },
    {
      "name" : "Toybox_GlassWall_01",
      "pbrMetallicRoughness" : {
        "baseColorFactor" : [ 0.9, 0.3, 0.3, 1.0 ],
        "metallicFactor" : 0.1,
        "roughnessFactor" : 0.5
      }
    }
  ],
  "meshes" : [
    {
      "primitives" : [
        {
          "attributes" : {
            "POSITION" : 1,
            "NORMAL" : 2,
            "TANGENT" : 3,
            "COLOR_0" : 4,
            "TEXCOORD_0" : 5,
            "TEXCOORD_1" : 6,
            "TEXCOORD_2" : 7
          },
          "indices" : 0,
          "material" : 0
        },
        {
          "attributes" : {
            "POSITION" : 9,
            "NORMAL" : 10,
            "TANGENT" : 11,
            "COLOR_0" : 12,
            "TEXCOORD_0" : 13,
            "TEXCOORD_1" : 14,
            "TEXCOORD_2" : 15
          },
          "indices" : 8,
          "material" : 1
        }
      ],
      "name" : "Toybox_GlassWall_01"
    }
  ],
  "buffers" : [
    {
      "uri" : "Toybox_GlassWall_01.bin",
      "byteLength" : 14200
    }
  ],
  "bufferViews" : [
    {
      "buffer" : 0,
      "byteOffset" : 0,
      "byteLength" : 24
    },
    {
      "buffer" : 0,
      "byteOffset" : 24,
      "byteLength" : 96
    },
    {
      "buffer" : 0,
      "byteOffset" : 120,
      "byteLength" : 96
    },
    {
      "buffer" : 0,
      "byteOffset" : 216,
      "byteLength" : 128
    },
    {
      "buffer" : 0,
      "byteOffset" : 344,
      "byteLength" : 32
    },
    {
      "buffer" : 0,
      "byteOffset" : 376,
      "byteLength" : 64
    },
    {
      "buffer" : 0,
      "byteOffset" : 440,
      "byteLength" : 64
    },
    {
      "buffer" : 0,
      "byteOffset" : 504,
      "byteLength" : 64
    },
    {
      "buffer" : 0,
      "byteOffset" : 568,
      "byteLength" : 576
    },
    {
      "buffer" : 0,
      "byteOffset" : 1144,
      "byteLength" : 2304
    },
    {
      "buffer" : 0,
      "byteOffset" : 3448,
      "byteLength" : 2304
    },
    {
      "buffer" : 0,
      "byteOffset" : 5752,
      "byteLength" : 3072
    },
    {
      "buffer" : 0,
      "byteOffset" : 8824,
      "byteLength" : 768
    },
    {
      "buffer" : 0,
      "byteOffset" : 9592,
      "byteLength" : 1536
    },
    {
      "buffer" : 0,
      "byteOffset" : 11128,
      "byteLength" : 1536
    },
    {
      "buffer" : 0,
      "byteOffset" : 12664,
      "byteLength" : 1536
    }
  ],
  "accessors" : [
    {
      "bufferView" : 0,
      "componentType" : 5123,
      "count" : 12,
      "type" : "SCALAR"
    },
    {
      "bufferView" : 1,
      "min" : [ -4.8375, 0.147502, 0.0539087 ],
      "max" : [ -0.1625, 4.8525, 0.145753 ],
      "componentType" : 5126,
      "count" : 8,
      "type" : "VEC3"
    },
    {
      "bufferView" : 2,
      "componentType" : 5126,
      "count" : 8,
      "type" : "VEC3"
    },
    {
      "bufferView" : 3,
      "componentType" : 5126,
      "count" : 8,
      "type" : "VEC4"
    },
    {
      "bufferView" : 4,
      "normalized" : true,
      "componentType" : 5121,
      "count" : 8,
      "type" : "VEC4"
    },
    {
      "bufferView" : 5,
      "componentType" : 5126,
      "count" : 8,
      "type" : "VEC2"
    },
    {
      "bufferView" : 6,
      "componentType" : 5126,
      "count" : 8,
      "type" : "VEC2"
    },
    {
      "bufferView" : 7,
      "componentType" : 5126,
      "count" : 8,
      "type" : "VEC2"
    },
    {
      "bufferView" : 8,
      "componentType" : 5123,
      "count" : 288,
      "type" : "SCALAR"
    },
    {
      "bufferView" : 9,
      "min" : [ -5, -3.06162e-16, -3.06162e-16 ],
      "max" : [ 0, 5, 0.185 ],
      "componentType" : 5126,
      "count" : 192,
      "type" : "VEC3"
    },
    {
      "bufferView" : 10,
      "componentType" : 5126,
      "count" : 192,
      "type" : "VEC3"
    },
    {
      "bufferView" : 11,
      "componentType" : 5126,
      "count" : 192,
      "type" : "VEC4"
    },
    {
      "bufferView" : 12,
      "normalized" : true,
      "componentType" : 5121,
      "count" : 192,
      "type" : "VEC4"
    },
    {
      "bufferView" : 13,
      "componentType" : 5126,
      "count" : 192,
      "type" : "VEC2"
    },
    {
      "bufferView" : 14,
      "componentType" : 5126,
      "count" : 192,
      "type" : "VEC2"
    },
    {
      "bufferView" : 15,
      "componentType" : 5126,
      "count" : 192,
      "type" : "VEC2"
    }
  ]
}
