{
  "asset" : {
    "generator" : "UE Viewer (umodel) build 1579 based",
    "version" : "2.0"
  },
  "scene" : 0,
  "scenes" : [
    {
      "nodes" : [ 0 ]
    }
  ],
  "nodes" : [
    {
      "name" : "ControlRoom_Base_01",
      "mesh" : 0
    }
  ],
  "materials" : [
    {
      "name" : "ControlRoom_01",
      "pbrMetallicRoughness" : {
        "baseColorFactor" : [ 0.3, 0.3, 0.3, 1.0 ],
        "metallicFactor" : 0.1,
        "roughnessFactor" : 0.5
      }
    },
    {
      "name" : "Swatch_Emissive_02",
      "pbrMetallicRoughness" : {
        "baseColorFactor" : [ 0.9, 0.3, 0.3, 1.0 ],
        "metallicFactor" : 0.1,
        "roughnessFactor" : 0.5
      }
    }
  ],
  "meshes" : [
    {
      "primitives" : [
        {
          "attributes" : {
            "POSITION" : 1,
            "NORMAL" : 2,
            "TANGENT" : 3,
            "TEXCOORD_0" : 4,
            "TEXCOORD_1" : 5
          },
          "indices" : 0,
          "material" : 0
        },
        {
          "attributes" : {
            "POSITION" : 7,
            "NORMAL" : 8,
            "TANGENT" : 9,
            "TEXCOORD_0" : 10,
            "TEXCOORD_1" : 11
          },
          "indices" : 6,
          "material" : 1
        }
      ],
      "name" : "ControlRoom_Base_01"
    }
  ],
  "buffers" : [
    {
      "uri" : "ControlRoom_Base_01.bin",
      "byteLength" : 63892
    }
  ],
  "bufferViews" : [
    {
      "buffer" : 0,
      "byteOffset" : 0,
      "byteLength" : 6536
    },
    {
      "buffer" : 0,
      "byteOffset" : 6536,
      "byteLength" : 12240
    },
    {
      "buffer" : 0,
      "byteOffset" : 18776,
      "byteLength" : 12240
    },
    {
      "buffer" : 0,
      "byteOffset" : 31016,
      "byteLength" : 16320
    },
    {
      "buffer" : 0,
      "byteOffset" : 47336,
      "byteLength" : 8160
    },
    {
      "buffer" : 0,
      "byteOffset" : 55496,
      "byteLength" : 8160
    },
    {
      "buffer" : 0,
      "byteOffset" : 63656,
      "byteLength" : 12
    },
    {
      "buffer" : 0,
      "byteOffset" : 63668,
      "byteLength" : 48
    },
    {
      "buffer" : 0,
      "byteOffset" : 63716,
      "byteLength" : 48
    },
    {
      "buffer" : 0,
      "byteOffset" : 63764,
      "byteLength" : 64
    },
    {
      "buffer" : 0,
      "byteOffset" : 63828,
      "byteLength" : 32
    },
    {
      "buffer" : 0,
      "byteOffset" : 63860,
      "byteLength" : 32
    }
  ],
  "accessors" : [
    {
      "bufferView" : 0,
      "componentType" : 5123,
      "count" : 3267,
      "type" : "SCALAR"
    },
    {
      "bufferView" : 1,
      "min" : [ -19.1888, -0.421424, -20.8497 ],
      "max" : [ 2.55741, 24.9828, 20.8497 ],
      "componentType" : 5126,
      "count" : 1020,
      "type" : "VEC3"
    },
    {
      "bufferView" : 2,
      "componentType" : 5126,
      "count" : 1020,
      "type" : "VEC3"
    },
    {
      "bufferView" : 3,
      "componentType" : 5126,
      "count" : 1020,
      "type" : "VEC4"
    },
    {
      "bufferView" : 4,
      "componentType" : 5126,
      "count" : 1020,
      "type" : "VEC2"
    },
    {
      "bufferView" : 5,
      "componentType" : 5126,
      "count" : 1020,
      "type" : "VEC2"
    },
    {
      "bufferView" : 6,
      "componentType" : 5123,
      "count" : 6,
      "type" : "SCALAR"
    },
    {
      "bufferView" : 7,
      "min" : [ -3.69426, 23.56, -4.83004 ],
      "max" : [ -1.38574, 23.56, 4.83004 ],
      "componentType" : 5126,
      "count" : 4,
      "type" : "VEC3"
    },
    {
      "bufferView" : 8,
      "componentType" : 5126,
      "count" : 4,
      "type" : "VEC3"
    },
    {
      "bufferView" : 9,
      "componentType" : 5126,
      "count" : 4,
      "type" : "VEC4"
    },
    {
      "bufferView" : 10,
      "componentType" : 5126,
      "count" : 4,
      "type" : "VEC2"
    },
    {
      "bufferView" : 11,
      "componentType" : 5126,
      "count" : 4,
      "type" : "VEC2"
    }
  ]
}
