{
  "asset" : {
    "generator" : "UE Viewer (umodel) build 1579 based",
    "version" : "2.0"
  },
  "scene" : 0,
  "scenes" : [
    {
      "nodes" : [ 0 ]
    }
  ],
  "nodes" : [
    {
      "name" : "ControlRoom_Monitor_01",
      "mesh" : 0
    }
  ],
  "materials" : [
    {
      "name" : "ControlRoom_Monitor_01",
      "pbrMetallicRoughness" : {
        "baseColorFactor" : [ 0.3, 0.3, 0.3, 1.0 ],
        "metallicFactor" : 0.1,
        "roughnessFactor" : 0.5
      }
    },
    {
      "name" : "Rose_Photos_01",
      "pbrMetallicRoughness" : {
        "baseColorFactor" : [ 0.9, 0.3, 0.3, 1.0 ],
        "metallicFactor" : 0.1,
        "roughnessFactor" : 0.5
      }
    }
  ],
  "meshes" : [
    {
      "primitives" : [
        {
          "attributes" : {
            "POSITION" : 1,
            "NORMAL" : 2,
            "TANGENT" : 3,
            "TEXCOORD_0" : 4,
            "TEXCOORD_1" : 5
          },
          "indices" : 0,
          "material" : 0
        },
        {
          "attributes" : {
            "POSITION" : 7,
            "NORMAL" : 8,
            "TANGENT" : 9,
            "TEXCOORD_0" : 10,
            "TEXCOORD_1" : 11
          },
          "indices" : 6,
          "material" : 1
        }
      ],
      "name" : "ControlRoom_Monitor_01"
    }
  ],
  "buffers" : [
    {
      "uri" : "ControlRoom_Monitor_01.bin",
      "byteLength" : 175896
    }
  ],
  "bufferViews" : [
    {
      "buffer" : 0,
      "byteOffset" : 0,
      "byteLength" : 15176
    },
    {
      "buffer" : 0,
      "byteOffset" : 15176,
      "byteLength" : 25992
    },
    {
      "buffer" : 0,
      "byteOffset" : 41168,
      "byteLength" : 25992
    },
    {
      "buffer" : 0,
      "byteOffset" : 67160,
      "byteLength" : 34656
    },
    {
      "buffer" : 0,
      "byteOffset" : 101816,
      "byteLength" : 17328
    },
    {
      "buffer" : 0,
      "byteOffset" : 119144,
      "byteLength" : 17328
    },
    {
      "buffer" : 0,
      "byteOffset" : 136472,
      "byteLength" : 6552
    },
    {
      "buffer" : 0,
      "byteOffset" : 143024,
      "byteLength" : 7044
    },
    {
      "buffer" : 0,
      "byteOffset" : 150068,
      "byteLength" : 7044
    },
    {
      "buffer" : 0,
      "byteOffset" : 157112,
      "byteLength" : 9392
    },
    {
      "buffer" : 0,
      "byteOffset" : 166504,
      "byteLength" : 4696
    },
    {
      "buffer" : 0,
      "byteOffset" : 171200,
      "byteLength" : 4696
    }
  ],
  "accessors" : [
    {
      "bufferView" : 0,
      "componentType" : 5123,
      "count" : 7587,
      "type" : "SCALAR"
    },
    {
      "bufferView" : 1,
      "min" : [ -4.12, -0.623724, -3.46586 ],
      "max" : [ 0.5915, 4.55558, 3.46586 ],
      "componentType" : 5126,
      "count" : 2166,
      "type" : "VEC3"
    },
    {
      "bufferView" : 2,
      "componentType" : 5126,
      "count" : 2166,
      "type" : "VEC3"
    },
    {
      "bufferView" : 3,
      "componentType" : 5126,
      "count" : 2166,
      "type" : "VEC4"
    },
    {
      "bufferView" : 4,
      "componentType" : 5126,
      "count" : 2166,
      "type" : "VEC2"
    },
    {
      "bufferView" : 5,
      "componentType" : 5126,
      "count" : 2166,
      "type" : "VEC2"
    },
    {
      "bufferView" : 6,
      "componentType" : 5123,
      "count" : 3276,
      "type" : "SCALAR"
    },
    {
      "bufferView" : 7,
      "min" : [ 0.245, 0.324645, -1.83786 ],
      "max" : [ 0.608381, 4.01752, 2.91976 ],
      "componentType" : 5126,
      "count" : 587,
      "type" : "VEC3"
    },
    {
      "bufferView" : 8,
      "componentType" : 5126,
      "count" : 587,
      "type" : "VEC3"
    },
    {
      "bufferView" : 9,
      "componentType" : 5126,
      "count" : 587,
      "type" : "VEC4"
    },
    {
      "bufferView" : 10,
      "componentType" : 5126,
      "count" : 587,
      "type" : "VEC2"
    },
    {
      "bufferView" : 11,
      "componentType" : 5126,
      "count" : 587,
      "type" : "VEC2"
    }
  ]
}
