{
  "asset" : {
    "generator" : "UE Viewer (umodel) build 1579 based",
    "version" : "2.0"
  },
  "scene" : 0,
  "scenes" : [
    {
      "nodes" : [ 0 ]
    }
  ],
  "nodes" : [
    {
      "name" : "ControlRoomPuzzle_PressurePlate_01",
      "mesh" : 0
    }
  ],
  "materials" : [
    {
      "name" : "ControlRoomPuzzle_PressurePlate_01",
      "pbrMetallicRoughness" : {
        "baseColorFactor" : [ 0.3, 0.3, 0.3, 1.0 ],
        "metallicFactor" : 0.1,
        "roughnessFactor" : 0.5
      }
    },
    {
      "name" : "Swatch_Ceilinglamp_Emissive_05",
      "pbrMetallicRoughness" : {
        "baseColorFactor" : [ 0.9, 0.3, 0.3, 1.0 ],
        "metallicFactor" : 0.1,
        "roughnessFactor" : 0.5
      }
    }
  ],
  "meshes" : [
    {
      "primitives" : [
        {
          "attributes" : {
            "POSITION" : 1,
            "NORMAL" : 2,
            "TANGENT" : 3,
            "TEXCOORD_0" : 4,
            "TEXCOORD_1" : 5
          },
          "indices" : 0,
          "material" : 0
        },
        {
          "attributes" : {
            "POSITION" : 7,
            "NORMAL" : 8,
            "TANGENT" : 9,
            "TEXCOORD_0" : 10,
            "TEXCOORD_1" : 11
          },
          "indices" : 6,
          "material" : 1
        }
      ],
      "name" : "ControlRoomPuzzle_PressurePlate_01"
    }
  ],
  "buffers" : [
    {
      "uri" : "ControlRoomPuzzle_PressurePlate_01.bin",
      "byteLength" : 19220
    }
  ],
  "bufferViews" : [
    {
      "buffer" : 0,
      "byteOffset" : 0,
      "byteLength" : 1572
    },
    {
      "buffer" : 0,
      "byteOffset" : 1572,
      "byteLength" : 3096
    },
    {
      "buffer" : 0,
      "byteOffset" : 4668,
      "byteLength" : 3096
    },
    {
      "buffer" : 0,
      "byteOffset" : 7764,
      "byteLength" : 4128
    },
    {
      "buffer" : 0,
      "byteOffset" : 11892,
      "byteLength" : 2064
    },
    {
      "buffer" : 0,
      "byteOffset" : 13956,
      "byteLength" : 2064
    },
    {
      "buffer" : 0,
      "byteOffset" : 16020,
      "byteLength" : 288
    },
    {
      "buffer" : 0,
      "byteOffset" : 16308,
      "byteLength" : 624
    },
    {
      "buffer" : 0,
      "byteOffset" : 16932,
      "byteLength" : 624
    },
    {
      "buffer" : 0,
      "byteOffset" : 17556,
      "byteLength" : 832
    },
    {
      "buffer" : 0,
      "byteOffset" : 18388,
      "byteLength" : 416
    },
    {
      "buffer" : 0,
      "byteOffset" : 18804,
      "byteLength" : 416
    }
  ],
  "accessors" : [
    {
      "bufferView" : 0,
      "componentType" : 5123,
      "count" : 786,
      "type" : "SCALAR"
    },
    {
      "bufferView" : 1,
      "min" : [ -1.0788, -0.1364, -1.0788 ],
      "max" : [ 1.0788, 0.1364, 1.0788 ],
      "componentType" : 5126,
      "count" : 258,
      "type" : "VEC3"
    },
    {
      "bufferView" : 2,
      "componentType" : 5126,
      "count" : 258,
      "type" : "VEC3"
    },
    {
      "bufferView" : 3,
      "componentType" : 5126,
      "count" : 258,
      "type" : "VEC4"
    },
    {
      "bufferView" : 4,
      "componentType" : 5126,
      "count" : 258,
      "type" : "VEC2"
    },
    {
      "bufferView" : 5,
      "componentType" : 5126,
      "count" : 258,
      "type" : "VEC2"
    },
    {
      "bufferView" : 6,
      "componentType" : 5123,
      "count" : 144,
      "type" : "SCALAR"
    },
    {
      "bufferView" : 7,
      "min" : [ -0.918831, 0.0984, -0.918831 ],
      "max" : [ 0.918831, 0.0984, 0.918831 ],
      "componentType" : 5126,
      "count" : 52,
      "type" : "VEC3"
    },
    {
      "bufferView" : 8,
      "componentType" : 5126,
      "count" : 52,
      "type" : "VEC3"
    },
    {
      "bufferView" : 9,
      "componentType" : 5126,
      "count" : 52,
      "type" : "VEC4"
    },
    {
      "bufferView" : 10,
      "componentType" : 5126,
      "count" : 52,
      "type" : "VEC2"
    },
    {
      "bufferView" : 11,
      "componentType" : 5126,
      "count" : 52,
      "type" : "VEC2"
    }
  ]
}
