{
  "asset" : {
    "generator" : "UE Viewer (umodel) build 1579 based",
    "version" : "2.0"
  },
  "scene" : 0,
  "scenes" : [
    {
      "nodes" : [ 0 ]
    }
  ],
  "nodes" : [
    {
      "name" : "ControlRoomPuzzle_PressurePlateLock_01",
      "mesh" : 0
    }
  ],
  "materials" : [
    {
      "name" : "ControlRoomPuzzle_PressurePlate_01",
      "pbrMetallicRoughness" : {
        "baseColorFactor" : [ 0.3, 0.3, 0.3, 1.0 ],
        "metallicFactor" : 0.1,
        "roughnessFactor" : 0.5
      }
    }
  ],
  "meshes" : [
    {
      "primitives" : [
        {
          "attributes" : {
            "POSITION" : 1,
            "NORMAL" : 2,
            "TANGENT" : 3,
            "TEXCOORD_0" : 4,
            "TEXCOORD_1" : 5
          },
          "indices" : 0,
          "material" : 0
        }
      ],
      "name" : "ControlRoomPuzzle_PressurePlateLock_01"
    }
  ],
  "buffers" : [
    {
      "uri" : "ControlRoomPuzzle_PressurePlateLock_01.bin",
      "byteLength" : 3064
    }
  ],
  "bufferViews" : [
    {
      "buffer" : 0,
      "byteOffset" : 0,
      "byteLength" : 264
    },
    {
      "buffer" : 0,
      "byteOffset" : 264,
      "byteLength" : 600
    },
    {
      "buffer" : 0,
      "byteOffset" : 864,
      "byteLength" : 600
    },
    {
      "buffer" : 0,
      "byteOffset" : 1464,
      "byteLength" : 800
    },
    {
      "buffer" : 0,
      "byteOffset" : 2264,
      "byteLength" : 400
    },
    {
      "buffer" : 0,
      "byteOffset" : 2664,
      "byteLength" : 400
    }
  ],
  "accessors" : [
    {
      "bufferView" : 0,
      "componentType" : 5123,
      "count" : 132,
      "type" : "SCALAR"
    },
    {
      "bufferView" : 1,
      "min" : [ -0.181358, -1.1105e-17, -0.181358 ],
      "max" : [ 0.181358, 0.966913, 0.181358 ],
      "componentType" : 5126,
      "count" : 50,
      "type" : "VEC3"
    },
    {
      "bufferView" : 2,
      "componentType" : 5126,
      "count" : 50,
      "type" : "VEC3"
    },
    {
      "bufferView" : 3,
      "componentType" : 5126,
      "count" : 50,
      "type" : "VEC4"
    },
    {
      "bufferView" : 4,
      "componentType" : 5126,
      "count" : 50,
      "type" : "VEC2"
    },
    {
      "bufferView" : 5,
      "componentType" : 5126,
      "count" : 50,
      "type" : "VEC2"
    }
  ]
}
