{
  "asset" : {
    "generator" : "UE Viewer (umodel) build 1579 based",
    "version" : "2.0"
  },
  "scene" : 0,
  "scenes" : [
    {
      "nodes" : [ 0 ]
    }
  ],
  "nodes" : [
    {
      "name" : "ControlRoom_NoteBoard_01",
      "mesh" : 0
    }
  ],
  "materials" : [
    {
      "name" : "ControlRoom_NoteBoard_01",
      "pbrMetallicRoughness" : {
        "baseColorFactor" : [ 0.3, 0.3, 0.3, 1.0 ],
        "metallicFactor" : 0.1,
        "roughnessFactor" : 0.5
      }
    },
    {
      "name" : "WorldGridMaterial",
      "pbrMetallicRoughness" : {
        "baseColorFactor" : [ 0.9, 0.3, 0.3, 1.0 ],
        "metallicFactor" : 0.1,
        "roughnessFactor" : 0.5
      }
    }
  ],
  "meshes" : [
    {
      "primitives" : [
        {
          "attributes" : {
            "POSITION" : 1,
            "NORMAL" : 2,
            "TANGENT" : 3,
            "TEXCOORD_0" : 4,
            "TEXCOORD_1" : 5
          },
          "indices" : 0,
          "material" : 0
        },
        {
          "attributes" : {
            "POSITION" : 7,
            "NORMAL" : 8,
            "TANGENT" : 9,
            "TEXCOORD_0" : 10,
            "TEXCOORD_1" : 11
          },
          "indices" : 6,
          "material" : 1
        }
      ],
      "name" : "ControlRoom_NoteBoard_01"
    }
  ],
  "buffers" : [
    {
      "uri" : "ControlRoom_NoteBoard_01.bin",
      "byteLength" : 221580
    }
  ],
  "bufferViews" : [
    {
      "buffer" : 0,
      "byteOffset" : 0,
      "byteLength" : 2724
    },
    {
      "buffer" : 0,
      "byteOffset" : 2724,
      "byteLength" : 5052
    },
    {
      "buffer" : 0,
      "byteOffset" : 7776,
      "byteLength" : 5052
    },
    {
      "buffer" : 0,
      "byteOffset" : 12828,
      "byteLength" : 6736
    },
    {
      "buffer" : 0,
      "byteOffset" : 19564,
      "byteLength" : 3368
    },
    {
      "buffer" : 0,
      "byteOffset" : 22932,
      "byteLength" : 3368
    },
    {
      "buffer" : 0,
      "byteOffset" : 26300,
      "byteLength" : 21120
    },
    {
      "buffer" : 0,
      "byteOffset" : 47420,
      "byteLength" : 37320
    },
    {
      "buffer" : 0,
      "byteOffset" : 84740,
      "byteLength" : 37320
    },
    {
      "buffer" : 0,
      "byteOffset" : 122060,
      "byteLength" : 49760
    },
    {
      "buffer" : 0,
      "byteOffset" : 171820,
      "byteLength" : 24880
    },
    {
      "buffer" : 0,
      "byteOffset" : 196700,
      "byteLength" : 24880
    }
  ],
  "accessors" : [
    {
      "bufferView" : 0,
      "componentType" : 5123,
      "count" : 1362,
      "type" : "SCALAR"
    },
    {
      "bufferView" : 1,
      "min" : [ 0.00240245, -3.97125, -6.38212 ],
      "max" : [ 1.2118, 4.05125, 6.38212 ],
      "componentType" : 5126,
      "count" : 421,
      "type" : "VEC3"
    },
    {
      "bufferView" : 2,
      "componentType" : 5126,
      "count" : 421,
      "type" : "VEC3"
    },
    {
      "bufferView" : 3,
      "componentType" : 5126,
      "count" : 421,
      "type" : "VEC4"
    },
    {
      "bufferView" : 4,
      "componentType" : 5126,
      "count" : 421,
      "type" : "VEC2"
    },
    {
      "bufferView" : 5,
      "componentType" : 5126,
      "count" : 421,
      "type" : "VEC2"
    },
    {
      "bufferView" : 6,
      "componentType" : 5123,
      "count" : 10560,
      "type" : "SCALAR"
    },
    {
      "bufferView" : 7,
      "min" : [ 0.0712812, -0.833247, -5.94311 ],
      "max" : [ 0.479719, 3.56325, 4.63811 ],
      "componentType" : 5126,
      "count" : 3110,
      "type" : "VEC3"
    },
    {
      "bufferView" : 8,
      "componentType" : 5126,
      "count" : 3110,
      "type" : "VEC3"
    },
    {
      "bufferView" : 9,
      "componentType" : 5126,
      "count" : 3110,
      "type" : "VEC4"
    },
    {
      "bufferView" : 10,
      "componentType" : 5126,
      "count" : 3110,
      "type" : "VEC2"
    },
    {
      "bufferView" : 11,
      "componentType" : 5126,
      "count" : 3110,
      "type" : "VEC2"
    }
  ]
}
