{
  "asset" : {
    "generator" : "UE Viewer (umodel) build 1579 based",
    "version" : "2.0"
  },
  "scene" : 0,
  "scenes" : [
    {
      "nodes" : [ 0 ]
    }
  ],
  "nodes" : [
    {
      "name" : "ControlRoom_GraphMonitor_01",
      "mesh" : 0
    }
  ],
  "materials" : [
    {
      "name" : "ControlRoom_GraphMonitor_01",
      "pbrMetallicRoughness" : {
        "baseColorFactor" : [ 0.3, 0.3, 0.3, 1.0 ],
        "metallicFactor" : 0.1,
        "roughnessFactor" : 0.5
      }
    },
    {
      "name" : "Space_Plastic_Black_01",
      "pbrMetallicRoughness" : {
        "baseColorFactor" : [ 0.9, 0.3, 0.3, 1.0 ],
        "metallicFactor" : 0.1,
        "roughnessFactor" : 0.5
      }
    },
    {
      "name" : "Rose_Photos_01",
      "pbrMetallicRoughness" : {
        "baseColorFactor" : [ 0.3, 0.9, 0.3, 1.0 ],
        "metallicFactor" : 0.1,
        "roughnessFactor" : 0.5
      }
    }
  ],
  "meshes" : [
    {
      "primitives" : [
        {
          "attributes" : {
            "POSITION" : 1,
            "NORMAL" : 2,
            "TANGENT" : 3,
            "TEXCOORD_0" : 4,
            "TEXCOORD_1" : 5
          },
          "indices" : 0,
          "material" : 0
        },
        {
          "attributes" : {
            "POSITION" : 7,
            "NORMAL" : 8,
            "TANGENT" : 9,
            "TEXCOORD_0" : 10,
            "TEXCOORD_1" : 11
          },
          "indices" : 6,
          "material" : 1
        },
        {
          "attributes" : {
            "POSITION" : 13,
            "NORMAL" : 14,
            "TANGENT" : 15,
            "TEXCOORD_0" : 16,
            "TEXCOORD_1" : 17
          },
          "indices" : 12,
          "material" : 2
        }
      ],
      "name" : "ControlRoom_GraphMonitor_01"
    }
  ],
  "buffers" : [
    {
      "uri" : "ControlRoom_GraphMonitor_01.bin",
      "byteLength" : 213628
    }
  ],
  "bufferViews" : [
    {
      "buffer" : 0,
      "byteOffset" : 0,
      "byteLength" : 21740
    },
    {
      "buffer" : 0,
      "byteOffset" : 21740,
      "byteLength" : 37488
    },
    {
      "buffer" : 0,
      "byteOffset" : 59228,
      "byteLength" : 37488
    },
    {
      "buffer" : 0,
      "byteOffset" : 96716,
      "byteLength" : 49984
    },
    {
      "buffer" : 0,
      "byteOffset" : 146700,
      "byteLength" : 24992
    },
    {
      "buffer" : 0,
      "byteOffset" : 171692,
      "byteLength" : 24992
    },
    {
      "buffer" : 0,
      "byteOffset" : 196684,
      "byteLength" : 540
    },
    {
      "buffer" : 0,
      "byteOffset" : 197224,
      "byteLength" : 960
    },
    {
      "buffer" : 0,
      "byteOffset" : 198184,
      "byteLength" : 960
    },
    {
      "buffer" : 0,
      "byteOffset" : 199144,
      "byteLength" : 1280
    },
    {
      "buffer" : 0,
      "byteOffset" : 200424,
      "byteLength" : 640
    },
    {
      "buffer" : 0,
      "byteOffset" : 201064,
      "byteLength" : 640
    },
    {
      "buffer" : 0,
      "byteOffset" : 201704,
      "byteLength" : 1956
    },
    {
      "buffer" : 0,
      "byteOffset" : 203660,
      "byteLength" : 2136
    },
    {
      "buffer" : 0,
      "byteOffset" : 205796,
      "byteLength" : 2136
    },
    {
      "buffer" : 0,
      "byteOffset" : 207932,
      "byteLength" : 2848
    },
    {
      "buffer" : 0,
      "byteOffset" : 210780,
      "byteLength" : 1424
    },
    {
      "buffer" : 0,
      "byteOffset" : 212204,
      "byteLength" : 1424
    }
  ],
  "accessors" : [
    {
      "bufferView" : 0,
      "componentType" : 5123,
      "count" : 10869,
      "type" : "SCALAR"
    },
    {
      "bufferView" : 1,
      "min" : [ -2.88023, -6.64367, -10.2265 ],
      "max" : [ 3.316, 5.2836, 6.74655 ],
      "componentType" : 5126,
      "count" : 3124,
      "type" : "VEC3"
    },
    {
      "bufferView" : 2,
      "componentType" : 5126,
      "count" : 3124,
      "type" : "VEC3"
    },
    {
      "bufferView" : 3,
      "componentType" : 5126,
      "count" : 3124,
      "type" : "VEC4"
    },
    {
      "bufferView" : 4,
      "componentType" : 5126,
      "count" : 3124,
      "type" : "VEC2"
    },
    {
      "bufferView" : 5,
      "componentType" : 5126,
      "count" : 3124,
      "type" : "VEC2"
    },
    {
      "bufferView" : 6,
      "componentType" : 5123,
      "count" : 270,
      "type" : "SCALAR"
    },
    {
      "bufferView" : 7,
      "min" : [ -7.43, -5.9864, -9.16279 ],
      "max" : [ -2.67, 4.3264, 5.6448 ],
      "componentType" : 5126,
      "count" : 80,
      "type" : "VEC3"
    },
    {
      "bufferView" : 8,
      "componentType" : 5126,
      "count" : 80,
      "type" : "VEC3"
    },
    {
      "bufferView" : 9,
      "componentType" : 5126,
      "count" : 80,
      "type" : "VEC4"
    },
    {
      "bufferView" : 10,
      "componentType" : 5126,
      "count" : 80,
      "type" : "VEC2"
    },
    {
      "bufferView" : 11,
      "componentType" : 5126,
      "count" : 80,
      "type" : "VEC2"
    },
    {
      "bufferView" : 12,
      "componentType" : 5123,
      "count" : 978,
      "type" : "SCALAR"
    },
    {
      "bufferView" : 13,
      "min" : [ 1.89, -3.91993, -5.1052 ],
      "max" : [ 2.47, 3.66399, 4.88178 ],
      "componentType" : 5126,
      "count" : 178,
      "type" : "VEC3"
    },
    {
      "bufferView" : 14,
      "componentType" : 5126,
      "count" : 178,
      "type" : "VEC3"
    },
    {
      "bufferView" : 15,
      "componentType" : 5126,
      "count" : 178,
      "type" : "VEC4"
    },
    {
      "bufferView" : 16,
      "componentType" : 5126,
      "count" : 178,
      "type" : "VEC2"
    },
    {
      "bufferView" : 17,
      "componentType" : 5126,
      "count" : 178,
      "type" : "VEC2"
    }
  ]
}
