{
  "asset" : {
    "generator" : "UE Viewer (umodel) build 1579 based",
    "version" : "2.0"
  },
  "scene" : 0,
  "scenes" : [
    {
      "nodes" : [ 0 ]
    }
  ],
  "nodes" : [
    {
      "name" : "ControlRoomPuzzle_PressurePlateFrame_01",
      "mesh" : 0
    }
  ],
  "materials" : [
    {
      "name" : "ControlRoomPuzzle_PressurePlate_01",
      "pbrMetallicRoughness" : {
        "baseColorFactor" : [ 0.3, 0.3, 0.3, 1.0 ],
        "metallicFactor" : 0.1,
        "roughnessFactor" : 0.5
      }
    }
  ],
  "meshes" : [
    {
      "primitives" : [
        {
          "attributes" : {
            "POSITION" : 1,
            "NORMAL" : 2,
            "TANGENT" : 3,
            "TEXCOORD_0" : 4,
            "TEXCOORD_1" : 5
          },
          "indices" : 0,
          "material" : 0
        }
      ],
      "name" : "ControlRoomPuzzle_PressurePlateFrame_01"
    }
  ],
  "buffers" : [
    {
      "uri" : "ControlRoomPuzzle_PressurePlateFrame_01.bin",
      "byteLength" : 54072
    }
  ],
  "bufferViews" : [
    {
      "buffer" : 0,
      "byteOffset" : 0,
      "byteLength" : 6528
    },
    {
      "buffer" : 0,
      "byteOffset" : 6528,
      "byteLength" : 10188
    },
    {
      "buffer" : 0,
      "byteOffset" : 16716,
      "byteLength" : 10188
    },
    {
      "buffer" : 0,
      "byteOffset" : 26904,
      "byteLength" : 13584
    },
    {
      "buffer" : 0,
      "byteOffset" : 40488,
      "byteLength" : 6792
    },
    {
      "buffer" : 0,
      "byteOffset" : 47280,
      "byteLength" : 6792
    }
  ],
  "accessors" : [
    {
      "bufferView" : 0,
      "componentType" : 5123,
      "count" : 3264,
      "type" : "SCALAR"
    },
    {
      "bufferView" : 1,
      "min" : [ -1.64343, -0.242063, -1.64343 ],
      "max" : [ 1.64343, 0.147913, 1.64343 ],
      "componentType" : 5126,
      "count" : 849,
      "type" : "VEC3"
    },
    {
      "bufferView" : 2,
      "componentType" : 5126,
      "count" : 849,
      "type" : "VEC3"
    },
    {
      "bufferView" : 3,
      "componentType" : 5126,
      "count" : 849,
      "type" : "VEC4"
    },
    {
      "bufferView" : 4,
      "componentType" : 5126,
      "count" : 849,
      "type" : "VEC2"
    },
    {
      "bufferView" : 5,
      "componentType" : 5126,
      "count" : 849,
      "type" : "VEC2"
    }
  ]
}
