{
  "asset" : {
    "generator" : "UE Viewer (umodel) build 1579 based",
    "version" : "2.0"
  },
  "scene" : 0,
  "scenes" : [
    {
      "nodes" : [ 0 ]
    }
  ],
  "nodes" : [
    {
      "name" : "ControlRoom_Cable_01",
      "mesh" : 0
    }
  ],
  "materials" : [
    {
      "name" : "Space_Plastic_Cable_01",
      "pbrMetallicRoughness" : {
        "baseColorFactor" : [ 0.3, 0.3, 0.3, 1.0 ],
        "metallicFactor" : 0.1,
        "roughnessFactor" : 0.5
      }
    }
  ],
  "meshes" : [
    {
      "primitives" : [
        {
          "attributes" : {
            "POSITION" : 1,
            "NORMAL" : 2,
            "TANGENT" : 3,
            "TEXCOORD_0" : 4,
            "TEXCOORD_1" : 5
          },
          "indices" : 0,
          "material" : 0
        }
      ],
      "name" : "ControlRoom_Cable_01"
    }
  ],
  "buffers" : [
    {
      "uri" : "ControlRoom_Cable_01.bin",
      "byteLength" : 3432
    }
  ],
  "bufferViews" : [
    {
      "buffer" : 0,
      "byteOffset" : 0,
      "byteLength" : 408
    },
    {
      "buffer" : 0,
      "byteOffset" : 408,
      "byteLength" : 648
    },
    {
      "buffer" : 0,
      "byteOffset" : 1056,
      "byteLength" : 648
    },
    {
      "buffer" : 0,
      "byteOffset" : 1704,
      "byteLength" : 864
    },
    {
      "buffer" : 0,
      "byteOffset" : 2568,
      "byteLength" : 432
    },
    {
      "buffer" : 0,
      "byteOffset" : 3000,
      "byteLength" : 432
    }
  ],
  "accessors" : [
    {
      "bufferView" : 0,
      "componentType" : 5123,
      "count" : 204,
      "type" : "SCALAR"
    },
    {
      "bufferView" : 1,
      "min" : [ -1, -0.11, -0.0952628 ],
      "max" : [ 1, 0.11, 0.0952628 ],
      "componentType" : 5126,
      "count" : 54,
      "type" : "VEC3"
    },
    {
      "bufferView" : 2,
      "componentType" : 5126,
      "count" : 54,
      "type" : "VEC3"
    },
    {
      "bufferView" : 3,
      "componentType" : 5126,
      "count" : 54,
      "type" : "VEC4"
    },
    {
      "bufferView" : 4,
      "componentType" : 5126,
      "count" : 54,
      "type" : "VEC2"
    },
    {
      "bufferView" : 5,
      "componentType" : 5126,
      "count" : 54,
      "type" : "VEC2"
    }
  ]
}
