{
  "asset" : {
    "generator" : "UE Viewer (umodel) build 1579 based",
    "version" : "2.0"
  },
  "scene" : 0,
  "scenes" : [
    {
      "nodes" : [ 0 ]
    }
  ],
  "nodes" : [
    {
      "name" : "ControlRoom_Monitor_02",
      "mesh" : 0
    }
  ],
  "materials" : [
    {
      "name" : "ControlRoom_Monitor_02",
      "pbrMetallicRoughness" : {
        "baseColorFactor" : [ 0.3, 0.3, 0.3, 1.0 ],
        "metallicFactor" : 0.1,
        "roughnessFactor" : 0.5
      }
    },
    {
      "name" : "Rose_Photos_01",
      "pbrMetallicRoughness" : {
        "baseColorFactor" : [ 0.9, 0.3, 0.3, 1.0 ],
        "metallicFactor" : 0.1,
        "roughnessFactor" : 0.5
      }
    }
  ],
  "meshes" : [
    {
      "primitives" : [
        {
          "attributes" : {
            "POSITION" : 1,
            "NORMAL" : 2,
            "TANGENT" : 3,
            "TEXCOORD_0" : 4,
            "TEXCOORD_1" : 5
          },
          "indices" : 0,
          "material" : 0
        },
        {
          "attributes" : {
            "POSITION" : 7,
            "NORMAL" : 8,
            "TANGENT" : 9,
            "TEXCOORD_0" : 10,
            "TEXCOORD_1" : 11
          },
          "indices" : 6,
          "material" : 1
        }
      ],
      "name" : "ControlRoom_Monitor_02"
    }
  ],
  "buffers" : [
    {
      "uri" : "ControlRoom_Monitor_02.bin",
      "byteLength" : 158360
    }
  ],
  "bufferViews" : [
    {
      "buffer" : 0,
      "byteOffset" : 0,
      "byteLength" : 17712
    },
    {
      "buffer" : 0,
      "byteOffset" : 17712,
      "byteLength" : 26460
    },
    {
      "buffer" : 0,
      "byteOffset" : 44172,
      "byteLength" : 26460
    },
    {
      "buffer" : 0,
      "byteOffset" : 70632,
      "byteLength" : 35280
    },
    {
      "buffer" : 0,
      "byteOffset" : 105912,
      "byteLength" : 17640
    },
    {
      "buffer" : 0,
      "byteOffset" : 123552,
      "byteLength" : 17640
    },
    {
      "buffer" : 0,
      "byteOffset" : 141192,
      "byteLength" : 2832
    },
    {
      "buffer" : 0,
      "byteOffset" : 144024,
      "byteLength" : 3072
    },
    {
      "buffer" : 0,
      "byteOffset" : 147096,
      "byteLength" : 3072
    },
    {
      "buffer" : 0,
      "byteOffset" : 150168,
      "byteLength" : 4096
    },
    {
      "buffer" : 0,
      "byteOffset" : 154264,
      "byteLength" : 2048
    },
    {
      "buffer" : 0,
      "byteOffset" : 156312,
      "byteLength" : 2048
    }
  ],
  "accessors" : [
    {
      "bufferView" : 0,
      "componentType" : 5123,
      "count" : 8856,
      "type" : "SCALAR"
    },
    {
      "bufferView" : 1,
      "min" : [ -2.90614, 0.0537444, -2.89651 ],
      "max" : [ 2.39913, 11.0546, 2.44129 ],
      "componentType" : 5126,
      "count" : 2205,
      "type" : "VEC3"
    },
    {
      "bufferView" : 2,
      "componentType" : 5126,
      "count" : 2205,
      "type" : "VEC3"
    },
    {
      "bufferView" : 3,
      "componentType" : 5126,
      "count" : 2205,
      "type" : "VEC4"
    },
    {
      "bufferView" : 4,
      "componentType" : 5126,
      "count" : 2205,
      "type" : "VEC2"
    },
    {
      "bufferView" : 5,
      "componentType" : 5126,
      "count" : 2205,
      "type" : "VEC2"
    },
    {
      "bufferView" : 6,
      "componentType" : 5123,
      "count" : 1416,
      "type" : "SCALAR"
    },
    {
      "bufferView" : 7,
      "min" : [ 1.90538, 1.71862, -2.19387 ],
      "max" : [ 2.06032, 5.00138, 2.23387 ],
      "componentType" : 5126,
      "count" : 256,
      "type" : "VEC3"
    },
    {
      "bufferView" : 8,
      "componentType" : 5126,
      "count" : 256,
      "type" : "VEC3"
    },
    {
      "bufferView" : 9,
      "componentType" : 5126,
      "count" : 256,
      "type" : "VEC4"
    },
    {
      "bufferView" : 10,
      "componentType" : 5126,
      "count" : 256,
      "type" : "VEC2"
    },
    {
      "bufferView" : 11,
      "componentType" : 5126,
      "count" : 256,
      "type" : "VEC2"
    }
  ]
}
