{
  "asset" : {
    "generator" : "UE Viewer (umodel) build 1579 based",
    "version" : "2.0"
  },
  "scene" : 0,
  "scenes" : [
    {
      "nodes" : [ 0 ]
    }
  ],
  "nodes" : [
    {
      "name" : "ControlRoom_Computer_01",
      "mesh" : 0
    }
  ],
  "materials" : [
    {
      "name" : "ControlRoom_Computer_01",
      "pbrMetallicRoughness" : {
        "baseColorFactor" : [ 0.3, 0.3, 0.3, 1.0 ],
        "metallicFactor" : 0.1,
        "roughnessFactor" : 0.5
      }
    },
    {
      "name" : "Rose_Photos_01",
      "pbrMetallicRoughness" : {
        "baseColorFactor" : [ 0.9, 0.3, 0.3, 1.0 ],
        "metallicFactor" : 0.1,
        "roughnessFactor" : 0.5
      }
    }
  ],
  "meshes" : [
    {
      "primitives" : [
        {
          "attributes" : {
            "POSITION" : 1,
            "NORMAL" : 2,
            "TANGENT" : 3,
            "TEXCOORD_0" : 4,
            "TEXCOORD_1" : 5
          },
          "indices" : 0,
          "material" : 0
        },
        {
          "attributes" : {
            "POSITION" : 7,
            "NORMAL" : 8,
            "TANGENT" : 9,
            "TEXCOORD_0" : 10,
            "TEXCOORD_1" : 11
          },
          "indices" : 6,
          "material" : 1
        }
      ],
      "name" : "ControlRoom_Computer_01"
    }
  ],
  "buffers" : [
    {
      "uri" : "ControlRoom_Computer_01.bin",
      "byteLength" : 452256
    }
  ],
  "bufferViews" : [
    {
      "buffer" : 0,
      "byteOffset" : 0,
      "byteLength" : 58880
    },
    {
      "buffer" : 0,
      "byteOffset" : 58880,
      "byteLength" : 82296
    },
    {
      "buffer" : 0,
      "byteOffset" : 141176,
      "byteLength" : 82296
    },
    {
      "buffer" : 0,
      "byteOffset" : 223472,
      "byteLength" : 109728
    },
    {
      "buffer" : 0,
      "byteOffset" : 333200,
      "byteLength" : 54864
    },
    {
      "buffer" : 0,
      "byteOffset" : 388064,
      "byteLength" : 54864
    },
    {
      "buffer" : 0,
      "byteOffset" : 442928,
      "byteLength" : 1488
    },
    {
      "buffer" : 0,
      "byteOffset" : 444416,
      "byteLength" : 1680
    },
    {
      "buffer" : 0,
      "byteOffset" : 446096,
      "byteLength" : 1680
    },
    {
      "buffer" : 0,
      "byteOffset" : 447776,
      "byteLength" : 2240
    },
    {
      "buffer" : 0,
      "byteOffset" : 450016,
      "byteLength" : 1120
    },
    {
      "buffer" : 0,
      "byteOffset" : 451136,
      "byteLength" : 1120
    }
  ],
  "accessors" : [
    {
      "bufferView" : 0,
      "componentType" : 5123,
      "count" : 29439,
      "type" : "SCALAR"
    },
    {
      "bufferView" : 1,
      "min" : [ -3.89047, -0.291603, -5.11052 ],
      "max" : [ 3.67757, 6.611, 5.11052 ],
      "componentType" : 5126,
      "count" : 6858,
      "type" : "VEC3"
    },
    {
      "bufferView" : 2,
      "componentType" : 5126,
      "count" : 6858,
      "type" : "VEC3"
    },
    {
      "bufferView" : 3,
      "componentType" : 5126,
      "count" : 6858,
      "type" : "VEC4"
    },
    {
      "bufferView" : 4,
      "componentType" : 5126,
      "count" : 6858,
      "type" : "VEC2"
    },
    {
      "bufferView" : 5,
      "componentType" : 5126,
      "count" : 6858,
      "type" : "VEC2"
    },
    {
      "bufferView" : 6,
      "componentType" : 5123,
      "count" : 744,
      "type" : "SCALAR"
    },
    {
      "bufferView" : 7,
      "min" : [ -0.277145, 1.38166, -1.65023 ],
      "max" : [ 0.730737, 5.77672, 4.24762 ],
      "componentType" : 5126,
      "count" : 140,
      "type" : "VEC3"
    },
    {
      "bufferView" : 8,
      "componentType" : 5126,
      "count" : 140,
      "type" : "VEC3"
    },
    {
      "bufferView" : 9,
      "componentType" : 5126,
      "count" : 140,
      "type" : "VEC4"
    },
    {
      "bufferView" : 10,
      "componentType" : 5126,
      "count" : 140,
      "type" : "VEC2"
    },
    {
      "bufferView" : 11,
      "componentType" : 5126,
      "count" : 140,
      "type" : "VEC2"
    }
  ]
}
