{
  "asset" : {
    "generator" : "UE Viewer (umodel) build 1579 based",
    "version" : "2.0"
  },
  "scene" : 0,
  "scenes" : [
    {
      "nodes" : [ 0 ]
    }
  ],
  "nodes" : [
    {
      "name" : "ControlRoom_DoorFrame_01",
      "mesh" : 0
    }
  ],
  "materials" : [
    {
      "name" : "ControlRoom_DoorFrame_01",
      "pbrMetallicRoughness" : {
        "baseColorFactor" : [ 0.3, 0.3, 0.3, 1.0 ],
        "metallicFactor" : 0.1,
        "roughnessFactor" : 0.5
      }
    }
  ],
  "meshes" : [
    {
      "primitives" : [
        {
          "attributes" : {
            "POSITION" : 1,
            "NORMAL" : 2,
            "TANGENT" : 3,
            "TEXCOORD_0" : 4,
            "TEXCOORD_1" : 5
          },
          "indices" : 0,
          "material" : 0
        }
      ],
      "name" : "ControlRoom_DoorFrame_01"
    }
  ],
  "buffers" : [
    {
      "uri" : "ControlRoom_DoorFrame_01.bin",
      "byteLength" : 67368
    }
  ],
  "bufferViews" : [
    {
      "buffer" : 0,
      "byteOffset" : 0,
      "byteLength" : 6216
    },
    {
      "buffer" : 0,
      "byteOffset" : 6216,
      "byteLength" : 13104
    },
    {
      "buffer" : 0,
      "byteOffset" : 19320,
      "byteLength" : 13104
    },
    {
      "buffer" : 0,
      "byteOffset" : 32424,
      "byteLength" : 17472
    },
    {
      "buffer" : 0,
      "byteOffset" : 49896,
      "byteLength" : 8736
    },
    {
      "buffer" : 0,
      "byteOffset" : 58632,
      "byteLength" : 8736
    }
  ],
  "accessors" : [
    {
      "bufferView" : 0,
      "componentType" : 5123,
      "count" : 3108,
      "type" : "SCALAR"
    },
    {
      "bufferView" : 1,
      "min" : [ -20.34, -0.64, -2.62725 ],
      "max" : [ 20.34, 24.76, 2.62725 ],
      "componentType" : 5126,
      "count" : 1092,
      "type" : "VEC3"
    },
    {
      "bufferView" : 2,
      "componentType" : 5126,
      "count" : 1092,
      "type" : "VEC3"
    },
    {
      "bufferView" : 3,
      "componentType" : 5126,
      "count" : 1092,
      "type" : "VEC4"
    },
    {
      "bufferView" : 4,
      "componentType" : 5126,
      "count" : 1092,
      "type" : "VEC2"
    },
    {
      "bufferView" : 5,
      "componentType" : 5126,
      "count" : 1092,
      "type" : "VEC2"
    }
  ]
}
