{
  "asset" : {
    "generator" : "UE Viewer (umodel) build 1579 based",
    "version" : "2.0"
  },
  "scene" : 0,
  "scenes" : [
    {
      "nodes" : [ 0 ]
    }
  ],
  "nodes" : [
    {
      "name" : "ControlRoomPuzzle_PipeTiny_01",
      "mesh" : 0
    }
  ],
  "materials" : [
    {
      "name" : "ControlRoomPuzzle_Pipe_01",
      "pbrMetallicRoughness" : {
        "baseColorFactor" : [ 0.3, 0.3, 0.3, 1.0 ],
        "metallicFactor" : 0.1,
        "roughnessFactor" : 0.5
      }
    }
  ],
  "meshes" : [
    {
      "primitives" : [
        {
          "attributes" : {
            "POSITION" : 1,
            "NORMAL" : 2,
            "TANGENT" : 3,
            "TEXCOORD_0" : 4,
            "TEXCOORD_1" : 5,
            "TEXCOORD_2" : 6
          },
          "indices" : 0,
          "material" : 0
        }
      ],
      "name" : "ControlRoomPuzzle_PipeTiny_01"
    }
  ],
  "buffers" : [
    {
      "uri" : "ControlRoomPuzzle_PipeTiny_01.bin",
      "byteLength" : 77312
    }
  ],
  "bufferViews" : [
    {
      "buffer" : 0,
      "byteOffset" : 0,
      "byteLength" : 8064
    },
    {
      "buffer" : 0,
      "byteOffset" : 8064,
      "byteLength" : 12984
    },
    {
      "buffer" : 0,
      "byteOffset" : 21048,
      "byteLength" : 12984
    },
    {
      "buffer" : 0,
      "byteOffset" : 34032,
      "byteLength" : 17312
    },
    {
      "buffer" : 0,
      "byteOffset" : 51344,
      "byteLength" : 8656
    },
    {
      "buffer" : 0,
      "byteOffset" : 60000,
      "byteLength" : 8656
    },
    {
      "buffer" : 0,
      "byteOffset" : 68656,
      "byteLength" : 8656
    }
  ],
  "accessors" : [
    {
      "bufferView" : 0,
      "componentType" : 5123,
      "count" : 4032,
      "type" : "SCALAR"
    },
    {
      "bufferView" : 1,
      "min" : [ 0.00300064, -0.524142, -0.524142 ],
      "max" : [ 2.38683, 0.524142, 0.524142 ],
      "componentType" : 5126,
      "count" : 1082,
      "type" : "VEC3"
    },
    {
      "bufferView" : 2,
      "componentType" : 5126,
      "count" : 1082,
      "type" : "VEC3"
    },
    {
      "bufferView" : 3,
      "componentType" : 5126,
      "count" : 1082,
      "type" : "VEC4"
    },
    {
      "bufferView" : 4,
      "componentType" : 5126,
      "count" : 1082,
      "type" : "VEC2"
    },
    {
      "bufferView" : 5,
      "componentType" : 5126,
      "count" : 1082,
      "type" : "VEC2"
    },
    {
      "bufferView" : 6,
      "componentType" : 5126,
      "count" : 1082,
      "type" : "VEC2"
    }
  ]
}
