{
  "asset" : {
    "generator" : "UE Viewer (umodel) build 1579 based",
    "version" : "2.0"
  },
  "scene" : 0,
  "scenes" : [
    {
      "nodes" : [ 0 ]
    }
  ],
  "nodes" : [
    {
      "name" : "ControlRoom_Button_Large_01_Button",
      "mesh" : 0
    }
  ],
  "materials" : [
    {
      "name" : "ControlRoom_Keyboard_01",
      "pbrMetallicRoughness" : {
        "baseColorFactor" : [ 0.3, 0.3, 0.3, 1.0 ],
        "metallicFactor" : 0.1,
        "roughnessFactor" : 0.5
      }
    }
  ],
  "meshes" : [
    {
      "primitives" : [
        {
          "attributes" : {
            "POSITION" : 1,
            "NORMAL" : 2,
            "TANGENT" : 3,
            "TEXCOORD_0" : 4,
            "TEXCOORD_1" : 5
          },
          "indices" : 0,
          "material" : 0
        }
      ],
      "name" : "ControlRoom_Button_Large_01_Button"
    }
  ],
  "buffers" : [
    {
      "uri" : "ControlRoom_Button_Large_01_Button.bin",
      "byteLength" : 14824
    }
  ],
  "bufferViews" : [
    {
      "buffer" : 0,
      "byteOffset" : 0,
      "byteLength" : 2112
    },
    {
      "buffer" : 0,
      "byteOffset" : 2112,
      "byteLength" : 2724
    },
    {
      "buffer" : 0,
      "byteOffset" : 4836,
      "byteLength" : 2724
    },
    {
      "buffer" : 0,
      "byteOffset" : 7560,
      "byteLength" : 3632
    },
    {
      "buffer" : 0,
      "byteOffset" : 11192,
      "byteLength" : 1816
    },
    {
      "buffer" : 0,
      "byteOffset" : 13008,
      "byteLength" : 1816
    }
  ],
  "accessors" : [
    {
      "bufferView" : 0,
      "componentType" : 5123,
      "count" : 1056,
      "type" : "SCALAR"
    },
    {
      "bufferView" : 1,
      "min" : [ -0.493514, -3.0219e-17, -0.493514 ],
      "max" : [ 0.493514, 0.324875, 0.493514 ],
      "componentType" : 5126,
      "count" : 227,
      "type" : "VEC3"
    },
    {
      "bufferView" : 2,
      "componentType" : 5126,
      "count" : 227,
      "type" : "VEC3"
    },
    {
      "bufferView" : 3,
      "componentType" : 5126,
      "count" : 227,
      "type" : "VEC4"
    },
    {
      "bufferView" : 4,
      "componentType" : 5126,
      "count" : 227,
      "type" : "VEC2"
    },
    {
      "bufferView" : 5,
      "componentType" : 5126,
      "count" : 227,
      "type" : "VEC2"
    }
  ]
}
