{
  "asset" : {
    "generator" : "UE Viewer (umodel) build 1579 based",
    "version" : "2.0"
  },
  "scene" : 0,
  "scenes" : [
    {
      "nodes" : [ 0 ]
    }
  ],
  "nodes" : [
    {
      "name" : "ControlRoom_Door_01",
      "mesh" : 0
    }
  ],
  "materials" : [
    {
      "name" : "ControlRoom_Door_01",
      "pbrMetallicRoughness" : {
        "baseColorFactor" : [ 0.3, 0.3, 0.3, 1.0 ],
        "metallicFactor" : 0.1,
        "roughnessFactor" : 0.5
      }
    }
  ],
  "meshes" : [
    {
      "primitives" : [
        {
          "attributes" : {
            "POSITION" : 1,
            "NORMAL" : 2,
            "TANGENT" : 3,
            "TEXCOORD_0" : 4,
            "TEXCOORD_1" : 5
          },
          "indices" : 0,
          "material" : 0
        }
      ],
      "name" : "ControlRoom_Door_01"
    }
  ],
  "buffers" : [
    {
      "uri" : "ControlRoom_Door_01.bin",
      "byteLength" : 37396
    }
  ],
  "bufferViews" : [
    {
      "buffer" : 0,
      "byteOffset" : 0,
      "byteLength" : 4020
    },
    {
      "buffer" : 0,
      "byteOffset" : 4020,
      "byteLength" : 7152
    },
    {
      "buffer" : 0,
      "byteOffset" : 11172,
      "byteLength" : 7152
    },
    {
      "buffer" : 0,
      "byteOffset" : 18324,
      "byteLength" : 9536
    },
    {
      "buffer" : 0,
      "byteOffset" : 27860,
      "byteLength" : 4768
    },
    {
      "buffer" : 0,
      "byteOffset" : 32628,
      "byteLength" : 4768
    }
  ],
  "accessors" : [
    {
      "bufferView" : 0,
      "componentType" : 5123,
      "count" : 2010,
      "type" : "SCALAR"
    },
    {
      "bufferView" : 1,
      "min" : [ -16.95, -1.03789e-15, -0.616442 ],
      "max" : [ 0.05, 22.6, 0.616442 ],
      "componentType" : 5126,
      "count" : 596,
      "type" : "VEC3"
    },
    {
      "bufferView" : 2,
      "componentType" : 5126,
      "count" : 596,
      "type" : "VEC3"
    },
    {
      "bufferView" : 3,
      "componentType" : 5126,
      "count" : 596,
      "type" : "VEC4"
    },
    {
      "bufferView" : 4,
      "componentType" : 5126,
      "count" : 596,
      "type" : "VEC2"
    },
    {
      "bufferView" : 5,
      "componentType" : 5126,
      "count" : 596,
      "type" : "VEC2"
    }
  ]
}
