{
  "asset" : {
    "generator" : "UE Viewer (umodel) build 1579 based",
    "version" : "2.0"
  },
  "scene" : 0,
  "scenes" : [
    {
      "nodes" : [ 0 ]
    }
  ],
  "nodes" : [
    {
      "name" : "ControlRoom_Keyboard_01_Base",
      "mesh" : 0
    }
  ],
  "materials" : [
    {
      "name" : "ControlRoom_Keyboard_01",
      "pbrMetallicRoughness" : {
        "baseColorFactor" : [ 0.3, 0.3, 0.3, 1.0 ],
        "metallicFactor" : 0.1,
        "roughnessFactor" : 0.5
      }
    }
  ],
  "meshes" : [
    {
      "primitives" : [
        {
          "attributes" : {
            "POSITION" : 1,
            "NORMAL" : 2,
            "TANGENT" : 3,
            "TEXCOORD_0" : 4,
            "TEXCOORD_1" : 5
          },
          "indices" : 0,
          "material" : 0
        }
      ],
      "name" : "ControlRoom_Keyboard_01_Base"
    }
  ],
  "buffers" : [
    {
      "uri" : "ControlRoom_Keyboard_01_Base.bin",
      "byteLength" : 101908
    }
  ],
  "bufferViews" : [
    {
      "buffer" : 0,
      "byteOffset" : 0,
      "byteLength" : 12084
    },
    {
      "buffer" : 0,
      "byteOffset" : 12084,
      "byteLength" : 19248
    },
    {
      "buffer" : 0,
      "byteOffset" : 31332,
      "byteLength" : 19248
    },
    {
      "buffer" : 0,
      "byteOffset" : 50580,
      "byteLength" : 25664
    },
    {
      "buffer" : 0,
      "byteOffset" : 76244,
      "byteLength" : 12832
    },
    {
      "buffer" : 0,
      "byteOffset" : 89076,
      "byteLength" : 12832
    }
  ],
  "accessors" : [
    {
      "bufferView" : 0,
      "componentType" : 5123,
      "count" : 6042,
      "type" : "SCALAR"
    },
    {
      "bufferView" : 1,
      "min" : [ -1, -4.47035e-09, -2.03613 ],
      "max" : [ 1.03813, 0.55224, 2.03613 ],
      "componentType" : 5126,
      "count" : 1604,
      "type" : "VEC3"
    },
    {
      "bufferView" : 2,
      "componentType" : 5126,
      "count" : 1604,
      "type" : "VEC3"
    },
    {
      "bufferView" : 3,
      "componentType" : 5126,
      "count" : 1604,
      "type" : "VEC4"
    },
    {
      "bufferView" : 4,
      "componentType" : 5126,
      "count" : 1604,
      "type" : "VEC2"
    },
    {
      "bufferView" : 5,
      "componentType" : 5126,
      "count" : 1604,
      "type" : "VEC2"
    }
  ]
}
