{
  "asset" : {
    "generator" : "UE Viewer (umodel) build 1579 based",
    "version" : "2.0"
  },
  "scene" : 0,
  "scenes" : [
    {
      "nodes" : [ 0 ]
    }
  ],
  "nodes" : [
    {
      "name" : "ControlRoom_BabyMonitor_01",
      "mesh" : 0
    }
  ],
  "materials" : [
    {
      "name" : "ControlRoom_BabyMonitor_01",
      "pbrMetallicRoughness" : {
        "baseColorFactor" : [ 0.3, 0.3, 0.3, 1.0 ],
        "metallicFactor" : 0.1,
        "roughnessFactor" : 0.5
      }
    }
  ],
  "meshes" : [
    {
      "primitives" : [
        {
          "attributes" : {
            "POSITION" : 1,
            "NORMAL" : 2,
            "TANGENT" : 3,
            "TEXCOORD_0" : 4,
            "TEXCOORD_1" : 5,
            "TEXCOORD_2" : 6
          },
          "indices" : 0,
          "material" : 0
        }
      ],
      "name" : "ControlRoom_BabyMonitor_01"
    }
  ],
  "buffers" : [
    {
      "uri" : "ControlRoom_BabyMonitor_01.bin",
      "byteLength" : 77776
    }
  ],
  "bufferViews" : [
    {
      "buffer" : 0,
      "byteOffset" : 0,
      "byteLength" : 10128
    },
    {
      "buffer" : 0,
      "byteOffset" : 10128,
      "byteLength" : 12684
    },
    {
      "buffer" : 0,
      "byteOffset" : 22812,
      "byteLength" : 12684
    },
    {
      "buffer" : 0,
      "byteOffset" : 35496,
      "byteLength" : 16912
    },
    {
      "buffer" : 0,
      "byteOffset" : 52408,
      "byteLength" : 8456
    },
    {
      "buffer" : 0,
      "byteOffset" : 60864,
      "byteLength" : 8456
    },
    {
      "buffer" : 0,
      "byteOffset" : 69320,
      "byteLength" : 8456
    }
  ],
  "accessors" : [
    {
      "bufferView" : 0,
      "componentType" : 5123,
      "count" : 5064,
      "type" : "SCALAR"
    },
    {
      "bufferView" : 1,
      "min" : [ -0.504855, -1.71684e-17, -0.955337 ],
      "max" : [ 0.508742, 4.36207, 0.955347 ],
      "componentType" : 5126,
      "count" : 1057,
      "type" : "VEC3"
    },
    {
      "bufferView" : 2,
      "componentType" : 5126,
      "count" : 1057,
      "type" : "VEC3"
    },
    {
      "bufferView" : 3,
      "componentType" : 5126,
      "count" : 1057,
      "type" : "VEC4"
    },
    {
      "bufferView" : 4,
      "componentType" : 5126,
      "count" : 1057,
      "type" : "VEC2"
    },
    {
      "bufferView" : 5,
      "componentType" : 5126,
      "count" : 1057,
      "type" : "VEC2"
    },
    {
      "bufferView" : 6,
      "componentType" : 5126,
      "count" : 1057,
      "type" : "VEC2"
    }
  ]
}
