{
  "asset" : {
    "generator" : "UE Viewer (umodel) build 1579 based",
    "version" : "2.0"
  },
  "scene" : 0,
  "scenes" : [
    {
      "nodes" : [ 0 ]
    }
  ],
  "nodes" : [
    {
      "name" : "ControlRoomPuzzle_PipeCurve_01",
      "mesh" : 0
    }
  ],
  "materials" : [
    {
      "name" : "ControlRoomPuzzle_Pipe_01",
      "pbrMetallicRoughness" : {
        "baseColorFactor" : [ 0.3, 0.3, 0.3, 1.0 ],
        "metallicFactor" : 0.1,
        "roughnessFactor" : 0.5
      }
    }
  ],
  "meshes" : [
    {
      "primitives" : [
        {
          "attributes" : {
            "POSITION" : 1,
            "NORMAL" : 2,
            "TANGENT" : 3,
            "TEXCOORD_0" : 4,
            "TEXCOORD_1" : 5,
            "TEXCOORD_2" : 6
          },
          "indices" : 0,
          "material" : 0
        }
      ],
      "name" : "ControlRoomPuzzle_PipeCurve_01"
    }
  ],
  "buffers" : [
    {
      "uri" : "ControlRoomPuzzle_PipeCurve_01.bin",
      "byteLength" : 96064
    }
  ],
  "bufferViews" : [
    {
      "buffer" : 0,
      "byteOffset" : 0,
      "byteLength" : 10944
    },
    {
      "buffer" : 0,
      "byteOffset" : 10944,
      "byteLength" : 15960
    },
    {
      "buffer" : 0,
      "byteOffset" : 26904,
      "byteLength" : 15960
    },
    {
      "buffer" : 0,
      "byteOffset" : 42864,
      "byteLength" : 21280
    },
    {
      "buffer" : 0,
      "byteOffset" : 64144,
      "byteLength" : 10640
    },
    {
      "buffer" : 0,
      "byteOffset" : 74784,
      "byteLength" : 10640
    },
    {
      "buffer" : 0,
      "byteOffset" : 85424,
      "byteLength" : 10640
    }
  ],
  "accessors" : [
    {
      "bufferView" : 0,
      "componentType" : 5123,
      "count" : 5472,
      "type" : "SCALAR"
    },
    {
      "bufferView" : 1,
      "min" : [ 0.00300064, -0.524142, -0.524142 ],
      "max" : [ 3.01814, 0.524142, 2.59642 ],
      "componentType" : 5126,
      "count" : 1330,
      "type" : "VEC3"
    },
    {
      "bufferView" : 2,
      "componentType" : 5126,
      "count" : 1330,
      "type" : "VEC3"
    },
    {
      "bufferView" : 3,
      "componentType" : 5126,
      "count" : 1330,
      "type" : "VEC4"
    },
    {
      "bufferView" : 4,
      "componentType" : 5126,
      "count" : 1330,
      "type" : "VEC2"
    },
    {
      "bufferView" : 5,
      "componentType" : 5126,
      "count" : 1330,
      "type" : "VEC2"
    },
    {
      "bufferView" : 6,
      "componentType" : 5126,
      "count" : 1330,
      "type" : "VEC2"
    }
  ]
}
