{
  "asset" : {
    "generator" : "UE Viewer (umodel) build 1579 based",
    "version" : "2.0"
  },
  "scene" : 0,
  "scenes" : [
    {
      "nodes" : [ 0 ]
    }
  ],
  "nodes" : [
    {
      "name" : "ControlRoom_Button_Large_01_Base",
      "mesh" : 0
    }
  ],
  "materials" : [
    {
      "name" : "ControlRoom_Keyboard_01",
      "pbrMetallicRoughness" : {
        "baseColorFactor" : [ 0.3, 0.3, 0.3, 1.0 ],
        "metallicFactor" : 0.1,
        "roughnessFactor" : 0.5
      }
    }
  ],
  "meshes" : [
    {
      "primitives" : [
        {
          "attributes" : {
            "POSITION" : 1,
            "NORMAL" : 2,
            "TANGENT" : 3,
            "TEXCOORD_0" : 4,
            "TEXCOORD_1" : 5
          },
          "indices" : 0,
          "material" : 0
        }
      ],
      "name" : "ControlRoom_Button_Large_01_Base"
    }
  ],
  "buffers" : [
    {
      "uri" : "ControlRoom_Button_Large_01_Base.bin",
      "byteLength" : 47516
    }
  ],
  "bufferViews" : [
    {
      "buffer" : 0,
      "byteOffset" : 0,
      "byteLength" : 5796
    },
    {
      "buffer" : 0,
      "byteOffset" : 5796,
      "byteLength" : 8940
    },
    {
      "buffer" : 0,
      "byteOffset" : 14736,
      "byteLength" : 8940
    },
    {
      "buffer" : 0,
      "byteOffset" : 23676,
      "byteLength" : 11920
    },
    {
      "buffer" : 0,
      "byteOffset" : 35596,
      "byteLength" : 5960
    },
    {
      "buffer" : 0,
      "byteOffset" : 41556,
      "byteLength" : 5960
    }
  ],
  "accessors" : [
    {
      "bufferView" : 0,
      "componentType" : 5123,
      "count" : 2898,
      "type" : "SCALAR"
    },
    {
      "bufferView" : 1,
      "min" : [ -0.866, -0.01072, -0.614159 ],
      "max" : [ 0.614159, 0.477983, 0.614159 ],
      "componentType" : 5126,
      "count" : 745,
      "type" : "VEC3"
    },
    {
      "bufferView" : 2,
      "componentType" : 5126,
      "count" : 745,
      "type" : "VEC3"
    },
    {
      "bufferView" : 3,
      "componentType" : 5126,
      "count" : 745,
      "type" : "VEC4"
    },
    {
      "bufferView" : 4,
      "componentType" : 5126,
      "count" : 745,
      "type" : "VEC2"
    },
    {
      "bufferView" : 5,
      "componentType" : 5126,
      "count" : 745,
      "type" : "VEC2"
    }
  ]
}
