{
  "asset" : {
    "generator" : "UE Viewer (umodel) build 1579 based",
    "version" : "2.0"
  },
  "scene" : 0,
  "scenes" : [
    {
      "nodes" : [ 0 ]
    }
  ],
  "nodes" : [
    {
      "name" : "LaserButtonBase_01",
      "mesh" : 0
    }
  ],
  "materials" : [
    {
      "name" : "LaserStation_Floor_03",
      "pbrMetallicRoughness" : {
        "baseColorFactor" : [ 0.3, 0.3, 0.3, 1.0 ],
        "metallicFactor" : 0.1,
        "roughnessFactor" : 0.5
      }
    }
  ],
  "meshes" : [
    {
      "primitives" : [
        {
          "attributes" : {
            "POSITION" : 1,
            "NORMAL" : 2,
            "TANGENT" : 3,
            "TEXCOORD_0" : 4,
            "TEXCOORD_1" : 5
          },
          "indices" : 0,
          "material" : 0
        }
      ],
      "name" : "LaserButtonBase_01"
    }
  ],
  "buffers" : [
    {
      "uri" : "LaserButtonBase_01.bin",
      "byteLength" : 10640
    }
  ],
  "bufferViews" : [
    {
      "buffer" : 0,
      "byteOffset" : 0,
      "byteLength" : 1680
    },
    {
      "buffer" : 0,
      "byteOffset" : 1680,
      "byteLength" : 1920
    },
    {
      "buffer" : 0,
      "byteOffset" : 3600,
      "byteLength" : 1920
    },
    {
      "buffer" : 0,
      "byteOffset" : 5520,
      "byteLength" : 2560
    },
    {
      "buffer" : 0,
      "byteOffset" : 8080,
      "byteLength" : 1280
    },
    {
      "buffer" : 0,
      "byteOffset" : 9360,
      "byteLength" : 1280
    }
  ],
  "accessors" : [
    {
      "bufferView" : 0,
      "componentType" : 5123,
      "count" : 840,
      "type" : "SCALAR"
    },
    {
      "bufferView" : 1,
      "min" : [ -1.15101, -0.2, -1.15101 ],
      "max" : [ 1.15101, 0.0019375, 1.15101 ],
      "componentType" : 5126,
      "count" : 160,
      "type" : "VEC3"
    },
    {
      "bufferView" : 2,
      "componentType" : 5126,
      "count" : 160,
      "type" : "VEC3"
    },
    {
      "bufferView" : 3,
      "componentType" : 5126,
      "count" : 160,
      "type" : "VEC4"
    },
    {
      "bufferView" : 4,
      "componentType" : 5126,
      "count" : 160,
      "type" : "VEC2"
    },
    {
      "bufferView" : 5,
      "componentType" : 5126,
      "count" : 160,
      "type" : "VEC2"
    }
  ]
}
