{
  "asset" : {
    "generator" : "UE Viewer (umodel) build 1579 based",
    "version" : "2.0"
  },
  "scene" : 0,
  "scenes" : [
    {
      "nodes" : [ 0 ]
    }
  ],
  "nodes" : [
    {
      "name" : "LaserPowerCoord_01",
      "mesh" : 0
    }
  ],
  "materials" : [
    {
      "name" : "LaserActivation_01",
      "pbrMetallicRoughness" : {
        "baseColorFactor" : [ 0.3, 0.3, 0.3, 1.0 ],
        "metallicFactor" : 0.1,
        "roughnessFactor" : 0.5
      }
    },
    {
      "name" : "LaserActivation_01",
      "pbrMetallicRoughness" : {
        "baseColorFactor" : [ 0.9, 0.3, 0.3, 1.0 ],
        "metallicFactor" : 0.1,
        "roughnessFactor" : 0.5
      }
    }
  ],
  "meshes" : [
    {
      "primitives" : [
        {
          "attributes" : {
            "POSITION" : 1,
            "NORMAL" : 2,
            "TANGENT" : 3,
            "TEXCOORD_0" : 4,
            "TEXCOORD_1" : 5
          },
          "indices" : 0,
          "material" : 0
        },
        {
          "attributes" : {
            "POSITION" : 7,
            "NORMAL" : 8,
            "TANGENT" : 9,
            "TEXCOORD_0" : 10,
            "TEXCOORD_1" : 11
          },
          "indices" : 6,
          "material" : 1
        }
      ],
      "name" : "LaserPowerCoord_01"
    }
  ],
  "buffers" : [
    {
      "uri" : "LaserPowerCoord_01.bin",
      "byteLength" : 23388
    }
  ],
  "bufferViews" : [
    {
      "buffer" : 0,
      "byteOffset" : 0,
      "byteLength" : 3180
    },
    {
      "buffer" : 0,
      "byteOffset" : 3180,
      "byteLength" : 4128
    },
    {
      "buffer" : 0,
      "byteOffset" : 7308,
      "byteLength" : 4128
    },
    {
      "buffer" : 0,
      "byteOffset" : 11436,
      "byteLength" : 5504
    },
    {
      "buffer" : 0,
      "byteOffset" : 16940,
      "byteLength" : 2752
    },
    {
      "buffer" : 0,
      "byteOffset" : 19692,
      "byteLength" : 2752
    },
    {
      "buffer" : 0,
      "byteOffset" : 22444,
      "byteLength" : 48
    },
    {
      "buffer" : 0,
      "byteOffset" : 22492,
      "byteLength" : 192
    },
    {
      "buffer" : 0,
      "byteOffset" : 22684,
      "byteLength" : 192
    },
    {
      "buffer" : 0,
      "byteOffset" : 22876,
      "byteLength" : 256
    },
    {
      "buffer" : 0,
      "byteOffset" : 23132,
      "byteLength" : 128
    },
    {
      "buffer" : 0,
      "byteOffset" : 23260,
      "byteLength" : 128
    }
  ],
  "accessors" : [
    {
      "bufferView" : 0,
      "componentType" : 5123,
      "count" : 1590,
      "type" : "SCALAR"
    },
    {
      "bufferView" : 1,
      "min" : [ -0.360415, -0.438299, -2.52 ],
      "max" : [ 0.360415, 0.4383, 2.64 ],
      "componentType" : 5126,
      "count" : 344,
      "type" : "VEC3"
    },
    {
      "bufferView" : 2,
      "componentType" : 5126,
      "count" : 344,
      "type" : "VEC3"
    },
    {
      "bufferView" : 3,
      "componentType" : 5126,
      "count" : 344,
      "type" : "VEC4"
    },
    {
      "bufferView" : 4,
      "componentType" : 5126,
      "count" : 344,
      "type" : "VEC2"
    },
    {
      "bufferView" : 5,
      "componentType" : 5126,
      "count" : 344,
      "type" : "VEC2"
    },
    {
      "bufferView" : 6,
      "componentType" : 5123,
      "count" : 24,
      "type" : "SCALAR"
    },
    {
      "bufferView" : 7,
      "min" : [ -0.246557, -0.324483, -1.06674 ],
      "max" : [ 0.246557, 0.324483, 1.86674 ],
      "componentType" : 5126,
      "count" : 16,
      "type" : "VEC3"
    },
    {
      "bufferView" : 8,
      "componentType" : 5126,
      "count" : 16,
      "type" : "VEC3"
    },
    {
      "bufferView" : 9,
      "componentType" : 5126,
      "count" : 16,
      "type" : "VEC4"
    },
    {
      "bufferView" : 10,
      "componentType" : 5126,
      "count" : 16,
      "type" : "VEC2"
    },
    {
      "bufferView" : 11,
      "componentType" : 5126,
      "count" : 16,
      "type" : "VEC2"
    }
  ]
}
