{
  "asset" : {
    "generator" : "UE Viewer (umodel) build 1579 based",
    "version" : "2.0"
  },
  "scene" : 0,
  "scenes" : [
    {
      "nodes" : [ 0 ]
    }
  ],
  "nodes" : [
    {
      "name" : "LaserButtonLarge_01",
      "mesh" : 0
    }
  ],
  "materials" : [
    {
      "name" : "LaserButtonLarge_01",
      "pbrMetallicRoughness" : {
        "baseColorFactor" : [ 0.3, 0.3, 0.3, 1.0 ],
        "metallicFactor" : 0.1,
        "roughnessFactor" : 0.5
      }
    }
  ],
  "meshes" : [
    {
      "primitives" : [
        {
          "attributes" : {
            "POSITION" : 1,
            "NORMAL" : 2,
            "TANGENT" : 3,
            "TEXCOORD_0" : 4,
            "TEXCOORD_1" : 5
          },
          "indices" : 0,
          "material" : 0
        }
      ],
      "name" : "LaserButtonLarge_01"
    }
  ],
  "buffers" : [
    {
      "uri" : "LaserButtonLarge_01.bin",
      "byteLength" : 21432
    }
  ],
  "bufferViews" : [
    {
      "buffer" : 0,
      "byteOffset" : 0,
      "byteLength" : 3120
    },
    {
      "buffer" : 0,
      "byteOffset" : 3120,
      "byteLength" : 3924
    },
    {
      "buffer" : 0,
      "byteOffset" : 7044,
      "byteLength" : 3924
    },
    {
      "buffer" : 0,
      "byteOffset" : 10968,
      "byteLength" : 5232
    },
    {
      "buffer" : 0,
      "byteOffset" : 16200,
      "byteLength" : 2616
    },
    {
      "buffer" : 0,
      "byteOffset" : 18816,
      "byteLength" : 2616
    }
  ],
  "accessors" : [
    {
      "bufferView" : 0,
      "componentType" : 5123,
      "count" : 1560,
      "type" : "SCALAR"
    },
    {
      "bufferView" : 1,
      "min" : [ -1.37947, -0.00518527, -1.37947 ],
      "max" : [ 1.37947, 0.745, 1.37947 ],
      "componentType" : 5126,
      "count" : 327,
      "type" : "VEC3"
    },
    {
      "bufferView" : 2,
      "componentType" : 5126,
      "count" : 327,
      "type" : "VEC3"
    },
    {
      "bufferView" : 3,
      "componentType" : 5126,
      "count" : 327,
      "type" : "VEC4"
    },
    {
      "bufferView" : 4,
      "componentType" : 5126,
      "count" : 327,
      "type" : "VEC2"
    },
    {
      "bufferView" : 5,
      "componentType" : 5126,
      "count" : 327,
      "type" : "VEC2"
    }
  ]
}
