{
  "asset" : {
    "generator" : "UE Viewer (umodel) build 1579 based",
    "version" : "2.0"
  },
  "scene" : 0,
  "scenes" : [
    {
      "nodes" : [ 0 ]
    }
  ],
  "nodes" : [
    {
      "name" : "LaserActivation_01",
      "mesh" : 0
    }
  ],
  "materials" : [
    {
      "name" : "LaserActivation_01",
      "pbrMetallicRoughness" : {
        "baseColorFactor" : [ 0.3, 0.3, 0.3, 1.0 ],
        "metallicFactor" : 0.1,
        "roughnessFactor" : 0.5
      }
    },
    {
      "name" : "Swatch_EmissiveRedBlob",
      "pbrMetallicRoughness" : {
        "baseColorFactor" : [ 0.9, 0.3, 0.3, 1.0 ],
        "metallicFactor" : 0.1,
        "roughnessFactor" : 0.5
      }
    }
  ],
  "meshes" : [
    {
      "primitives" : [
        {
          "attributes" : {
            "POSITION" : 1,
            "NORMAL" : 2,
            "TANGENT" : 3,
            "TEXCOORD_0" : 4,
            "TEXCOORD_1" : 5
          },
          "indices" : 0,
          "material" : 0
        },
        {
          "attributes" : {
            "POSITION" : 7,
            "NORMAL" : 8,
            "TANGENT" : 9,
            "TEXCOORD_0" : 10,
            "TEXCOORD_1" : 11
          },
          "indices" : 6,
          "material" : 1
        }
      ],
      "name" : "LaserActivation_01"
    }
  ],
  "buffers" : [
    {
      "uri" : "LaserActivation_01.bin",
      "byteLength" : 26768
    }
  ],
  "bufferViews" : [
    {
      "buffer" : 0,
      "byteOffset" : 0,
      "byteLength" : 3120
    },
    {
      "buffer" : 0,
      "byteOffset" : 3120,
      "byteLength" : 4488
    },
    {
      "buffer" : 0,
      "byteOffset" : 7608,
      "byteLength" : 4488
    },
    {
      "buffer" : 0,
      "byteOffset" : 12096,
      "byteLength" : 5984
    },
    {
      "buffer" : 0,
      "byteOffset" : 18080,
      "byteLength" : 2992
    },
    {
      "buffer" : 0,
      "byteOffset" : 21072,
      "byteLength" : 2992
    },
    {
      "buffer" : 0,
      "byteOffset" : 24064,
      "byteLength" : 240
    },
    {
      "buffer" : 0,
      "byteOffset" : 24304,
      "byteLength" : 528
    },
    {
      "buffer" : 0,
      "byteOffset" : 24832,
      "byteLength" : 528
    },
    {
      "buffer" : 0,
      "byteOffset" : 25360,
      "byteLength" : 704
    },
    {
      "buffer" : 0,
      "byteOffset" : 26064,
      "byteLength" : 352
    },
    {
      "buffer" : 0,
      "byteOffset" : 26416,
      "byteLength" : 352
    }
  ],
  "accessors" : [
    {
      "bufferView" : 0,
      "componentType" : 5123,
      "count" : 1560,
      "type" : "SCALAR"
    },
    {
      "bufferView" : 1,
      "min" : [ -0.645, -0.89, -2.62676 ],
      "max" : [ 0.645, 0.86, 2.62676 ],
      "componentType" : 5126,
      "count" : 374,
      "type" : "VEC3"
    },
    {
      "bufferView" : 2,
      "componentType" : 5126,
      "count" : 374,
      "type" : "VEC3"
    },
    {
      "bufferView" : 3,
      "componentType" : 5126,
      "count" : 374,
      "type" : "VEC4"
    },
    {
      "bufferView" : 4,
      "componentType" : 5126,
      "count" : 374,
      "type" : "VEC2"
    },
    {
      "bufferView" : 5,
      "componentType" : 5126,
      "count" : 374,
      "type" : "VEC2"
    },
    {
      "bufferView" : 6,
      "componentType" : 5123,
      "count" : 120,
      "type" : "SCALAR"
    },
    {
      "bufferView" : 7,
      "min" : [ -0.570852, -0.2728, -0.660286 ],
      "max" : [ 0.570852, 0.3128, 0.660286 ],
      "componentType" : 5126,
      "count" : 44,
      "type" : "VEC3"
    },
    {
      "bufferView" : 8,
      "componentType" : 5126,
      "count" : 44,
      "type" : "VEC3"
    },
    {
      "bufferView" : 9,
      "componentType" : 5126,
      "count" : 44,
      "type" : "VEC4"
    },
    {
      "bufferView" : 10,
      "componentType" : 5126,
      "count" : 44,
      "type" : "VEC2"
    },
    {
      "bufferView" : 11,
      "componentType" : 5126,
      "count" : 44,
      "type" : "VEC2"
    }
  ]
}
