{
  "asset" : {
    "generator" : "UE Viewer (umodel) build 1579 based",
    "version" : "2.0"
  },
  "scene" : 0,
  "scenes" : [
    {
      "nodes" : [ 0 ]
    }
  ],
  "nodes" : [
    {
      "name" : "MoonBaboon_MainLaser_01",
      "mesh" : 0
    }
  ],
  "materials" : [
    {
      "name" : "MoonBaboon_MainLaser_01",
      "pbrMetallicRoughness" : {
        "baseColorFactor" : [ 0.3, 0.3, 0.3, 1.0 ],
        "metallicFactor" : 0.1,
        "roughnessFactor" : 0.5
      }
    }
  ],
  "meshes" : [
    {
      "primitives" : [
        {
          "attributes" : {
            "POSITION" : 1,
            "NORMAL" : 2,
            "TANGENT" : 3,
            "COLOR_0" : 4,
            "TEXCOORD_0" : 5,
            "TEXCOORD_1" : 6
          },
          "indices" : 0,
          "material" : 0
        }
      ],
      "name" : "MoonBaboon_MainLaser_01"
    }
  ],
  "buffers" : [
    {
      "uri" : "MoonBaboon_MainLaser_01.bin",
      "byteLength" : 106488
    }
  ],
  "bufferViews" : [
    {
      "buffer" : 0,
      "byteOffset" : 0,
      "byteLength" : 9648
    },
    {
      "buffer" : 0,
      "byteOffset" : 9648,
      "byteLength" : 19368
    },
    {
      "buffer" : 0,
      "byteOffset" : 29016,
      "byteLength" : 19368
    },
    {
      "buffer" : 0,
      "byteOffset" : 48384,
      "byteLength" : 25824
    },
    {
      "buffer" : 0,
      "byteOffset" : 74208,
      "byteLength" : 6456
    },
    {
      "buffer" : 0,
      "byteOffset" : 80664,
      "byteLength" : 12912
    },
    {
      "buffer" : 0,
      "byteOffset" : 93576,
      "byteLength" : 12912
    }
  ],
  "accessors" : [
    {
      "bufferView" : 0,
      "componentType" : 5123,
      "count" : 4824,
      "type" : "SCALAR"
    },
    {
      "bufferView" : 1,
      "min" : [ -1.6884, -3.575, -1.6884 ],
      "max" : [ 1.6884, 3.18531, 1.6884 ],
      "componentType" : 5126,
      "count" : 1614,
      "type" : "VEC3"
    },
    {
      "bufferView" : 2,
      "componentType" : 5126,
      "count" : 1614,
      "type" : "VEC3"
    },
    {
      "bufferView" : 3,
      "componentType" : 5126,
      "count" : 1614,
      "type" : "VEC4"
    },
    {
      "bufferView" : 4,
      "normalized" : true,
      "componentType" : 5121,
      "count" : 1614,
      "type" : "VEC4"
    },
    {
      "bufferView" : 5,
      "componentType" : 5126,
      "count" : 1614,
      "type" : "VEC2"
    },
    {
      "bufferView" : 6,
      "componentType" : 5126,
      "count" : 1614,
      "type" : "VEC2"
    }
  ]
}
