{
  "asset" : {
    "generator" : "UE Viewer (umodel) build 1579 based",
    "version" : "2.0"
  },
  "scene" : 0,
  "scenes" : [
    {
      "nodes" : [ 0 ]
    }
  ],
  "nodes" : [
    {
      "name" : "MoonBaboon_CorePillar_01",
      "mesh" : 0
    }
  ],
  "materials" : [
    {
      "name" : "MoonBaboon_CorePillar_01",
      "pbrMetallicRoughness" : {
        "baseColorFactor" : [ 0.3, 0.3, 0.3, 1.0 ],
        "metallicFactor" : 0.1,
        "roughnessFactor" : 0.5
      }
    }
  ],
  "meshes" : [
    {
      "primitives" : [
        {
          "attributes" : {
            "POSITION" : 1,
            "NORMAL" : 2,
            "TANGENT" : 3,
            "COLOR_0" : 4,
            "TEXCOORD_0" : 5,
            "TEXCOORD_1" : 6
          },
          "indices" : 0,
          "material" : 0
        }
      ],
      "name" : "MoonBaboon_CorePillar_01"
    }
  ],
  "buffers" : [
    {
      "uri" : "MoonBaboon_CorePillar_01.bin",
      "byteLength" : 150420
    }
  ],
  "bufferViews" : [
    {
      "buffer" : 0,
      "byteOffset" : 0,
      "byteLength" : 15120
    },
    {
      "buffer" : 0,
      "byteOffset" : 15120,
      "byteLength" : 27060
    },
    {
      "buffer" : 0,
      "byteOffset" : 42180,
      "byteLength" : 27060
    },
    {
      "buffer" : 0,
      "byteOffset" : 69240,
      "byteLength" : 36080
    },
    {
      "buffer" : 0,
      "byteOffset" : 105320,
      "byteLength" : 9020
    },
    {
      "buffer" : 0,
      "byteOffset" : 114340,
      "byteLength" : 18040
    },
    {
      "buffer" : 0,
      "byteOffset" : 132380,
      "byteLength" : 18040
    }
  ],
  "accessors" : [
    {
      "bufferView" : 0,
      "componentType" : 5123,
      "count" : 7560,
      "type" : "SCALAR"
    },
    {
      "bufferView" : 1,
      "min" : [ -1.36255, -17.4082, -1.36255 ],
      "max" : [ 1.36255, -0.110434, 1.36255 ],
      "componentType" : 5126,
      "count" : 2255,
      "type" : "VEC3"
    },
    {
      "bufferView" : 2,
      "componentType" : 5126,
      "count" : 2255,
      "type" : "VEC3"
    },
    {
      "bufferView" : 3,
      "componentType" : 5126,
      "count" : 2255,
      "type" : "VEC4"
    },
    {
      "bufferView" : 4,
      "normalized" : true,
      "componentType" : 5121,
      "count" : 2255,
      "type" : "VEC4"
    },
    {
      "bufferView" : 5,
      "componentType" : 5126,
      "count" : 2255,
      "type" : "VEC2"
    },
    {
      "bufferView" : 6,
      "componentType" : 5126,
      "count" : 2255,
      "type" : "VEC2"
    }
  ]
}
