{
  "asset" : {
    "generator" : "UE Viewer (umodel) build 1579 based",
    "version" : "2.0"
  },
  "scene" : 0,
  "scenes" : [
    {
      "nodes" : [ 0 ]
    }
  ],
  "nodes" : [
    {
      "name" : "MoonBaboon_CorePillar_Shield_01",
      "mesh" : 0
    }
  ],
  "materials" : [
    {
      "name" : "Swatch_Plastic_Shiny_04",
      "pbrMetallicRoughness" : {
        "baseColorFactor" : [ 0.3, 0.3, 0.3, 1.0 ],
        "metallicFactor" : 0.1,
        "roughnessFactor" : 0.5
      }
    }
  ],
  "meshes" : [
    {
      "primitives" : [
        {
          "attributes" : {
            "POSITION" : 1,
            "NORMAL" : 2,
            "TANGENT" : 3,
            "COLOR_0" : 4,
            "TEXCOORD_0" : 5,
            "TEXCOORD_1" : 6
          },
          "indices" : 0,
          "material" : 0
        }
      ],
      "name" : "MoonBaboon_CorePillar_Shield_01"
    }
  ],
  "buffers" : [
    {
      "uri" : "MoonBaboon_CorePillar_Shield_01.bin",
      "byteLength" : 22176
    }
  ],
  "bufferViews" : [
    {
      "buffer" : 0,
      "byteOffset" : 0,
      "byteLength" : 2256
    },
    {
      "buffer" : 0,
      "byteOffset" : 2256,
      "byteLength" : 3984
    },
    {
      "buffer" : 0,
      "byteOffset" : 6240,
      "byteLength" : 3984
    },
    {
      "buffer" : 0,
      "byteOffset" : 10224,
      "byteLength" : 5312
    },
    {
      "buffer" : 0,
      "byteOffset" : 15536,
      "byteLength" : 1328
    },
    {
      "buffer" : 0,
      "byteOffset" : 16864,
      "byteLength" : 2656
    },
    {
      "buffer" : 0,
      "byteOffset" : 19520,
      "byteLength" : 2656
    }
  ],
  "accessors" : [
    {
      "bufferView" : 0,
      "componentType" : 5123,
      "count" : 1128,
      "type" : "SCALAR"
    },
    {
      "bufferView" : 1,
      "min" : [ -0.299682, 0.0045657, -1.01627 ],
      "max" : [ 0.456145, 3.05957, 1.01627 ],
      "componentType" : 5126,
      "count" : 332,
      "type" : "VEC3"
    },
    {
      "bufferView" : 2,
      "componentType" : 5126,
      "count" : 332,
      "type" : "VEC3"
    },
    {
      "bufferView" : 3,
      "componentType" : 5126,
      "count" : 332,
      "type" : "VEC4"
    },
    {
      "bufferView" : 4,
      "normalized" : true,
      "componentType" : 5121,
      "count" : 332,
      "type" : "VEC4"
    },
    {
      "bufferView" : 5,
      "componentType" : 5126,
      "count" : 332,
      "type" : "VEC2"
    },
    {
      "bufferView" : 6,
      "componentType" : 5126,
      "count" : 332,
      "type" : "VEC2"
    }
  ]
}
