{
  "asset" : {
    "generator" : "UE Viewer (umodel) build 1579 based",
    "version" : "2.0"
  },
  "scene" : 0,
  "scenes" : [
    {
      "nodes" : [ 0 ]
    }
  ],
  "nodes" : [
    {
      "name" : "MoonBaboon_CorePillar_Button_01",
      "mesh" : 0
    }
  ],
  "materials" : [
    {
      "name" : "MoonBaboon_CorePillar_01",
      "pbrMetallicRoughness" : {
        "baseColorFactor" : [ 0.3, 0.3, 0.3, 1.0 ],
        "metallicFactor" : 0.1,
        "roughnessFactor" : 0.5
      }
    }
  ],
  "meshes" : [
    {
      "primitives" : [
        {
          "attributes" : {
            "POSITION" : 1,
            "NORMAL" : 2,
            "TANGENT" : 3,
            "TEXCOORD_0" : 4,
            "TEXCOORD_1" : 5
          },
          "indices" : 0,
          "material" : 0
        }
      ],
      "name" : "MoonBaboon_CorePillar_Button_01"
    }
  ],
  "buffers" : [
    {
      "uri" : "MoonBaboon_CorePillar_Button_01.bin",
      "byteLength" : 14960
    }
  ],
  "bufferViews" : [
    {
      "buffer" : 0,
      "byteOffset" : 0,
      "byteLength" : 2304
    },
    {
      "buffer" : 0,
      "byteOffset" : 2304,
      "byteLength" : 2712
    },
    {
      "buffer" : 0,
      "byteOffset" : 5016,
      "byteLength" : 2712
    },
    {
      "buffer" : 0,
      "byteOffset" : 7728,
      "byteLength" : 3616
    },
    {
      "buffer" : 0,
      "byteOffset" : 11344,
      "byteLength" : 1808
    },
    {
      "buffer" : 0,
      "byteOffset" : 13152,
      "byteLength" : 1808
    }
  ],
  "accessors" : [
    {
      "bufferView" : 0,
      "componentType" : 5123,
      "count" : 1152,
      "type" : "SCALAR"
    },
    {
      "bufferView" : 1,
      "min" : [ -1.10129, -6.74347e-17, -1.10129 ],
      "max" : [ 1.10129, 0.185, 1.10129 ],
      "componentType" : 5126,
      "count" : 226,
      "type" : "VEC3"
    },
    {
      "bufferView" : 2,
      "componentType" : 5126,
      "count" : 226,
      "type" : "VEC3"
    },
    {
      "bufferView" : 3,
      "componentType" : 5126,
      "count" : 226,
      "type" : "VEC4"
    },
    {
      "bufferView" : 4,
      "componentType" : 5126,
      "count" : 226,
      "type" : "VEC2"
    },
    {
      "bufferView" : 5,
      "componentType" : 5126,
      "count" : 226,
      "type" : "VEC2"
    }
  ]
}
