{
  "asset" : {
    "generator" : "UE Viewer (umodel) build 1579 based",
    "version" : "2.0"
  },
  "scene" : 0,
  "scenes" : [
    {
      "nodes" : [ 0 ]
    }
  ],
  "nodes" : [
    {
      "name" : "MoonBaboon_MovingFloor_01",
      "mesh" : 0
    }
  ],
  "materials" : [
    {
      "name" : "Moving_Floor_02",
      "pbrMetallicRoughness" : {
        "baseColorFactor" : [ 0.3, 0.3, 0.3, 1.0 ],
        "metallicFactor" : 0.1,
        "roughnessFactor" : 0.5
      }
    },
    {
      "name" : "Moving_Floor_01",
      "pbrMetallicRoughness" : {
        "baseColorFactor" : [ 0.9, 0.3, 0.3, 1.0 ],
        "metallicFactor" : 0.1,
        "roughnessFactor" : 0.5
      }
    },
    {
      "name" : "MovingFloor_Hatch_01",
      "pbrMetallicRoughness" : {
        "baseColorFactor" : [ 0.3, 0.9, 0.3, 1.0 ],
        "metallicFactor" : 0.1,
        "roughnessFactor" : 0.5
      }
    },
    {
      "name" : "Moving_Floor_Trim_01",
      "pbrMetallicRoughness" : {
        "baseColorFactor" : [ 0.3, 0.3, 0.9, 1.0 ],
        "metallicFactor" : 0.1,
        "roughnessFactor" : 0.5
      }
    }
  ],
  "meshes" : [
    {
      "primitives" : [
        {
          "attributes" : {
            "POSITION" : 1,
            "NORMAL" : 2,
            "TANGENT" : 3,
            "COLOR_0" : 4,
            "TEXCOORD_0" : 5,
            "TEXCOORD_1" : 6,
            "TEXCOORD_2" : 7
          },
          "indices" : 0,
          "material" : 0
        },
        {
          "attributes" : {
            "POSITION" : 9,
            "NORMAL" : 10,
            "TANGENT" : 11,
            "COLOR_0" : 12,
            "TEXCOORD_0" : 13,
            "TEXCOORD_1" : 14,
            "TEXCOORD_2" : 15
          },
          "indices" : 8,
          "material" : 1
        },
        {
          "attributes" : {
            "POSITION" : 17,
            "NORMAL" : 18,
            "TANGENT" : 19,
            "COLOR_0" : 20,
            "TEXCOORD_0" : 21,
            "TEXCOORD_1" : 22,
            "TEXCOORD_2" : 23
          },
          "indices" : 16,
          "material" : 2
        },
        {
          "attributes" : {
            "POSITION" : 25,
            "NORMAL" : 26,
            "TANGENT" : 27,
            "COLOR_0" : 28,
            "TEXCOORD_0" : 29,
            "TEXCOORD_1" : 30,
            "TEXCOORD_2" : 31
          },
          "indices" : 24,
          "material" : 3
        }
      ],
      "name" : "MoonBaboon_MovingFloor_01"
    }
  ],
  "buffers" : [
    {
      "uri" : "MoonBaboon_MovingFloor_01.bin",
      "byteLength" : 585216
    }
  ],
  "bufferViews" : [
    {
      "buffer" : 0,
      "byteOffset" : 0,
      "byteLength" : 672
    },
    {
      "buffer" : 0,
      "byteOffset" : 672,
      "byteLength" : 1968
    },
    {
      "buffer" : 0,
      "byteOffset" : 2640,
      "byteLength" : 1968
    },
    {
      "buffer" : 0,
      "byteOffset" : 4608,
      "byteLength" : 2624
    },
    {
      "buffer" : 0,
      "byteOffset" : 7232,
      "byteLength" : 656
    },
    {
      "buffer" : 0,
      "byteOffset" : 7888,
      "byteLength" : 1312
    },
    {
      "buffer" : 0,
      "byteOffset" : 9200,
      "byteLength" : 1312
    },
    {
      "buffer" : 0,
      "byteOffset" : 10512,
      "byteLength" : 1312
    },
    {
      "buffer" : 0,
      "byteOffset" : 11824,
      "byteLength" : 324
    },
    {
      "buffer" : 0,
      "byteOffset" : 12148,
      "byteLength" : 1056
    },
    {
      "buffer" : 0,
      "byteOffset" : 13204,
      "byteLength" : 1056
    },
    {
      "buffer" : 0,
      "byteOffset" : 14260,
      "byteLength" : 1408
    },
    {
      "buffer" : 0,
      "byteOffset" : 15668,
      "byteLength" : 352
    },
    {
      "buffer" : 0,
      "byteOffset" : 16020,
      "byteLength" : 704
    },
    {
      "buffer" : 0,
      "byteOffset" : 16724,
      "byteLength" : 704
    },
    {
      "buffer" : 0,
      "byteOffset" : 17428,
      "byteLength" : 704
    },
    {
      "buffer" : 0,
      "byteOffset" : 18132,
      "byteLength" : 6660
    },
    {
      "buffer" : 0,
      "byteOffset" : 24792,
      "byteLength" : 9864
    },
    {
      "buffer" : 0,
      "byteOffset" : 34656,
      "byteLength" : 9864
    },
    {
      "buffer" : 0,
      "byteOffset" : 44520,
      "byteLength" : 13152
    },
    {
      "buffer" : 0,
      "byteOffset" : 57672,
      "byteLength" : 3288
    },
    {
      "buffer" : 0,
      "byteOffset" : 60960,
      "byteLength" : 6576
    },
    {
      "buffer" : 0,
      "byteOffset" : 67536,
      "byteLength" : 6576
    },
    {
      "buffer" : 0,
      "byteOffset" : 74112,
      "byteLength" : 6576
    },
    {
      "buffer" : 0,
      "byteOffset" : 80688,
      "byteLength" : 31248
    },
    {
      "buffer" : 0,
      "byteOffset" : 111936,
      "byteLength" : 83520
    },
    {
      "buffer" : 0,
      "byteOffset" : 195456,
      "byteLength" : 83520
    },
    {
      "buffer" : 0,
      "byteOffset" : 278976,
      "byteLength" : 111360
    },
    {
      "buffer" : 0,
      "byteOffset" : 390336,
      "byteLength" : 27840
    },
    {
      "buffer" : 0,
      "byteOffset" : 418176,
      "byteLength" : 55680
    },
    {
      "buffer" : 0,
      "byteOffset" : 473856,
      "byteLength" : 55680
    },
    {
      "buffer" : 0,
      "byteOffset" : 529536,
      "byteLength" : 55680
    }
  ],
  "accessors" : [
    {
      "bufferView" : 0,
      "componentType" : 5123,
      "count" : 336,
      "type" : "SCALAR"
    },
    {
      "bufferView" : 1,
      "min" : [ -59.5379, -0.35, -59.5379 ],
      "max" : [ 59.5379, 0.37, 59.5379 ],
      "componentType" : 5126,
      "count" : 164,
      "type" : "VEC3"
    },
    {
      "bufferView" : 2,
      "componentType" : 5126,
      "count" : 164,
      "type" : "VEC3"
    },
    {
      "bufferView" : 3,
      "componentType" : 5126,
      "count" : 164,
      "type" : "VEC4"
    },
    {
      "bufferView" : 4,
      "normalized" : true,
      "componentType" : 5121,
      "count" : 164,
      "type" : "VEC4"
    },
    {
      "bufferView" : 5,
      "componentType" : 5126,
      "count" : 164,
      "type" : "VEC2"
    },
    {
      "bufferView" : 6,
      "componentType" : 5126,
      "count" : 164,
      "type" : "VEC2"
    },
    {
      "bufferView" : 7,
      "componentType" : 5126,
      "count" : 164,
      "type" : "VEC2"
    },
    {
      "bufferView" : 8,
      "componentType" : 5123,
      "count" : 162,
      "type" : "SCALAR"
    },
    {
      "bufferView" : 9,
      "min" : [ -52.6272, 0.33, -52.6272 ],
      "max" : [ 52.6272, 0.35, 52.6272 ],
      "componentType" : 5126,
      "count" : 88,
      "type" : "VEC3"
    },
    {
      "bufferView" : 10,
      "componentType" : 5126,
      "count" : 88,
      "type" : "VEC3"
    },
    {
      "bufferView" : 11,
      "componentType" : 5126,
      "count" : 88,
      "type" : "VEC4"
    },
    {
      "bufferView" : 12,
      "normalized" : true,
      "componentType" : 5121,
      "count" : 88,
      "type" : "VEC4"
    },
    {
      "bufferView" : 13,
      "componentType" : 5126,
      "count" : 88,
      "type" : "VEC2"
    },
    {
      "bufferView" : 14,
      "componentType" : 5126,
      "count" : 88,
      "type" : "VEC2"
    },
    {
      "bufferView" : 15,
      "componentType" : 5126,
      "count" : 88,
      "type" : "VEC2"
    },
    {
      "bufferView" : 16,
      "componentType" : 5123,
      "count" : 3330,
      "type" : "SCALAR"
    },
    {
      "bufferView" : 17,
      "min" : [ -40.4506, -0.5, -46.4743 ],
      "max" : [ 21.8155, 0.51, 40.4506 ],
      "componentType" : 5126,
      "count" : 822,
      "type" : "VEC3"
    },
    {
      "bufferView" : 18,
      "componentType" : 5126,
      "count" : 822,
      "type" : "VEC3"
    },
    {
      "bufferView" : 19,
      "componentType" : 5126,
      "count" : 822,
      "type" : "VEC4"
    },
    {
      "bufferView" : 20,
      "normalized" : true,
      "componentType" : 5121,
      "count" : 822,
      "type" : "VEC4"
    },
    {
      "bufferView" : 21,
      "componentType" : 5126,
      "count" : 822,
      "type" : "VEC2"
    },
    {
      "bufferView" : 22,
      "componentType" : 5126,
      "count" : 822,
      "type" : "VEC2"
    },
    {
      "bufferView" : 23,
      "componentType" : 5126,
      "count" : 822,
      "type" : "VEC2"
    },
    {
      "bufferView" : 24,
      "componentType" : 5123,
      "count" : 15624,
      "type" : "SCALAR"
    },
    {
      "bufferView" : 25,
      "min" : [ -59.9259, -0.6475, -59.9259 ],
      "max" : [ 59.9259, 0.590366, 59.9259 ],
      "componentType" : 5126,
      "count" : 6960,
      "type" : "VEC3"
    },
    {
      "bufferView" : 26,
      "componentType" : 5126,
      "count" : 6960,
      "type" : "VEC3"
    },
    {
      "bufferView" : 27,
      "componentType" : 5126,
      "count" : 6960,
      "type" : "VEC4"
    },
    {
      "bufferView" : 28,
      "normalized" : true,
      "componentType" : 5121,
      "count" : 6960,
      "type" : "VEC4"
    },
    {
      "bufferView" : 29,
      "componentType" : 5126,
      "count" : 6960,
      "type" : "VEC2"
    },
    {
      "bufferView" : 30,
      "componentType" : 5126,
      "count" : 6960,
      "type" : "VEC2"
    },
    {
      "bufferView" : 31,
      "componentType" : 5126,
      "count" : 6960,
      "type" : "VEC2"
    }
  ]
}
