{
  "asset" : {
    "generator" : "UE Viewer (umodel) build 1579 based",
    "version" : "2.0"
  },
  "scene" : 0,
  "scenes" : [
    {
      "nodes" : [ 0 ]
    }
  ],
  "nodes" : [
    {
      "name" : "MoonBaboon_MovingFloor_Gate_01",
      "mesh" : 0
    }
  ],
  "materials" : [
    {
      "name" : "Moving_Floor_01",
      "pbrMetallicRoughness" : {
        "baseColorFactor" : [ 0.3, 0.3, 0.3, 1.0 ],
        "metallicFactor" : 0.1,
        "roughnessFactor" : 0.5
      }
    },
    {
      "name" : "Space_PlasticShiny_Blue_Dark_01",
      "pbrMetallicRoughness" : {
        "baseColorFactor" : [ 0.9, 0.3, 0.3, 1.0 ],
        "metallicFactor" : 0.1,
        "roughnessFactor" : 0.5
      }
    }
  ],
  "meshes" : [
    {
      "primitives" : [
        {
          "attributes" : {
            "POSITION" : 1,
            "NORMAL" : 2,
            "TANGENT" : 3,
            "TEXCOORD_0" : 4,
            "TEXCOORD_1" : 5,
            "TEXCOORD_2" : 6
          },
          "indices" : 0,
          "material" : 0
        },
        {
          "attributes" : {
            "POSITION" : 8,
            "NORMAL" : 9,
            "TANGENT" : 10,
            "TEXCOORD_0" : 11,
            "TEXCOORD_1" : 12,
            "TEXCOORD_2" : 13
          },
          "indices" : 7,
          "material" : 1
        }
      ],
      "name" : "MoonBaboon_MovingFloor_Gate_01"
    }
  ],
  "buffers" : [
    {
      "uri" : "MoonBaboon_MovingFloor_Gate_01.bin",
      "byteLength" : 12016
    }
  ],
  "bufferViews" : [
    {
      "buffer" : 0,
      "byteOffset" : 0,
      "byteLength" : 24
    },
    {
      "buffer" : 0,
      "byteOffset" : 24,
      "byteLength" : 72
    },
    {
      "buffer" : 0,
      "byteOffset" : 96,
      "byteLength" : 72
    },
    {
      "buffer" : 0,
      "byteOffset" : 168,
      "byteLength" : 96
    },
    {
      "buffer" : 0,
      "byteOffset" : 264,
      "byteLength" : 48
    },
    {
      "buffer" : 0,
      "byteOffset" : 312,
      "byteLength" : 48
    },
    {
      "buffer" : 0,
      "byteOffset" : 360,
      "byteLength" : 48
    },
    {
      "buffer" : 0,
      "byteOffset" : 408,
      "byteLength" : 984
    },
    {
      "buffer" : 0,
      "byteOffset" : 1392,
      "byteLength" : 1992
    },
    {
      "buffer" : 0,
      "byteOffset" : 3384,
      "byteLength" : 1992
    },
    {
      "buffer" : 0,
      "byteOffset" : 5376,
      "byteLength" : 2656
    },
    {
      "buffer" : 0,
      "byteOffset" : 8032,
      "byteLength" : 1328
    },
    {
      "buffer" : 0,
      "byteOffset" : 9360,
      "byteLength" : 1328
    },
    {
      "buffer" : 0,
      "byteOffset" : 10688,
      "byteLength" : 1328
    }
  ],
  "accessors" : [
    {
      "bufferView" : 0,
      "componentType" : 5123,
      "count" : 12,
      "type" : "SCALAR"
    },
    {
      "bufferView" : 1,
      "min" : [ -22.5224, 0.144, -23.0559 ],
      "max" : [ 22.5224, 0.144, -1.288 ],
      "componentType" : 5126,
      "count" : 6,
      "type" : "VEC3"
    },
    {
      "bufferView" : 2,
      "componentType" : 5126,
      "count" : 6,
      "type" : "VEC3"
    },
    {
      "bufferView" : 3,
      "componentType" : 5126,
      "count" : 6,
      "type" : "VEC4"
    },
    {
      "bufferView" : 4,
      "componentType" : 5126,
      "count" : 6,
      "type" : "VEC2"
    },
    {
      "bufferView" : 5,
      "componentType" : 5126,
      "count" : 6,
      "type" : "VEC2"
    },
    {
      "bufferView" : 6,
      "componentType" : 5126,
      "count" : 6,
      "type" : "VEC2"
    },
    {
      "bufferView" : 7,
      "componentType" : 5123,
      "count" : 492,
      "type" : "SCALAR"
    },
    {
      "bufferView" : 8,
      "min" : [ -24.45, -0.264, -24.45 ],
      "max" : [ 24.45, 0.264, 1.49713e-15 ],
      "componentType" : 5126,
      "count" : 166,
      "type" : "VEC3"
    },
    {
      "bufferView" : 9,
      "componentType" : 5126,
      "count" : 166,
      "type" : "VEC3"
    },
    {
      "bufferView" : 10,
      "componentType" : 5126,
      "count" : 166,
      "type" : "VEC4"
    },
    {
      "bufferView" : 11,
      "componentType" : 5126,
      "count" : 166,
      "type" : "VEC2"
    },
    {
      "bufferView" : 12,
      "componentType" : 5126,
      "count" : 166,
      "type" : "VEC2"
    },
    {
      "bufferView" : 13,
      "componentType" : 5126,
      "count" : 166,
      "type" : "VEC2"
    }
  ]
}
