{
  "asset" : {
    "generator" : "UE Viewer (umodel) build 1579 based",
    "version" : "2.0"
  },
  "scene" : 0,
  "scenes" : [
    {
      "nodes" : [ 0 ]
    }
  ],
  "nodes" : [
    {
      "name" : "MoonBaboon_GlassWall_02",
      "mesh" : 0
    }
  ],
  "materials" : [
    {
      "name" : "SpaceGlass_03",
      "pbrMetallicRoughness" : {
        "baseColorFactor" : [ 0.3, 0.3, 0.3, 1.0 ],
        "metallicFactor" : 0.1,
        "roughnessFactor" : 0.5
      }
    },
    {
      "name" : "Space_Plastic_Shiny_Red_01",
      "pbrMetallicRoughness" : {
        "baseColorFactor" : [ 0.9, 0.3, 0.3, 1.0 ],
        "metallicFactor" : 0.1,
        "roughnessFactor" : 0.5
      }
    },
    {
      "name" : "MoonBaboon_GlassWall_01",
      "pbrMetallicRoughness" : {
        "baseColorFactor" : [ 0.3, 0.9, 0.3, 1.0 ],
        "metallicFactor" : 0.1,
        "roughnessFactor" : 0.5
      }
    }
  ],
  "meshes" : [
    {
      "primitives" : [
        {
          "attributes" : {
            "POSITION" : 1,
            "NORMAL" : 2,
            "TANGENT" : 3,
            "COLOR_0" : 4,
            "TEXCOORD_0" : 5,
            "TEXCOORD_1" : 6
          },
          "indices" : 0,
          "material" : 0
        },
        {
          "attributes" : {
            "POSITION" : 8,
            "NORMAL" : 9,
            "TANGENT" : 10,
            "COLOR_0" : 11,
            "TEXCOORD_0" : 12,
            "TEXCOORD_1" : 13
          },
          "indices" : 7,
          "material" : 1
        },
        {
          "attributes" : {
            "POSITION" : 15,
            "NORMAL" : 16,
            "TANGENT" : 17,
            "COLOR_0" : 18,
            "TEXCOORD_0" : 19,
            "TEXCOORD_1" : 20
          },
          "indices" : 14,
          "material" : 2
        }
      ],
      "name" : "MoonBaboon_GlassWall_02"
    }
  ],
  "buffers" : [
    {
      "uri" : "MoonBaboon_GlassWall_02.bin",
      "byteLength" : 1968552
    }
  ],
  "bufferViews" : [
    {
      "buffer" : 0,
      "byteOffset" : 0,
      "byteLength" : 348
    },
    {
      "buffer" : 0,
      "byteOffset" : 348,
      "byteLength" : 1104
    },
    {
      "buffer" : 0,
      "byteOffset" : 1452,
      "byteLength" : 1104
    },
    {
      "buffer" : 0,
      "byteOffset" : 2556,
      "byteLength" : 1472
    },
    {
      "buffer" : 0,
      "byteOffset" : 4028,
      "byteLength" : 368
    },
    {
      "buffer" : 0,
      "byteOffset" : 4396,
      "byteLength" : 736
    },
    {
      "buffer" : 0,
      "byteOffset" : 5132,
      "byteLength" : 736
    },
    {
      "buffer" : 0,
      "byteOffset" : 5868,
      "byteLength" : 504
    },
    {
      "buffer" : 0,
      "byteOffset" : 6372,
      "byteLength" : 1536
    },
    {
      "buffer" : 0,
      "byteOffset" : 7908,
      "byteLength" : 1536
    },
    {
      "buffer" : 0,
      "byteOffset" : 9444,
      "byteLength" : 2048
    },
    {
      "buffer" : 0,
      "byteOffset" : 11492,
      "byteLength" : 512
    },
    {
      "buffer" : 0,
      "byteOffset" : 12004,
      "byteLength" : 1024
    },
    {
      "buffer" : 0,
      "byteOffset" : 13028,
      "byteLength" : 1024
    },
    {
      "buffer" : 0,
      "byteOffset" : 14052,
      "byteLength" : 177600
    },
    {
      "buffer" : 0,
      "byteOffset" : 191652,
      "byteLength" : 355380
    },
    {
      "buffer" : 0,
      "byteOffset" : 547032,
      "byteLength" : 355380
    },
    {
      "buffer" : 0,
      "byteOffset" : 902412,
      "byteLength" : 473840
    },
    {
      "buffer" : 0,
      "byteOffset" : 1376252,
      "byteLength" : 118460
    },
    {
      "buffer" : 0,
      "byteOffset" : 1494712,
      "byteLength" : 236920
    },
    {
      "buffer" : 0,
      "byteOffset" : 1731632,
      "byteLength" : 236920
    }
  ],
  "accessors" : [
    {
      "bufferView" : 0,
      "componentType" : 5123,
      "count" : 174,
      "type" : "SCALAR"
    },
    {
      "bufferView" : 1,
      "min" : [ -64.8372, 0.952206, -64.8372 ],
      "max" : [ 64.8372, 50, 64.8372 ],
      "componentType" : 5126,
      "count" : 92,
      "type" : "VEC3"
    },
    {
      "bufferView" : 2,
      "componentType" : 5126,
      "count" : 92,
      "type" : "VEC3"
    },
    {
      "bufferView" : 3,
      "componentType" : 5126,
      "count" : 92,
      "type" : "VEC4"
    },
    {
      "bufferView" : 4,
      "normalized" : true,
      "componentType" : 5121,
      "count" : 92,
      "type" : "VEC4"
    },
    {
      "bufferView" : 5,
      "componentType" : 5126,
      "count" : 92,
      "type" : "VEC2"
    },
    {
      "bufferView" : 6,
      "componentType" : 5126,
      "count" : 92,
      "type" : "VEC2"
    },
    {
      "bufferView" : 7,
      "componentType" : 5123,
      "count" : 252,
      "type" : "SCALAR"
    },
    {
      "bufferView" : 8,
      "min" : [ 10.3175, 0.952207, -57.2612 ],
      "max" : [ 32.7446, 50, -46.6389 ],
      "componentType" : 5126,
      "count" : 128,
      "type" : "VEC3"
    },
    {
      "bufferView" : 9,
      "componentType" : 5126,
      "count" : 128,
      "type" : "VEC3"
    },
    {
      "bufferView" : 10,
      "componentType" : 5126,
      "count" : 128,
      "type" : "VEC4"
    },
    {
      "bufferView" : 11,
      "normalized" : true,
      "componentType" : 5121,
      "count" : 128,
      "type" : "VEC4"
    },
    {
      "bufferView" : 12,
      "componentType" : 5126,
      "count" : 128,
      "type" : "VEC2"
    },
    {
      "bufferView" : 13,
      "componentType" : 5126,
      "count" : 128,
      "type" : "VEC2"
    },
    {
      "bufferView" : 14,
      "componentType" : 5123,
      "count" : 88800,
      "type" : "SCALAR"
    },
    {
      "bufferView" : 15,
      "min" : [ -65.412, 0.0522073, -65.412 ],
      "max" : [ 65.412, 50, 65.412 ],
      "componentType" : 5126,
      "count" : 29615,
      "type" : "VEC3"
    },
    {
      "bufferView" : 16,
      "componentType" : 5126,
      "count" : 29615,
      "type" : "VEC3"
    },
    {
      "bufferView" : 17,
      "componentType" : 5126,
      "count" : 29615,
      "type" : "VEC4"
    },
    {
      "bufferView" : 18,
      "normalized" : true,
      "componentType" : 5121,
      "count" : 29615,
      "type" : "VEC4"
    },
    {
      "bufferView" : 19,
      "componentType" : 5126,
      "count" : 29615,
      "type" : "VEC2"
    },
    {
      "bufferView" : 20,
      "componentType" : 5126,
      "count" : 29615,
      "type" : "VEC2"
    }
  ]
}
