{
  "asset" : {
    "generator" : "UE Viewer (umodel) build 1579 based",
    "version" : "2.0"
  },
  "scene" : 0,
  "scenes" : [
    {
      "nodes" : [ 0 ]
    }
  ],
  "nodes" : [
    {
      "name" : "MoonBaboon_GlassWall_01",
      "mesh" : 0
    }
  ],
  "materials" : [
    {
      "name" : "SpaceGlass_03",
      "pbrMetallicRoughness" : {
        "baseColorFactor" : [ 0.3, 0.3, 0.3, 1.0 ],
        "metallicFactor" : 0.1,
        "roughnessFactor" : 0.5
      }
    },
    {
      "name" : "MoonBaboon_GlassWall_01",
      "pbrMetallicRoughness" : {
        "baseColorFactor" : [ 0.9, 0.3, 0.3, 1.0 ],
        "metallicFactor" : 0.1,
        "roughnessFactor" : 0.5
      }
    }
  ],
  "meshes" : [
    {
      "primitives" : [
        {
          "attributes" : {
            "POSITION" : 1,
            "NORMAL" : 2,
            "TANGENT" : 3,
            "COLOR_0" : 4,
            "TEXCOORD_0" : 5,
            "TEXCOORD_1" : 6
          },
          "indices" : 0,
          "material" : 0
        },
        {
          "attributes" : {
            "POSITION" : 8,
            "NORMAL" : 9,
            "TANGENT" : 10,
            "COLOR_0" : 11,
            "TEXCOORD_0" : 12,
            "TEXCOORD_1" : 13
          },
          "indices" : 7,
          "material" : 1
        }
      ],
      "name" : "MoonBaboon_GlassWall_01"
    }
  ],
  "buffers" : [
    {
      "uri" : "MoonBaboon_GlassWall_01.bin",
      "byteLength" : 1958532
    }
  ],
  "bufferViews" : [
    {
      "buffer" : 0,
      "byteOffset" : 0,
      "byteLength" : 192
    },
    {
      "buffer" : 0,
      "byteOffset" : 192,
      "byteLength" : 768
    },
    {
      "buffer" : 0,
      "byteOffset" : 960,
      "byteLength" : 768
    },
    {
      "buffer" : 0,
      "byteOffset" : 1728,
      "byteLength" : 1024
    },
    {
      "buffer" : 0,
      "byteOffset" : 2752,
      "byteLength" : 256
    },
    {
      "buffer" : 0,
      "byteOffset" : 3008,
      "byteLength" : 512
    },
    {
      "buffer" : 0,
      "byteOffset" : 3520,
      "byteLength" : 512
    },
    {
      "buffer" : 0,
      "byteOffset" : 4032,
      "byteLength" : 177600
    },
    {
      "buffer" : 0,
      "byteOffset" : 181632,
      "byteLength" : 355380
    },
    {
      "buffer" : 0,
      "byteOffset" : 537012,
      "byteLength" : 355380
    },
    {
      "buffer" : 0,
      "byteOffset" : 892392,
      "byteLength" : 473840
    },
    {
      "buffer" : 0,
      "byteOffset" : 1366232,
      "byteLength" : 118460
    },
    {
      "buffer" : 0,
      "byteOffset" : 1484692,
      "byteLength" : 236920
    },
    {
      "buffer" : 0,
      "byteOffset" : 1721612,
      "byteLength" : 236920
    }
  ],
  "accessors" : [
    {
      "bufferView" : 0,
      "componentType" : 5123,
      "count" : 96,
      "type" : "SCALAR"
    },
    {
      "bufferView" : 1,
      "min" : [ -64.8372, 0.952207, -64.8372 ],
      "max" : [ 64.8372, 50, 64.8372 ],
      "componentType" : 5126,
      "count" : 64,
      "type" : "VEC3"
    },
    {
      "bufferView" : 2,
      "componentType" : 5126,
      "count" : 64,
      "type" : "VEC3"
    },
    {
      "bufferView" : 3,
      "componentType" : 5126,
      "count" : 64,
      "type" : "VEC4"
    },
    {
      "bufferView" : 4,
      "normalized" : true,
      "componentType" : 5121,
      "count" : 64,
      "type" : "VEC4"
    },
    {
      "bufferView" : 5,
      "componentType" : 5126,
      "count" : 64,
      "type" : "VEC2"
    },
    {
      "bufferView" : 6,
      "componentType" : 5126,
      "count" : 64,
      "type" : "VEC2"
    },
    {
      "bufferView" : 7,
      "componentType" : 5123,
      "count" : 88800,
      "type" : "SCALAR"
    },
    {
      "bufferView" : 8,
      "min" : [ -65.412, 0.0522073, -65.412 ],
      "max" : [ 65.412, 50, 65.412 ],
      "componentType" : 5126,
      "count" : 29615,
      "type" : "VEC3"
    },
    {
      "bufferView" : 9,
      "componentType" : 5126,
      "count" : 29615,
      "type" : "VEC3"
    },
    {
      "bufferView" : 10,
      "componentType" : 5126,
      "count" : 29615,
      "type" : "VEC4"
    },
    {
      "bufferView" : 11,
      "normalized" : true,
      "componentType" : 5121,
      "count" : 29615,
      "type" : "VEC4"
    },
    {
      "bufferView" : 12,
      "componentType" : 5126,
      "count" : 29615,
      "type" : "VEC2"
    },
    {
      "bufferView" : 13,
      "componentType" : 5126,
      "count" : 29615,
      "type" : "VEC2"
    }
  ]
}
