{
  "asset" : {
    "generator" : "UE Viewer (umodel) build 1579 based",
    "version" : "2.0"
  },
  "scene" : 0,
  "scenes" : [
    {
      "nodes" : [ 0 ]
    }
  ],
  "nodes" : [
    {
      "name" : "MoonBaboon_ShutterDoor_01",
      "mesh" : 0
    }
  ],
  "materials" : [
    {
      "name" : "MoonBaboon_ShutterDoor_01",
      "pbrMetallicRoughness" : {
        "baseColorFactor" : [ 0.3, 0.3, 0.3, 1.0 ],
        "metallicFactor" : 0.1,
        "roughnessFactor" : 0.5
      }
    }
  ],
  "meshes" : [
    {
      "primitives" : [
        {
          "attributes" : {
            "POSITION" : 1,
            "NORMAL" : 2,
            "TANGENT" : 3,
            "COLOR_0" : 4,
            "TEXCOORD_0" : 5,
            "TEXCOORD_1" : 6
          },
          "indices" : 0,
          "material" : 0
        }
      ],
      "name" : "MoonBaboon_ShutterDoor_01"
    }
  ],
  "buffers" : [
    {
      "uri" : "MoonBaboon_ShutterDoor_01.bin",
      "byteLength" : 18720
    }
  ],
  "bufferViews" : [
    {
      "buffer" : 0,
      "byteOffset" : 0,
      "byteLength" : 2520
    },
    {
      "buffer" : 0,
      "byteOffset" : 2520,
      "byteLength" : 3240
    },
    {
      "buffer" : 0,
      "byteOffset" : 5760,
      "byteLength" : 3240
    },
    {
      "buffer" : 0,
      "byteOffset" : 9000,
      "byteLength" : 4320
    },
    {
      "buffer" : 0,
      "byteOffset" : 13320,
      "byteLength" : 1080
    },
    {
      "buffer" : 0,
      "byteOffset" : 14400,
      "byteLength" : 2160
    },
    {
      "buffer" : 0,
      "byteOffset" : 16560,
      "byteLength" : 2160
    }
  ],
  "accessors" : [
    {
      "bufferView" : 0,
      "componentType" : 5123,
      "count" : 1260,
      "type" : "SCALAR"
    },
    {
      "bufferView" : 1,
      "min" : [ -1.5675, -0.2095, -9.59817e-17 ],
      "max" : [ 0.129942, 0.2095, 1.5675 ],
      "componentType" : 5126,
      "count" : 270,
      "type" : "VEC3"
    },
    {
      "bufferView" : 2,
      "componentType" : 5126,
      "count" : 270,
      "type" : "VEC3"
    },
    {
      "bufferView" : 3,
      "componentType" : 5126,
      "count" : 270,
      "type" : "VEC4"
    },
    {
      "bufferView" : 4,
      "normalized" : true,
      "componentType" : 5121,
      "count" : 270,
      "type" : "VEC4"
    },
    {
      "bufferView" : 5,
      "componentType" : 5126,
      "count" : 270,
      "type" : "VEC2"
    },
    {
      "bufferView" : 6,
      "componentType" : 5126,
      "count" : 270,
      "type" : "VEC2"
    }
  ]
}
