{
  "asset" : {
    "generator" : "UE Viewer (umodel) build 1579 based",
    "version" : "2.0"
  },
  "scene" : 0,
  "scenes" : [
    {
      "nodes" : [ 0 ]
    }
  ],
  "nodes" : [
    {
      "name" : "PlatformToy_01",
      "mesh" : 0
    }
  ],
  "materials" : [
    {
      "name" : "PlatformToy_01",
      "pbrMetallicRoughness" : {
        "baseColorFactor" : [ 0.3, 0.3, 0.3, 1.0 ],
        "metallicFactor" : 0.1,
        "roughnessFactor" : 0.5
      }
    },
    {
      "name" : "LaserStation_Floor_01",
      "pbrMetallicRoughness" : {
        "baseColorFactor" : [ 0.9, 0.3, 0.3, 1.0 ],
        "metallicFactor" : 0.1,
        "roughnessFactor" : 0.5
      }
    }
  ],
  "meshes" : [
    {
      "primitives" : [
        {
          "attributes" : {
            "POSITION" : 1,
            "NORMAL" : 2,
            "TANGENT" : 3,
            "TEXCOORD_0" : 4,
            "TEXCOORD_1" : 5
          },
          "indices" : 0,
          "material" : 0
        },
        {
          "attributes" : {
            "POSITION" : 7,
            "NORMAL" : 8,
            "TANGENT" : 9,
            "TEXCOORD_0" : 10,
            "TEXCOORD_1" : 11
          },
          "indices" : 6,
          "material" : 1
        }
      ],
      "name" : "PlatformToy_01"
    }
  ],
  "buffers" : [
    {
      "uri" : "PlatformToy_01.bin",
      "byteLength" : 254792
    }
  ],
  "bufferViews" : [
    {
      "buffer" : 0,
      "byteOffset" : 0,
      "byteLength" : 29048
    },
    {
      "buffer" : 0,
      "byteOffset" : 29048,
      "byteLength" : 43200
    },
    {
      "buffer" : 0,
      "byteOffset" : 72248,
      "byteLength" : 43200
    },
    {
      "buffer" : 0,
      "byteOffset" : 115448,
      "byteLength" : 57600
    },
    {
      "buffer" : 0,
      "byteOffset" : 173048,
      "byteLength" : 28800
    },
    {
      "buffer" : 0,
      "byteOffset" : 201848,
      "byteLength" : 28800
    },
    {
      "buffer" : 0,
      "byteOffset" : 230648,
      "byteLength" : 3872
    },
    {
      "buffer" : 0,
      "byteOffset" : 234520,
      "byteLength" : 4344
    },
    {
      "buffer" : 0,
      "byteOffset" : 238864,
      "byteLength" : 4344
    },
    {
      "buffer" : 0,
      "byteOffset" : 243208,
      "byteLength" : 5792
    },
    {
      "buffer" : 0,
      "byteOffset" : 249000,
      "byteLength" : 2896
    },
    {
      "buffer" : 0,
      "byteOffset" : 251896,
      "byteLength" : 2896
    }
  ],
  "accessors" : [
    {
      "bufferView" : 0,
      "componentType" : 5123,
      "count" : 14523,
      "type" : "SCALAR"
    },
    {
      "bufferView" : 1,
      "min" : [ -3.17, -3.39387, -3.17 ],
      "max" : [ 3.17, 2.39865, 3.17 ],
      "componentType" : 5126,
      "count" : 3600,
      "type" : "VEC3"
    },
    {
      "bufferView" : 2,
      "componentType" : 5126,
      "count" : 3600,
      "type" : "VEC3"
    },
    {
      "bufferView" : 3,
      "componentType" : 5126,
      "count" : 3600,
      "type" : "VEC4"
    },
    {
      "bufferView" : 4,
      "componentType" : 5126,
      "count" : 3600,
      "type" : "VEC2"
    },
    {
      "bufferView" : 5,
      "componentType" : 5126,
      "count" : 3600,
      "type" : "VEC2"
    },
    {
      "bufferView" : 6,
      "componentType" : 5123,
      "count" : 1935,
      "type" : "SCALAR"
    },
    {
      "bufferView" : 7,
      "min" : [ -2.85189, 1.9769, -2.85189 ],
      "max" : [ 2.85189, 2.91, 2.85189 ],
      "componentType" : 5126,
      "count" : 362,
      "type" : "VEC3"
    },
    {
      "bufferView" : 8,
      "componentType" : 5126,
      "count" : 362,
      "type" : "VEC3"
    },
    {
      "bufferView" : 9,
      "componentType" : 5126,
      "count" : 362,
      "type" : "VEC4"
    },
    {
      "bufferView" : 10,
      "componentType" : 5126,
      "count" : 362,
      "type" : "VEC2"
    },
    {
      "bufferView" : 11,
      "componentType" : 5126,
      "count" : 362,
      "type" : "VEC2"
    }
  ]
}
