{
  "asset" : {
    "generator" : "UE Viewer (umodel) build 1579 based",
    "version" : "2.0"
  },
  "scene" : 0,
  "scenes" : [
    {
      "nodes" : [ 0 ]
    }
  ],
  "nodes" : [
    {
      "name" : "PlatformDoubleInteract_01",
      "mesh" : 0
    }
  ],
  "materials" : [
    {
      "name" : "PlatformDoubleInteract_01",
      "pbrMetallicRoughness" : {
        "baseColorFactor" : [ 0.3, 0.3, 0.3, 1.0 ],
        "metallicFactor" : 0.1,
        "roughnessFactor" : 0.5
      }
    },
    {
      "name" : "PlatformDoubleInteract_Base_01",
      "pbrMetallicRoughness" : {
        "baseColorFactor" : [ 0.9, 0.3, 0.3, 1.0 ],
        "metallicFactor" : 0.1,
        "roughnessFactor" : 0.5
      }
    },
    {
      "name" : "Swatch_Emissive_SpaceHangar_1",
      "pbrMetallicRoughness" : {
        "baseColorFactor" : [ 0.3, 0.9, 0.3, 1.0 ],
        "metallicFactor" : 0.1,
        "roughnessFactor" : 0.5
      }
    }
  ],
  "meshes" : [
    {
      "primitives" : [
        {
          "attributes" : {
            "POSITION" : 1,
            "NORMAL" : 2,
            "TANGENT" : 3,
            "TEXCOORD_0" : 4,
            "TEXCOORD_1" : 5
          },
          "indices" : 0,
          "material" : 0
        },
        {
          "attributes" : {
            "POSITION" : 7,
            "NORMAL" : 8,
            "TANGENT" : 9,
            "TEXCOORD_0" : 10,
            "TEXCOORD_1" : 11
          },
          "indices" : 6,
          "material" : 1
        },
        {
          "attributes" : {
            "POSITION" : 13,
            "NORMAL" : 14,
            "TANGENT" : 15,
            "TEXCOORD_0" : 16,
            "TEXCOORD_1" : 17
          },
          "indices" : 12,
          "material" : 2
        }
      ],
      "name" : "PlatformDoubleInteract_01"
    }
  ],
  "buffers" : [
    {
      "uri" : "PlatformDoubleInteract_01.bin",
      "byteLength" : 231276
    }
  ],
  "bufferViews" : [
    {
      "buffer" : 0,
      "byteOffset" : 0,
      "byteLength" : 22104
    },
    {
      "buffer" : 0,
      "byteOffset" : 22104,
      "byteLength" : 31092
    },
    {
      "buffer" : 0,
      "byteOffset" : 53196,
      "byteLength" : 31092
    },
    {
      "buffer" : 0,
      "byteOffset" : 84288,
      "byteLength" : 41456
    },
    {
      "buffer" : 0,
      "byteOffset" : 125744,
      "byteLength" : 20728
    },
    {
      "buffer" : 0,
      "byteOffset" : 146472,
      "byteLength" : 20728
    },
    {
      "buffer" : 0,
      "byteOffset" : 167200,
      "byteLength" : 5892
    },
    {
      "buffer" : 0,
      "byteOffset" : 173092,
      "byteLength" : 11676
    },
    {
      "buffer" : 0,
      "byteOffset" : 184768,
      "byteLength" : 11676
    },
    {
      "buffer" : 0,
      "byteOffset" : 196444,
      "byteLength" : 15568
    },
    {
      "buffer" : 0,
      "byteOffset" : 212012,
      "byteLength" : 7784
    },
    {
      "buffer" : 0,
      "byteOffset" : 219796,
      "byteLength" : 7784
    },
    {
      "buffer" : 0,
      "byteOffset" : 227580,
      "byteLength" : 336
    },
    {
      "buffer" : 0,
      "byteOffset" : 227916,
      "byteLength" : 720
    },
    {
      "buffer" : 0,
      "byteOffset" : 228636,
      "byteLength" : 720
    },
    {
      "buffer" : 0,
      "byteOffset" : 229356,
      "byteLength" : 960
    },
    {
      "buffer" : 0,
      "byteOffset" : 230316,
      "byteLength" : 480
    },
    {
      "buffer" : 0,
      "byteOffset" : 230796,
      "byteLength" : 480
    }
  ],
  "accessors" : [
    {
      "bufferView" : 0,
      "componentType" : 5123,
      "count" : 11052,
      "type" : "SCALAR"
    },
    {
      "bufferView" : 1,
      "min" : [ -13.6622, -0.4556, -13.6622 ],
      "max" : [ 13.6622, 7.47398, 13.6622 ],
      "componentType" : 5126,
      "count" : 2591,
      "type" : "VEC3"
    },
    {
      "bufferView" : 2,
      "componentType" : 5126,
      "count" : 2591,
      "type" : "VEC3"
    },
    {
      "bufferView" : 3,
      "componentType" : 5126,
      "count" : 2591,
      "type" : "VEC4"
    },
    {
      "bufferView" : 4,
      "componentType" : 5126,
      "count" : 2591,
      "type" : "VEC2"
    },
    {
      "bufferView" : 5,
      "componentType" : 5126,
      "count" : 2591,
      "type" : "VEC2"
    },
    {
      "bufferView" : 6,
      "componentType" : 5123,
      "count" : 2946,
      "type" : "SCALAR"
    },
    {
      "bufferView" : 7,
      "min" : [ -3.73497, 6.63725, -3.74532 ],
      "max" : [ 3.73497, 38.2, 3.74532 ],
      "componentType" : 5126,
      "count" : 973,
      "type" : "VEC3"
    },
    {
      "bufferView" : 8,
      "componentType" : 5126,
      "count" : 973,
      "type" : "VEC3"
    },
    {
      "bufferView" : 9,
      "componentType" : 5126,
      "count" : 973,
      "type" : "VEC4"
    },
    {
      "bufferView" : 10,
      "componentType" : 5126,
      "count" : 973,
      "type" : "VEC2"
    },
    {
      "bufferView" : 11,
      "componentType" : 5126,
      "count" : 973,
      "type" : "VEC2"
    },
    {
      "bufferView" : 12,
      "componentType" : 5123,
      "count" : 168,
      "type" : "SCALAR"
    },
    {
      "bufferView" : 13,
      "min" : [ -3.73497, 23.4447, -3.74532 ],
      "max" : [ 3.73497, 24.2287, 3.74532 ],
      "componentType" : 5126,
      "count" : 60,
      "type" : "VEC3"
    },
    {
      "bufferView" : 14,
      "componentType" : 5126,
      "count" : 60,
      "type" : "VEC3"
    },
    {
      "bufferView" : 15,
      "componentType" : 5126,
      "count" : 60,
      "type" : "VEC4"
    },
    {
      "bufferView" : 16,
      "componentType" : 5126,
      "count" : 60,
      "type" : "VEC2"
    },
    {
      "bufferView" : 17,
      "componentType" : 5126,
      "count" : 60,
      "type" : "VEC2"
    }
  ]
}
