{
  "asset" : {
    "generator" : "UE Viewer (umodel) build 1579 based",
    "version" : "2.0"
  },
  "scene" : 0,
  "scenes" : [
    {
      "nodes" : [ 0 ]
    }
  ],
  "nodes" : [
    {
      "name" : "PlatformToyButton_01",
      "mesh" : 0
    }
  ],
  "materials" : [
    {
      "name" : "PlatformToyButton_01",
      "pbrMetallicRoughness" : {
        "baseColorFactor" : [ 0.3, 0.3, 0.3, 1.0 ],
        "metallicFactor" : 0.1,
        "roughnessFactor" : 0.5
      }
    },
    {
      "name" : "PlatformToy_01",
      "pbrMetallicRoughness" : {
        "baseColorFactor" : [ 0.9, 0.3, 0.3, 1.0 ],
        "metallicFactor" : 0.1,
        "roughnessFactor" : 0.5
      }
    },
    {
      "name" : "LaserButton_03",
      "pbrMetallicRoughness" : {
        "baseColorFactor" : [ 0.3, 0.9, 0.3, 1.0 ],
        "metallicFactor" : 0.1,
        "roughnessFactor" : 0.5
      }
    },
    {
      "name" : "PlatformToy_02",
      "pbrMetallicRoughness" : {
        "baseColorFactor" : [ 0.3, 0.3, 0.9, 1.0 ],
        "metallicFactor" : 0.1,
        "roughnessFactor" : 0.5
      }
    }
  ],
  "meshes" : [
    {
      "primitives" : [
        {
          "attributes" : {
            "POSITION" : 1,
            "NORMAL" : 2,
            "TANGENT" : 3,
            "TEXCOORD_0" : 4,
            "TEXCOORD_1" : 5
          },
          "indices" : 0,
          "material" : 0
        },
        {
          "attributes" : {
            "POSITION" : 7,
            "NORMAL" : 8,
            "TANGENT" : 9,
            "TEXCOORD_0" : 10,
            "TEXCOORD_1" : 11
          },
          "indices" : 6,
          "material" : 1
        },
        {
          "attributes" : {
            "POSITION" : 13,
            "NORMAL" : 14,
            "TANGENT" : 15,
            "TEXCOORD_0" : 16,
            "TEXCOORD_1" : 17
          },
          "indices" : 12,
          "material" : 2
        },
        {
          "attributes" : {
            "POSITION" : 19,
            "NORMAL" : 20,
            "TANGENT" : 21,
            "TEXCOORD_0" : 22,
            "TEXCOORD_1" : 23
          },
          "indices" : 18,
          "material" : 3
        }
      ],
      "name" : "PlatformToyButton_01"
    }
  ],
  "buffers" : [
    {
      "uri" : "PlatformToyButton_01.bin",
      "byteLength" : 44560
    }
  ],
  "bufferViews" : [
    {
      "buffer" : 0,
      "byteOffset" : 0,
      "byteLength" : 5256
    },
    {
      "buffer" : 0,
      "byteOffset" : 5256,
      "byteLength" : 7296
    },
    {
      "buffer" : 0,
      "byteOffset" : 12552,
      "byteLength" : 7296
    },
    {
      "buffer" : 0,
      "byteOffset" : 19848,
      "byteLength" : 9728
    },
    {
      "buffer" : 0,
      "byteOffset" : 29576,
      "byteLength" : 4864
    },
    {
      "buffer" : 0,
      "byteOffset" : 34440,
      "byteLength" : 4864
    },
    {
      "buffer" : 0,
      "byteOffset" : 39304,
      "byteLength" : 240
    },
    {
      "buffer" : 0,
      "byteOffset" : 39544,
      "byteLength" : 324
    },
    {
      "buffer" : 0,
      "byteOffset" : 39868,
      "byteLength" : 324
    },
    {
      "buffer" : 0,
      "byteOffset" : 40192,
      "byteLength" : 432
    },
    {
      "buffer" : 0,
      "byteOffset" : 40624,
      "byteLength" : 216
    },
    {
      "buffer" : 0,
      "byteOffset" : 40840,
      "byteLength" : 216
    },
    {
      "buffer" : 0,
      "byteOffset" : 41056,
      "byteLength" : 240
    },
    {
      "buffer" : 0,
      "byteOffset" : 41296,
      "byteLength" : 324
    },
    {
      "buffer" : 0,
      "byteOffset" : 41620,
      "byteLength" : 324
    },
    {
      "buffer" : 0,
      "byteOffset" : 41944,
      "byteLength" : 432
    },
    {
      "buffer" : 0,
      "byteOffset" : 42376,
      "byteLength" : 216
    },
    {
      "buffer" : 0,
      "byteOffset" : 42592,
      "byteLength" : 216
    },
    {
      "buffer" : 0,
      "byteOffset" : 42808,
      "byteLength" : 240
    },
    {
      "buffer" : 0,
      "byteOffset" : 43048,
      "byteLength" : 324
    },
    {
      "buffer" : 0,
      "byteOffset" : 43372,
      "byteLength" : 324
    },
    {
      "buffer" : 0,
      "byteOffset" : 43696,
      "byteLength" : 432
    },
    {
      "buffer" : 0,
      "byteOffset" : 44128,
      "byteLength" : 216
    },
    {
      "buffer" : 0,
      "byteOffset" : 44344,
      "byteLength" : 216
    }
  ],
  "accessors" : [
    {
      "bufferView" : 0,
      "componentType" : 5123,
      "count" : 2628,
      "type" : "SCALAR"
    },
    {
      "bufferView" : 1,
      "min" : [ -1.80883, -1.60377, -1.5879 ],
      "max" : [ 0.980696, 1.57711, 1.5879 ],
      "componentType" : 5126,
      "count" : 608,
      "type" : "VEC3"
    },
    {
      "bufferView" : 2,
      "componentType" : 5126,
      "count" : 608,
      "type" : "VEC3"
    },
    {
      "bufferView" : 3,
      "componentType" : 5126,
      "count" : 608,
      "type" : "VEC4"
    },
    {
      "bufferView" : 4,
      "componentType" : 5126,
      "count" : 608,
      "type" : "VEC2"
    },
    {
      "bufferView" : 5,
      "componentType" : 5126,
      "count" : 608,
      "type" : "VEC2"
    },
    {
      "bufferView" : 6,
      "componentType" : 5123,
      "count" : 120,
      "type" : "SCALAR"
    },
    {
      "bufferView" : 7,
      "min" : [ -1.56923, 0.118145, -1.23783 ],
      "max" : [ 0.681622, 1.41832, 1.23783 ],
      "componentType" : 5126,
      "count" : 27,
      "type" : "VEC3"
    },
    {
      "bufferView" : 8,
      "componentType" : 5126,
      "count" : 27,
      "type" : "VEC3"
    },
    {
      "bufferView" : 9,
      "componentType" : 5126,
      "count" : 27,
      "type" : "VEC4"
    },
    {
      "bufferView" : 10,
      "componentType" : 5126,
      "count" : 27,
      "type" : "VEC2"
    },
    {
      "bufferView" : 11,
      "componentType" : 5126,
      "count" : 27,
      "type" : "VEC2"
    },
    {
      "bufferView" : 12,
      "componentType" : 5123,
      "count" : 120,
      "type" : "SCALAR"
    },
    {
      "bufferView" : 13,
      "min" : [ -1.56846, -1.44418, -1.23531 ],
      "max" : [ 0.681379, -0.134313, 1.23531 ],
      "componentType" : 5126,
      "count" : 27,
      "type" : "VEC3"
    },
    {
      "bufferView" : 14,
      "componentType" : 5126,
      "count" : 27,
      "type" : "VEC3"
    },
    {
      "bufferView" : 15,
      "componentType" : 5126,
      "count" : 27,
      "type" : "VEC4"
    },
    {
      "bufferView" : 16,
      "componentType" : 5126,
      "count" : 27,
      "type" : "VEC2"
    },
    {
      "bufferView" : 17,
      "componentType" : 5126,
      "count" : 27,
      "type" : "VEC2"
    },
    {
      "bufferView" : 18,
      "componentType" : 5123,
      "count" : 120,
      "type" : "SCALAR"
    },
    {
      "bufferView" : 19,
      "min" : [ 0.87708, -1.31213, -1.23539 ],
      "max" : [ 0.91031, 1.28563, 1.23539 ],
      "componentType" : 5126,
      "count" : 27,
      "type" : "VEC3"
    },
    {
      "bufferView" : 20,
      "componentType" : 5126,
      "count" : 27,
      "type" : "VEC3"
    },
    {
      "bufferView" : 21,
      "componentType" : 5126,
      "count" : 27,
      "type" : "VEC4"
    },
    {
      "bufferView" : 22,
      "componentType" : 5126,
      "count" : 27,
      "type" : "VEC2"
    },
    {
      "bufferView" : 23,
      "componentType" : 5126,
      "count" : 27,
      "type" : "VEC2"
    }
  ]
}
