{
  "asset" : {
    "generator" : "UE Viewer (umodel) build 1579 based",
    "version" : "2.0"
  },
  "scene" : 0,
  "scenes" : [
    {
      "nodes" : [ 0 ]
    }
  ],
  "nodes" : [
    {
      "name" : "PlatformDoubleInteract_Base_01",
      "mesh" : 0
    }
  ],
  "materials" : [
    {
      "name" : "PlatformDoubleInteract_Base_01",
      "pbrMetallicRoughness" : {
        "baseColorFactor" : [ 0.3, 0.3, 0.3, 1.0 ],
        "metallicFactor" : 0.1,
        "roughnessFactor" : 0.5
      }
    },
    {
      "name" : "Swatch_Emissive_SpaceHangar_1",
      "pbrMetallicRoughness" : {
        "baseColorFactor" : [ 0.9, 0.3, 0.3, 1.0 ],
        "metallicFactor" : 0.1,
        "roughnessFactor" : 0.5
      }
    }
  ],
  "meshes" : [
    {
      "primitives" : [
        {
          "attributes" : {
            "POSITION" : 1,
            "NORMAL" : 2,
            "TANGENT" : 3,
            "TEXCOORD_0" : 4,
            "TEXCOORD_1" : 5
          },
          "indices" : 0,
          "material" : 0
        },
        {
          "attributes" : {
            "POSITION" : 7,
            "NORMAL" : 8,
            "TANGENT" : 9,
            "TEXCOORD_0" : 10,
            "TEXCOORD_1" : 11
          },
          "indices" : 6,
          "material" : 1
        }
      ],
      "name" : "PlatformDoubleInteract_Base_01"
    }
  ],
  "buffers" : [
    {
      "uri" : "PlatformDoubleInteract_Base_01.bin",
      "byteLength" : 132216
    }
  ],
  "bufferViews" : [
    {
      "buffer" : 0,
      "byteOffset" : 0,
      "byteLength" : 15936
    },
    {
      "buffer" : 0,
      "byteOffset" : 15936,
      "byteLength" : 23976
    },
    {
      "buffer" : 0,
      "byteOffset" : 39912,
      "byteLength" : 23976
    },
    {
      "buffer" : 0,
      "byteOffset" : 63888,
      "byteLength" : 31968
    },
    {
      "buffer" : 0,
      "byteOffset" : 95856,
      "byteLength" : 15984
    },
    {
      "buffer" : 0,
      "byteOffset" : 111840,
      "byteLength" : 15984
    },
    {
      "buffer" : 0,
      "byteOffset" : 127824,
      "byteLength" : 360
    },
    {
      "buffer" : 0,
      "byteOffset" : 128184,
      "byteLength" : 864
    },
    {
      "buffer" : 0,
      "byteOffset" : 129048,
      "byteLength" : 864
    },
    {
      "buffer" : 0,
      "byteOffset" : 129912,
      "byteLength" : 1152
    },
    {
      "buffer" : 0,
      "byteOffset" : 131064,
      "byteLength" : 576
    },
    {
      "buffer" : 0,
      "byteOffset" : 131640,
      "byteLength" : 576
    }
  ],
  "accessors" : [
    {
      "bufferView" : 0,
      "componentType" : 5123,
      "count" : 7968,
      "type" : "SCALAR"
    },
    {
      "bufferView" : 1,
      "min" : [ -13.4554, -0.471232, -13.4769 ],
      "max" : [ 13.4554, 17.25, 13.4769 ],
      "componentType" : 5126,
      "count" : 1998,
      "type" : "VEC3"
    },
    {
      "bufferView" : 2,
      "componentType" : 5126,
      "count" : 1998,
      "type" : "VEC3"
    },
    {
      "bufferView" : 3,
      "componentType" : 5126,
      "count" : 1998,
      "type" : "VEC4"
    },
    {
      "bufferView" : 4,
      "componentType" : 5126,
      "count" : 1998,
      "type" : "VEC2"
    },
    {
      "bufferView" : 5,
      "componentType" : 5126,
      "count" : 1998,
      "type" : "VEC2"
    },
    {
      "bufferView" : 6,
      "componentType" : 5123,
      "count" : 180,
      "type" : "SCALAR"
    },
    {
      "bufferView" : 7,
      "min" : [ -10.6693, 14.7145, -10.6863 ],
      "max" : [ 10.6693, 14.8855, 10.6863 ],
      "componentType" : 5126,
      "count" : 72,
      "type" : "VEC3"
    },
    {
      "bufferView" : 8,
      "componentType" : 5126,
      "count" : 72,
      "type" : "VEC3"
    },
    {
      "bufferView" : 9,
      "componentType" : 5126,
      "count" : 72,
      "type" : "VEC4"
    },
    {
      "bufferView" : 10,
      "componentType" : 5126,
      "count" : 72,
      "type" : "VEC2"
    },
    {
      "bufferView" : 11,
      "componentType" : 5126,
      "count" : 72,
      "type" : "VEC2"
    }
  ]
}
