{
  "asset" : {
    "generator" : "UE Viewer (umodel) build 1579 based",
    "version" : "2.0"
  },
  "scene" : 0,
  "scenes" : [
    {
      "nodes" : [ 0 ]
    }
  ],
  "nodes" : [
    {
      "name" : "PlatformToy_02",
      "mesh" : 0
    }
  ],
  "materials" : [
    {
      "name" : "Space_Plastic_Red_02",
      "pbrMetallicRoughness" : {
        "baseColorFactor" : [ 0.3, 0.3, 0.3, 1.0 ],
        "metallicFactor" : 0.1,
        "roughnessFactor" : 0.5
      }
    },
    {
      "name" : "PlatformToy_01",
      "pbrMetallicRoughness" : {
        "baseColorFactor" : [ 0.9, 0.3, 0.3, 1.0 ],
        "metallicFactor" : 0.1,
        "roughnessFactor" : 0.5
      }
    }
  ],
  "meshes" : [
    {
      "primitives" : [
        {
          "attributes" : {
            "POSITION" : 1,
            "NORMAL" : 2,
            "TANGENT" : 3,
            "TEXCOORD_0" : 4,
            "TEXCOORD_1" : 5
          },
          "indices" : 0,
          "material" : 0
        },
        {
          "attributes" : {
            "POSITION" : 7,
            "NORMAL" : 8,
            "TANGENT" : 9,
            "TEXCOORD_0" : 10,
            "TEXCOORD_1" : 11
          },
          "indices" : 6,
          "material" : 1
        }
      ],
      "name" : "PlatformToy_02"
    }
  ],
  "buffers" : [
    {
      "uri" : "PlatformToy_02.bin",
      "byteLength" : 123492
    }
  ],
  "bufferViews" : [
    {
      "buffer" : 0,
      "byteOffset" : 0,
      "byteLength" : 8748
    },
    {
      "buffer" : 0,
      "byteOffset" : 8748,
      "byteLength" : 14712
    },
    {
      "buffer" : 0,
      "byteOffset" : 23460,
      "byteLength" : 14712
    },
    {
      "buffer" : 0,
      "byteOffset" : 38172,
      "byteLength" : 19616
    },
    {
      "buffer" : 0,
      "byteOffset" : 57788,
      "byteLength" : 9808
    },
    {
      "buffer" : 0,
      "byteOffset" : 67596,
      "byteLength" : 9808
    },
    {
      "buffer" : 0,
      "byteOffset" : 77404,
      "byteLength" : 5040
    },
    {
      "buffer" : 0,
      "byteOffset" : 82444,
      "byteLength" : 8796
    },
    {
      "buffer" : 0,
      "byteOffset" : 91240,
      "byteLength" : 8796
    },
    {
      "buffer" : 0,
      "byteOffset" : 100036,
      "byteLength" : 11728
    },
    {
      "buffer" : 0,
      "byteOffset" : 111764,
      "byteLength" : 5864
    },
    {
      "buffer" : 0,
      "byteOffset" : 117628,
      "byteLength" : 5864
    }
  ],
  "accessors" : [
    {
      "bufferView" : 0,
      "componentType" : 5123,
      "count" : 4374,
      "type" : "SCALAR"
    },
    {
      "bufferView" : 1,
      "min" : [ -3.0338, -2.9414, -3.0338 ],
      "max" : [ 3.0338, 2.9414, 3.0338 ],
      "componentType" : 5126,
      "count" : 1226,
      "type" : "VEC3"
    },
    {
      "bufferView" : 2,
      "componentType" : 5126,
      "count" : 1226,
      "type" : "VEC3"
    },
    {
      "bufferView" : 3,
      "componentType" : 5126,
      "count" : 1226,
      "type" : "VEC4"
    },
    {
      "bufferView" : 4,
      "componentType" : 5126,
      "count" : 1226,
      "type" : "VEC2"
    },
    {
      "bufferView" : 5,
      "componentType" : 5126,
      "count" : 1226,
      "type" : "VEC2"
    },
    {
      "bufferView" : 6,
      "componentType" : 5123,
      "count" : 2520,
      "type" : "SCALAR"
    },
    {
      "bufferView" : 7,
      "min" : [ -3.0238, -2.9314, -3.0238 ],
      "max" : [ 3.0238, 2.9314, 3.0238 ],
      "componentType" : 5126,
      "count" : 733,
      "type" : "VEC3"
    },
    {
      "bufferView" : 8,
      "componentType" : 5126,
      "count" : 733,
      "type" : "VEC3"
    },
    {
      "bufferView" : 9,
      "componentType" : 5126,
      "count" : 733,
      "type" : "VEC4"
    },
    {
      "bufferView" : 10,
      "componentType" : 5126,
      "count" : 733,
      "type" : "VEC2"
    },
    {
      "bufferView" : 11,
      "componentType" : 5126,
      "count" : 733,
      "type" : "VEC2"
    }
  ]
}
