{
  "asset" : {
    "generator" : "UE Viewer (umodel) build 1579 based",
    "version" : "2.0"
  },
  "scene" : 0,
  "scenes" : [
    {
      "nodes" : [ 0 ]
    }
  ],
  "nodes" : [
    {
      "name" : "RocketStation_Corridor_Room_01",
      "mesh" : 0
    }
  ],
  "materials" : [
    {
      "name" : "SpaceGlass_Tiling_02",
      "pbrMetallicRoughness" : {
        "baseColorFactor" : [ 0.3, 0.3, 0.3, 1.0 ],
        "metallicFactor" : 0.1,
        "roughnessFactor" : 0.5
      }
    },
    {
      "name" : "RocketStation_Corridor_Room_01",
      "pbrMetallicRoughness" : {
        "baseColorFactor" : [ 0.9, 0.3, 0.3, 1.0 ],
        "metallicFactor" : 0.1,
        "roughnessFactor" : 0.5
      }
    }
  ],
  "meshes" : [
    {
      "primitives" : [
        {
          "attributes" : {
            "POSITION" : 1,
            "NORMAL" : 2,
            "TANGENT" : 3,
            "TEXCOORD_0" : 4,
            "TEXCOORD_1" : 5
          },
          "indices" : 0,
          "material" : 0
        },
        {
          "attributes" : {
            "POSITION" : 7,
            "NORMAL" : 8,
            "TANGENT" : 9,
            "TEXCOORD_0" : 10,
            "TEXCOORD_1" : 11
          },
          "indices" : 6,
          "material" : 1
        }
      ],
      "name" : "RocketStation_Corridor_Room_01"
    }
  ],
  "buffers" : [
    {
      "uri" : "RocketStation_Corridor_Room_01.bin",
      "byteLength" : 79428
    }
  ],
  "bufferViews" : [
    {
      "buffer" : 0,
      "byteOffset" : 0,
      "byteLength" : 4608
    },
    {
      "buffer" : 0,
      "byteOffset" : 4608,
      "byteLength" : 5064
    },
    {
      "buffer" : 0,
      "byteOffset" : 9672,
      "byteLength" : 5064
    },
    {
      "buffer" : 0,
      "byteOffset" : 14736,
      "byteLength" : 6752
    },
    {
      "buffer" : 0,
      "byteOffset" : 21488,
      "byteLength" : 3376
    },
    {
      "buffer" : 0,
      "byteOffset" : 24864,
      "byteLength" : 3376
    },
    {
      "buffer" : 0,
      "byteOffset" : 28240,
      "byteLength" : 4932
    },
    {
      "buffer" : 0,
      "byteOffset" : 33172,
      "byteLength" : 9912
    },
    {
      "buffer" : 0,
      "byteOffset" : 43084,
      "byteLength" : 9912
    },
    {
      "buffer" : 0,
      "byteOffset" : 52996,
      "byteLength" : 13216
    },
    {
      "buffer" : 0,
      "byteOffset" : 66212,
      "byteLength" : 6608
    },
    {
      "buffer" : 0,
      "byteOffset" : 72820,
      "byteLength" : 6608
    }
  ],
  "accessors" : [
    {
      "bufferView" : 0,
      "componentType" : 5123,
      "count" : 2304,
      "type" : "SCALAR"
    },
    {
      "bufferView" : 1,
      "min" : [ -1.28167, 0.0991274, -1.28095 ],
      "max" : [ 1.28022, 2.00517, 1.28095 ],
      "componentType" : 5126,
      "count" : 422,
      "type" : "VEC3"
    },
    {
      "bufferView" : 2,
      "componentType" : 5126,
      "count" : 422,
      "type" : "VEC3"
    },
    {
      "bufferView" : 3,
      "componentType" : 5126,
      "count" : 422,
      "type" : "VEC4"
    },
    {
      "bufferView" : 4,
      "componentType" : 5126,
      "count" : 422,
      "type" : "VEC2"
    },
    {
      "bufferView" : 5,
      "componentType" : 5126,
      "count" : 422,
      "type" : "VEC2"
    },
    {
      "bufferView" : 6,
      "componentType" : 5123,
      "count" : 2466,
      "type" : "SCALAR"
    },
    {
      "bufferView" : 7,
      "min" : [ -1.32405, -2.26499e-17, -1.345 ],
      "max" : [ 1.32405, 0.979481, 1.345 ],
      "componentType" : 5126,
      "count" : 826,
      "type" : "VEC3"
    },
    {
      "bufferView" : 8,
      "componentType" : 5126,
      "count" : 826,
      "type" : "VEC3"
    },
    {
      "bufferView" : 9,
      "componentType" : 5126,
      "count" : 826,
      "type" : "VEC4"
    },
    {
      "bufferView" : 10,
      "componentType" : 5126,
      "count" : 826,
      "type" : "VEC2"
    },
    {
      "bufferView" : 11,
      "componentType" : 5126,
      "count" : 826,
      "type" : "VEC2"
    }
  ]
}
