{
  "asset" : {
    "generator" : "UE Viewer (umodel) build 1579 based",
    "version" : "2.0"
  },
  "scene" : 0,
  "scenes" : [
    {
      "nodes" : [ 0 ]
    }
  ],
  "nodes" : [
    {
      "name" : "RocketStation_Corridor_01",
      "mesh" : 0
    }
  ],
  "materials" : [
    {
      "name" : "SpaceGlass_Tiling_02",
      "pbrMetallicRoughness" : {
        "baseColorFactor" : [ 0.3, 0.3, 0.3, 1.0 ],
        "metallicFactor" : 0.1,
        "roughnessFactor" : 0.5
      }
    },
    {
      "name" : "Swatch_Emissive_Lamp_01",
      "pbrMetallicRoughness" : {
        "baseColorFactor" : [ 0.9, 0.3, 0.3, 1.0 ],
        "metallicFactor" : 0.1,
        "roughnessFactor" : 0.5
      }
    },
    {
      "name" : "RocketStation_Corridor_01",
      "pbrMetallicRoughness" : {
        "baseColorFactor" : [ 0.3, 0.9, 0.3, 1.0 ],
        "metallicFactor" : 0.1,
        "roughnessFactor" : 0.5
      }
    }
  ],
  "meshes" : [
    {
      "primitives" : [
        {
          "attributes" : {
            "POSITION" : 1,
            "NORMAL" : 2,
            "TANGENT" : 3,
            "TEXCOORD_0" : 4,
            "TEXCOORD_1" : 5
          },
          "indices" : 0,
          "material" : 0
        },
        {
          "attributes" : {
            "POSITION" : 7,
            "NORMAL" : 8,
            "TANGENT" : 9,
            "TEXCOORD_0" : 10,
            "TEXCOORD_1" : 11
          },
          "indices" : 6,
          "material" : 1
        },
        {
          "attributes" : {
            "POSITION" : 13,
            "NORMAL" : 14,
            "TANGENT" : 15,
            "TEXCOORD_0" : 16,
            "TEXCOORD_1" : 17
          },
          "indices" : 12,
          "material" : 2
        }
      ],
      "name" : "RocketStation_Corridor_01"
    }
  ],
  "buffers" : [
    {
      "uri" : "RocketStation_Corridor_01.bin",
      "byteLength" : 245952
    }
  ],
  "bufferViews" : [
    {
      "buffer" : 0,
      "byteOffset" : 0,
      "byteLength" : 576
    },
    {
      "buffer" : 0,
      "byteOffset" : 576,
      "byteLength" : 1248
    },
    {
      "buffer" : 0,
      "byteOffset" : 1824,
      "byteLength" : 1248
    },
    {
      "buffer" : 0,
      "byteOffset" : 3072,
      "byteLength" : 1664
    },
    {
      "buffer" : 0,
      "byteOffset" : 4736,
      "byteLength" : 832
    },
    {
      "buffer" : 0,
      "byteOffset" : 5568,
      "byteLength" : 832
    },
    {
      "buffer" : 0,
      "byteOffset" : 6400,
      "byteLength" : 2832
    },
    {
      "buffer" : 0,
      "byteOffset" : 9232,
      "byteLength" : 8304
    },
    {
      "buffer" : 0,
      "byteOffset" : 17536,
      "byteLength" : 8304
    },
    {
      "buffer" : 0,
      "byteOffset" : 25840,
      "byteLength" : 11072
    },
    {
      "buffer" : 0,
      "byteOffset" : 36912,
      "byteLength" : 5536
    },
    {
      "buffer" : 0,
      "byteOffset" : 42448,
      "byteLength" : 5536
    },
    {
      "buffer" : 0,
      "byteOffset" : 47984,
      "byteLength" : 21120
    },
    {
      "buffer" : 0,
      "byteOffset" : 69104,
      "byteLength" : 37896
    },
    {
      "buffer" : 0,
      "byteOffset" : 107000,
      "byteLength" : 37896
    },
    {
      "buffer" : 0,
      "byteOffset" : 144896,
      "byteLength" : 50528
    },
    {
      "buffer" : 0,
      "byteOffset" : 195424,
      "byteLength" : 25264
    },
    {
      "buffer" : 0,
      "byteOffset" : 220688,
      "byteLength" : 25264
    }
  ],
  "accessors" : [
    {
      "bufferView" : 0,
      "componentType" : 5123,
      "count" : 288,
      "type" : "SCALAR"
    },
    {
      "bufferView" : 1,
      "min" : [ 0.459545, 0.434143, -0.536238 ],
      "max" : [ 4.54045, 0.964406, 0.536238 ],
      "componentType" : 5126,
      "count" : 104,
      "type" : "VEC3"
    },
    {
      "bufferView" : 2,
      "componentType" : 5126,
      "count" : 104,
      "type" : "VEC3"
    },
    {
      "bufferView" : 3,
      "componentType" : 5126,
      "count" : 104,
      "type" : "VEC4"
    },
    {
      "bufferView" : 4,
      "componentType" : 5126,
      "count" : 104,
      "type" : "VEC2"
    },
    {
      "bufferView" : 5,
      "componentType" : 5126,
      "count" : 104,
      "type" : "VEC2"
    },
    {
      "bufferView" : 6,
      "componentType" : 5123,
      "count" : 1416,
      "type" : "SCALAR"
    },
    {
      "bufferView" : 7,
      "min" : [ 0.0602118, 0.1, -0.176906 ],
      "max" : [ 4.93979, 0.102, 0.176906 ],
      "componentType" : 5126,
      "count" : 692,
      "type" : "VEC3"
    },
    {
      "bufferView" : 8,
      "componentType" : 5126,
      "count" : 692,
      "type" : "VEC3"
    },
    {
      "bufferView" : 9,
      "componentType" : 5126,
      "count" : 692,
      "type" : "VEC4"
    },
    {
      "bufferView" : 10,
      "componentType" : 5126,
      "count" : 692,
      "type" : "VEC2"
    },
    {
      "bufferView" : 11,
      "componentType" : 5126,
      "count" : 692,
      "type" : "VEC2"
    },
    {
      "bufferView" : 12,
      "componentType" : 5123,
      "count" : 10560,
      "type" : "SCALAR"
    },
    {
      "bufferView" : 13,
      "min" : [ -7.39019e-17, 0, -0.572517 ],
      "max" : [ 5, 0.979481, 0.572517 ],
      "componentType" : 5126,
      "count" : 3158,
      "type" : "VEC3"
    },
    {
      "bufferView" : 14,
      "componentType" : 5126,
      "count" : 3158,
      "type" : "VEC3"
    },
    {
      "bufferView" : 15,
      "componentType" : 5126,
      "count" : 3158,
      "type" : "VEC4"
    },
    {
      "bufferView" : 16,
      "componentType" : 5126,
      "count" : 3158,
      "type" : "VEC2"
    },
    {
      "bufferView" : 17,
      "componentType" : 5126,
      "count" : 3158,
      "type" : "VEC2"
    }
  ]
}
