{
  "asset" : {
    "generator" : "UE Viewer (umodel) build 1579 based",
    "version" : "2.0"
  },
  "scene" : 0,
  "scenes" : [
    {
      "nodes" : [ 0 ]
    }
  ],
  "nodes" : [
    {
      "name" : "SpaceHangarWalls_01",
      "mesh" : 0
    }
  ],
  "materials" : [
    {
      "name" : "SpaceHangar_Walls_01",
      "pbrMetallicRoughness" : {
        "baseColorFactor" : [ 0.3, 0.3, 0.3, 1.0 ],
        "metallicFactor" : 0.1,
        "roughnessFactor" : 0.5
      }
    },
    {
      "name" : "SpaceHangar_Walls_01",
      "pbrMetallicRoughness" : {
        "baseColorFactor" : [ 0.9, 0.3, 0.3, 1.0 ],
        "metallicFactor" : 0.1,
        "roughnessFactor" : 0.5
      }
    }
  ],
  "meshes" : [
    {
      "primitives" : [
        {
          "attributes" : {
            "POSITION" : 1,
            "NORMAL" : 2,
            "TANGENT" : 3,
            "TEXCOORD_0" : 4,
            "TEXCOORD_1" : 5,
            "TEXCOORD_2" : 6
          },
          "indices" : 0,
          "material" : 0
        },
        {
          "attributes" : {
            "POSITION" : 8,
            "NORMAL" : 9,
            "TANGENT" : 10,
            "TEXCOORD_0" : 11,
            "TEXCOORD_1" : 12,
            "TEXCOORD_2" : 13
          },
          "indices" : 7,
          "material" : 1
        }
      ],
      "name" : "SpaceHangarWalls_01"
    }
  ],
  "buffers" : [
    {
      "uri" : "SpaceHangarWalls_01.bin",
      "byteLength" : 313848
    }
  ],
  "bufferViews" : [
    {
      "buffer" : 0,
      "byteOffset" : 0,
      "byteLength" : 24600
    },
    {
      "buffer" : 0,
      "byteOffset" : 24600,
      "byteLength" : 50796
    },
    {
      "buffer" : 0,
      "byteOffset" : 75396,
      "byteLength" : 50796
    },
    {
      "buffer" : 0,
      "byteOffset" : 126192,
      "byteLength" : 67728
    },
    {
      "buffer" : 0,
      "byteOffset" : 193920,
      "byteLength" : 33864
    },
    {
      "buffer" : 0,
      "byteOffset" : 227784,
      "byteLength" : 33864
    },
    {
      "buffer" : 0,
      "byteOffset" : 261648,
      "byteLength" : 33864
    },
    {
      "buffer" : 0,
      "byteOffset" : 295512,
      "byteLength" : 1440
    },
    {
      "buffer" : 0,
      "byteOffset" : 296952,
      "byteLength" : 3168
    },
    {
      "buffer" : 0,
      "byteOffset" : 300120,
      "byteLength" : 3168
    },
    {
      "buffer" : 0,
      "byteOffset" : 303288,
      "byteLength" : 4224
    },
    {
      "buffer" : 0,
      "byteOffset" : 307512,
      "byteLength" : 2112
    },
    {
      "buffer" : 0,
      "byteOffset" : 309624,
      "byteLength" : 2112
    },
    {
      "buffer" : 0,
      "byteOffset" : 311736,
      "byteLength" : 2112
    }
  ],
  "accessors" : [
    {
      "bufferView" : 0,
      "componentType" : 5123,
      "count" : 12300,
      "type" : "SCALAR"
    },
    {
      "bufferView" : 1,
      "min" : [ -115.86, -10.2, -115.86 ],
      "max" : [ 115.86, 67.6797, 115.86 ],
      "componentType" : 5126,
      "count" : 4233,
      "type" : "VEC3"
    },
    {
      "bufferView" : 2,
      "componentType" : 5126,
      "count" : 4233,
      "type" : "VEC3"
    },
    {
      "bufferView" : 3,
      "componentType" : 5126,
      "count" : 4233,
      "type" : "VEC4"
    },
    {
      "bufferView" : 4,
      "componentType" : 5126,
      "count" : 4233,
      "type" : "VEC2"
    },
    {
      "bufferView" : 5,
      "componentType" : 5126,
      "count" : 4233,
      "type" : "VEC2"
    },
    {
      "bufferView" : 6,
      "componentType" : 5126,
      "count" : 4233,
      "type" : "VEC2"
    },
    {
      "bufferView" : 7,
      "componentType" : 5123,
      "count" : 720,
      "type" : "SCALAR"
    },
    {
      "bufferView" : 8,
      "min" : [ -81.6066, 54.4797, -81.0891 ],
      "max" : [ 81.6066, 54.4797, 81.0891 ],
      "componentType" : 5126,
      "count" : 264,
      "type" : "VEC3"
    },
    {
      "bufferView" : 9,
      "componentType" : 5126,
      "count" : 264,
      "type" : "VEC3"
    },
    {
      "bufferView" : 10,
      "componentType" : 5126,
      "count" : 264,
      "type" : "VEC4"
    },
    {
      "bufferView" : 11,
      "componentType" : 5126,
      "count" : 264,
      "type" : "VEC2"
    },
    {
      "bufferView" : 12,
      "componentType" : 5126,
      "count" : 264,
      "type" : "VEC2"
    },
    {
      "bufferView" : 13,
      "componentType" : 5126,
      "count" : 264,
      "type" : "VEC2"
    }
  ]
}
