{
  "asset" : {
    "generator" : "UE Viewer (umodel) build 1579 based",
    "version" : "2.0"
  },
  "scene" : 0,
  "scenes" : [
    {
      "nodes" : [ 0 ]
    }
  ],
  "nodes" : [
    {
      "name" : "SpaceLaserRoomWalls_01",
      "mesh" : 0
    }
  ],
  "materials" : [
    {
      "name" : "LaserStation_Floor_02",
      "pbrMetallicRoughness" : {
        "baseColorFactor" : [ 0.3, 0.3, 0.3, 1.0 ],
        "metallicFactor" : 0.1,
        "roughnessFactor" : 0.5
      }
    },
    {
      "name" : "LaserStation_Floor_01",
      "pbrMetallicRoughness" : {
        "baseColorFactor" : [ 0.9, 0.3, 0.3, 1.0 ],
        "metallicFactor" : 0.1,
        "roughnessFactor" : 0.5
      }
    },
    {
      "name" : "Swatch_EmissiveRedBlob",
      "pbrMetallicRoughness" : {
        "baseColorFactor" : [ 0.3, 0.9, 0.3, 1.0 ],
        "metallicFactor" : 0.1,
        "roughnessFactor" : 0.5
      }
    },
    {
      "name" : "Swatch_EmissiveLamp_12",
      "pbrMetallicRoughness" : {
        "baseColorFactor" : [ 0.3, 0.3, 0.9, 1.0 ],
        "metallicFactor" : 0.1,
        "roughnessFactor" : 0.5
      }
    }
  ],
  "meshes" : [
    {
      "primitives" : [
        {
          "attributes" : {
            "POSITION" : 1,
            "NORMAL" : 2,
            "TANGENT" : 3,
            "TEXCOORD_0" : 4,
            "TEXCOORD_1" : 5,
            "TEXCOORD_2" : 6
          },
          "indices" : 0,
          "material" : 0
        },
        {
          "attributes" : {
            "POSITION" : 8,
            "NORMAL" : 9,
            "TANGENT" : 10,
            "TEXCOORD_0" : 11,
            "TEXCOORD_1" : 12,
            "TEXCOORD_2" : 13
          },
          "indices" : 7,
          "material" : 1
        },
        {
          "attributes" : {
            "POSITION" : 15,
            "NORMAL" : 16,
            "TANGENT" : 17,
            "TEXCOORD_0" : 18,
            "TEXCOORD_1" : 19,
            "TEXCOORD_2" : 20
          },
          "indices" : 14,
          "material" : 2
        },
        {
          "attributes" : {
            "POSITION" : 22,
            "NORMAL" : 23,
            "TANGENT" : 24,
            "TEXCOORD_0" : 25,
            "TEXCOORD_1" : 26,
            "TEXCOORD_2" : 27
          },
          "indices" : 21,
          "material" : 3
        }
      ],
      "name" : "SpaceLaserRoomWalls_01"
    }
  ],
  "buffers" : [
    {
      "uri" : "SpaceLaserRoomWalls_01.bin",
      "byteLength" : 287908
    }
  ],
  "bufferViews" : [
    {
      "buffer" : 0,
      "byteOffset" : 0,
      "byteLength" : 3744
    },
    {
      "buffer" : 0,
      "byteOffset" : 3744,
      "byteLength" : 7776
    },
    {
      "buffer" : 0,
      "byteOffset" : 11520,
      "byteLength" : 7776
    },
    {
      "buffer" : 0,
      "byteOffset" : 19296,
      "byteLength" : 10368
    },
    {
      "buffer" : 0,
      "byteOffset" : 29664,
      "byteLength" : 5184
    },
    {
      "buffer" : 0,
      "byteOffset" : 34848,
      "byteLength" : 5184
    },
    {
      "buffer" : 0,
      "byteOffset" : 40032,
      "byteLength" : 5184
    },
    {
      "buffer" : 0,
      "byteOffset" : 45216,
      "byteLength" : 16932
    },
    {
      "buffer" : 0,
      "byteOffset" : 62148,
      "byteLength" : 40668
    },
    {
      "buffer" : 0,
      "byteOffset" : 102816,
      "byteLength" : 40668
    },
    {
      "buffer" : 0,
      "byteOffset" : 143484,
      "byteLength" : 54224
    },
    {
      "buffer" : 0,
      "byteOffset" : 197708,
      "byteLength" : 27112
    },
    {
      "buffer" : 0,
      "byteOffset" : 224820,
      "byteLength" : 27112
    },
    {
      "buffer" : 0,
      "byteOffset" : 251932,
      "byteLength" : 27112
    },
    {
      "buffer" : 0,
      "byteOffset" : 279044,
      "byteLength" : 336
    },
    {
      "buffer" : 0,
      "byteOffset" : 279380,
      "byteLength" : 768
    },
    {
      "buffer" : 0,
      "byteOffset" : 280148,
      "byteLength" : 768
    },
    {
      "buffer" : 0,
      "byteOffset" : 280916,
      "byteLength" : 1024
    },
    {
      "buffer" : 0,
      "byteOffset" : 281940,
      "byteLength" : 512
    },
    {
      "buffer" : 0,
      "byteOffset" : 282452,
      "byteLength" : 512
    },
    {
      "buffer" : 0,
      "byteOffset" : 282964,
      "byteLength" : 512
    },
    {
      "buffer" : 0,
      "byteOffset" : 283476,
      "byteLength" : 336
    },
    {
      "buffer" : 0,
      "byteOffset" : 283812,
      "byteLength" : 768
    },
    {
      "buffer" : 0,
      "byteOffset" : 284580,
      "byteLength" : 768
    },
    {
      "buffer" : 0,
      "byteOffset" : 285348,
      "byteLength" : 1024
    },
    {
      "buffer" : 0,
      "byteOffset" : 286372,
      "byteLength" : 512
    },
    {
      "buffer" : 0,
      "byteOffset" : 286884,
      "byteLength" : 512
    },
    {
      "buffer" : 0,
      "byteOffset" : 287396,
      "byteLength" : 512
    }
  ],
  "accessors" : [
    {
      "bufferView" : 0,
      "componentType" : 5123,
      "count" : 1872,
      "type" : "SCALAR"
    },
    {
      "bufferView" : 1,
      "min" : [ -26.4462, -3.12236, -11.9819 ],
      "max" : [ 26.4462, 0.646, 11.9819 ],
      "componentType" : 5126,
      "count" : 648,
      "type" : "VEC3"
    },
    {
      "bufferView" : 2,
      "componentType" : 5126,
      "count" : 648,
      "type" : "VEC3"
    },
    {
      "bufferView" : 3,
      "componentType" : 5126,
      "count" : 648,
      "type" : "VEC4"
    },
    {
      "bufferView" : 4,
      "componentType" : 5126,
      "count" : 648,
      "type" : "VEC2"
    },
    {
      "bufferView" : 5,
      "componentType" : 5126,
      "count" : 648,
      "type" : "VEC2"
    },
    {
      "bufferView" : 6,
      "componentType" : 5126,
      "count" : 648,
      "type" : "VEC2"
    },
    {
      "bufferView" : 7,
      "componentType" : 5123,
      "count" : 8466,
      "type" : "SCALAR"
    },
    {
      "bufferView" : 8,
      "min" : [ -26.4462, -2.63856, -11.9819 ],
      "max" : [ 26.4462, 0.85876, 11.9819 ],
      "componentType" : 5126,
      "count" : 3389,
      "type" : "VEC3"
    },
    {
      "bufferView" : 9,
      "componentType" : 5126,
      "count" : 3389,
      "type" : "VEC3"
    },
    {
      "bufferView" : 10,
      "componentType" : 5126,
      "count" : 3389,
      "type" : "VEC4"
    },
    {
      "bufferView" : 11,
      "componentType" : 5126,
      "count" : 3389,
      "type" : "VEC2"
    },
    {
      "bufferView" : 12,
      "componentType" : 5126,
      "count" : 3389,
      "type" : "VEC2"
    },
    {
      "bufferView" : 13,
      "componentType" : 5126,
      "count" : 3389,
      "type" : "VEC2"
    },
    {
      "bufferView" : 14,
      "componentType" : 5123,
      "count" : 168,
      "type" : "SCALAR"
    },
    {
      "bufferView" : 15,
      "min" : [ -24.7214, -2.39476, -10.1494 ],
      "max" : [ -0.978122, -1.82236, 10.1494 ],
      "componentType" : 5126,
      "count" : 64,
      "type" : "VEC3"
    },
    {
      "bufferView" : 16,
      "componentType" : 5126,
      "count" : 64,
      "type" : "VEC3"
    },
    {
      "bufferView" : 17,
      "componentType" : 5126,
      "count" : 64,
      "type" : "VEC4"
    },
    {
      "bufferView" : 18,
      "componentType" : 5126,
      "count" : 64,
      "type" : "VEC2"
    },
    {
      "bufferView" : 19,
      "componentType" : 5126,
      "count" : 64,
      "type" : "VEC2"
    },
    {
      "bufferView" : 20,
      "componentType" : 5126,
      "count" : 64,
      "type" : "VEC2"
    },
    {
      "bufferView" : 21,
      "componentType" : 5123,
      "count" : 168,
      "type" : "SCALAR"
    },
    {
      "bufferView" : 22,
      "min" : [ 0.978122, -2.39476, -10.1494 ],
      "max" : [ 24.7214, -1.82236, 10.1494 ],
      "componentType" : 5126,
      "count" : 64,
      "type" : "VEC3"
    },
    {
      "bufferView" : 23,
      "componentType" : 5126,
      "count" : 64,
      "type" : "VEC3"
    },
    {
      "bufferView" : 24,
      "componentType" : 5126,
      "count" : 64,
      "type" : "VEC4"
    },
    {
      "bufferView" : 25,
      "componentType" : 5126,
      "count" : 64,
      "type" : "VEC2"
    },
    {
      "bufferView" : 26,
      "componentType" : 5126,
      "count" : 64,
      "type" : "VEC2"
    },
    {
      "bufferView" : 27,
      "componentType" : 5126,
      "count" : 64,
      "type" : "VEC2"
    }
  ]
}
