{
  "asset" : {
    "generator" : "UE Viewer (umodel) build 1579 based",
    "version" : "2.0"
  },
  "scene" : 0,
  "scenes" : [
    {
      "nodes" : [ 0 ]
    }
  ],
  "nodes" : [
    {
      "name" : "Space_Beam_01_Base",
      "mesh" : 0
    }
  ],
  "materials" : [
    {
      "name" : "Space_Beam_01_Blue",
      "pbrMetallicRoughness" : {
        "baseColorFactor" : [ 0.3, 0.3, 0.3, 1.0 ],
        "metallicFactor" : 0.1,
        "roughnessFactor" : 0.5
      }
    }
  ],
  "meshes" : [
    {
      "primitives" : [
        {
          "attributes" : {
            "POSITION" : 1,
            "NORMAL" : 2,
            "TANGENT" : 3,
            "TEXCOORD_0" : 4,
            "TEXCOORD_1" : 5
          },
          "indices" : 0,
          "material" : 0
        }
      ],
      "name" : "Space_Beam_01_Base"
    }
  ],
  "buffers" : [
    {
      "uri" : "Space_Beam_01_Base.bin",
      "byteLength" : 150032
    }
  ],
  "bufferViews" : [
    {
      "buffer" : 0,
      "byteOffset" : 0,
      "byteLength" : 13392
    },
    {
      "buffer" : 0,
      "byteOffset" : 13392,
      "byteLength" : 29280
    },
    {
      "buffer" : 0,
      "byteOffset" : 42672,
      "byteLength" : 29280
    },
    {
      "buffer" : 0,
      "byteOffset" : 71952,
      "byteLength" : 39040
    },
    {
      "buffer" : 0,
      "byteOffset" : 110992,
      "byteLength" : 19520
    },
    {
      "buffer" : 0,
      "byteOffset" : 130512,
      "byteLength" : 19520
    }
  ],
  "accessors" : [
    {
      "bufferView" : 0,
      "componentType" : 5123,
      "count" : 6696,
      "type" : "SCALAR"
    },
    {
      "bufferView" : 1,
      "min" : [ -1.81182, -0.2, -1.81182 ],
      "max" : [ 1.81682, 3.48578, 1.81182 ],
      "componentType" : 5126,
      "count" : 2440,
      "type" : "VEC3"
    },
    {
      "bufferView" : 2,
      "componentType" : 5126,
      "count" : 2440,
      "type" : "VEC3"
    },
    {
      "bufferView" : 3,
      "componentType" : 5126,
      "count" : 2440,
      "type" : "VEC4"
    },
    {
      "bufferView" : 4,
      "componentType" : 5126,
      "count" : 2440,
      "type" : "VEC2"
    },
    {
      "bufferView" : 5,
      "componentType" : 5126,
      "count" : 2440,
      "type" : "VEC2"
    }
  ]
}
