{
  "asset" : {
    "generator" : "UE Viewer (umodel) build 1579 based",
    "version" : "2.0"
  },
  "scene" : 0,
  "scenes" : [
    {
      "nodes" : [ 0 ]
    }
  ],
  "nodes" : [
    {
      "name" : "SpaceHangarFloor_01",
      "mesh" : 0
    }
  ],
  "materials" : [
    {
      "name" : "SpaceHangar_Floor_01",
      "pbrMetallicRoughness" : {
        "baseColorFactor" : [ 0.3, 0.3, 0.3, 1.0 ],
        "metallicFactor" : 0.1,
        "roughnessFactor" : 0.5
      }
    },
    {
      "name" : "GravityRoom_PaddedWall_01",
      "pbrMetallicRoughness" : {
        "baseColorFactor" : [ 0.9, 0.3, 0.3, 1.0 ],
        "metallicFactor" : 0.1,
        "roughnessFactor" : 0.5
      }
    }
  ],
  "meshes" : [
    {
      "primitives" : [
        {
          "attributes" : {
            "POSITION" : 1,
            "NORMAL" : 2,
            "TANGENT" : 3,
            "TEXCOORD_0" : 4,
            "TEXCOORD_1" : 5
          },
          "indices" : 0,
          "material" : 0
        },
        {
          "attributes" : {
            "POSITION" : 7,
            "NORMAL" : 8,
            "TANGENT" : 9,
            "TEXCOORD_0" : 10,
            "TEXCOORD_1" : 11
          },
          "indices" : 6,
          "material" : 1
        }
      ],
      "name" : "SpaceHangarFloor_01"
    }
  ],
  "buffers" : [
    {
      "uri" : "SpaceHangarFloor_01.bin",
      "byteLength" : 107600
    }
  ],
  "bufferViews" : [
    {
      "buffer" : 0,
      "byteOffset" : 0,
      "byteLength" : 10224
    },
    {
      "buffer" : 0,
      "byteOffset" : 10224,
      "byteLength" : 19080
    },
    {
      "buffer" : 0,
      "byteOffset" : 29304,
      "byteLength" : 19080
    },
    {
      "buffer" : 0,
      "byteOffset" : 48384,
      "byteLength" : 25440
    },
    {
      "buffer" : 0,
      "byteOffset" : 73824,
      "byteLength" : 12720
    },
    {
      "buffer" : 0,
      "byteOffset" : 86544,
      "byteLength" : 12720
    },
    {
      "buffer" : 0,
      "byteOffset" : 99264,
      "byteLength" : 1056
    },
    {
      "buffer" : 0,
      "byteOffset" : 100320,
      "byteLength" : 1560
    },
    {
      "buffer" : 0,
      "byteOffset" : 101880,
      "byteLength" : 1560
    },
    {
      "buffer" : 0,
      "byteOffset" : 103440,
      "byteLength" : 2080
    },
    {
      "buffer" : 0,
      "byteOffset" : 105520,
      "byteLength" : 1040
    },
    {
      "buffer" : 0,
      "byteOffset" : 106560,
      "byteLength" : 1040
    }
  ],
  "accessors" : [
    {
      "bufferView" : 0,
      "componentType" : 5123,
      "count" : 5112,
      "type" : "SCALAR"
    },
    {
      "bufferView" : 1,
      "min" : [ -99.5143, -4.21348, -99.5143 ],
      "max" : [ 99.5143, 0.346075, 6.09349e-15 ],
      "componentType" : 5126,
      "count" : 1590,
      "type" : "VEC3"
    },
    {
      "bufferView" : 2,
      "componentType" : 5126,
      "count" : 1590,
      "type" : "VEC3"
    },
    {
      "bufferView" : 3,
      "componentType" : 5126,
      "count" : 1590,
      "type" : "VEC4"
    },
    {
      "bufferView" : 4,
      "componentType" : 5126,
      "count" : 1590,
      "type" : "VEC2"
    },
    {
      "bufferView" : 5,
      "componentType" : 5126,
      "count" : 1590,
      "type" : "VEC2"
    },
    {
      "bufferView" : 6,
      "componentType" : 5123,
      "count" : 528,
      "type" : "SCALAR"
    },
    {
      "bufferView" : 7,
      "min" : [ -78.0153, -0.165264, -78.2046 ],
      "max" : [ 78.0153, -0.165264, -32.5954 ],
      "componentType" : 5126,
      "count" : 130,
      "type" : "VEC3"
    },
    {
      "bufferView" : 8,
      "componentType" : 5126,
      "count" : 130,
      "type" : "VEC3"
    },
    {
      "bufferView" : 9,
      "componentType" : 5126,
      "count" : 130,
      "type" : "VEC4"
    },
    {
      "bufferView" : 10,
      "componentType" : 5126,
      "count" : 130,
      "type" : "VEC2"
    },
    {
      "bufferView" : 11,
      "componentType" : 5126,
      "count" : 130,
      "type" : "VEC2"
    }
  ]
}
