{
  "asset" : {
    "generator" : "UE Viewer (umodel) build 1579 based",
    "version" : "2.0"
  },
  "scene" : 0,
  "scenes" : [
    {
      "nodes" : [ 0 ]
    }
  ],
  "nodes" : [
    {
      "name" : "SpaceBowl_Door_Wide_01",
      "mesh" : 0
    }
  ],
  "materials" : [
    {
      "name" : "SpaceBowl_Door_01",
      "pbrMetallicRoughness" : {
        "baseColorFactor" : [ 0.3, 0.3, 0.3, 1.0 ],
        "metallicFactor" : 0.1,
        "roughnessFactor" : 0.5
      }
    }
  ],
  "meshes" : [
    {
      "primitives" : [
        {
          "attributes" : {
            "POSITION" : 1,
            "NORMAL" : 2,
            "TANGENT" : 3,
            "TEXCOORD_0" : 4,
            "TEXCOORD_1" : 5
          },
          "indices" : 0,
          "material" : 0
        }
      ],
      "name" : "SpaceBowl_Door_Wide_01"
    }
  ],
  "buffers" : [
    {
      "uri" : "SpaceBowl_Door_Wide_01.bin",
      "byteLength" : 44808
    }
  ],
  "bufferViews" : [
    {
      "buffer" : 0,
      "byteOffset" : 0,
      "byteLength" : 2808
    },
    {
      "buffer" : 0,
      "byteOffset" : 2808,
      "byteLength" : 9000
    },
    {
      "buffer" : 0,
      "byteOffset" : 11808,
      "byteLength" : 9000
    },
    {
      "buffer" : 0,
      "byteOffset" : 20808,
      "byteLength" : 12000
    },
    {
      "buffer" : 0,
      "byteOffset" : 32808,
      "byteLength" : 6000
    },
    {
      "buffer" : 0,
      "byteOffset" : 38808,
      "byteLength" : 6000
    }
  ],
  "accessors" : [
    {
      "bufferView" : 0,
      "componentType" : 5123,
      "count" : 1404,
      "type" : "SCALAR"
    },
    {
      "bufferView" : 1,
      "min" : [ -3.9375, -2.41102e-16, -0.0999908 ],
      "max" : [ 3.9375, 10.225, 0.0999908 ],
      "componentType" : 5126,
      "count" : 750,
      "type" : "VEC3"
    },
    {
      "bufferView" : 2,
      "componentType" : 5126,
      "count" : 750,
      "type" : "VEC3"
    },
    {
      "bufferView" : 3,
      "componentType" : 5126,
      "count" : 750,
      "type" : "VEC4"
    },
    {
      "bufferView" : 4,
      "componentType" : 5126,
      "count" : 750,
      "type" : "VEC2"
    },
    {
      "bufferView" : 5,
      "componentType" : 5126,
      "count" : 750,
      "type" : "VEC2"
    }
  ]
}
