{
  "asset" : {
    "generator" : "UE Viewer (umodel) build 1579 based",
    "version" : "2.0"
  },
  "scene" : 0,
  "scenes" : [
    {
      "nodes" : [ 0 ]
    }
  ],
  "nodes" : [
    {
      "name" : "SpaceBowl_Door_01",
      "mesh" : 0
    }
  ],
  "materials" : [
    {
      "name" : "SpaceBowl_Door_01",
      "pbrMetallicRoughness" : {
        "baseColorFactor" : [ 0.3, 0.3, 0.3, 1.0 ],
        "metallicFactor" : 0.1,
        "roughnessFactor" : 0.5
      }
    }
  ],
  "meshes" : [
    {
      "primitives" : [
        {
          "attributes" : {
            "POSITION" : 1,
            "NORMAL" : 2,
            "TANGENT" : 3,
            "COLOR_0" : 4,
            "TEXCOORD_0" : 5,
            "TEXCOORD_1" : 6
          },
          "indices" : 0,
          "material" : 0
        }
      ],
      "name" : "SpaceBowl_Door_01"
    }
  ],
  "buffers" : [
    {
      "uri" : "SpaceBowl_Door_01.bin",
      "byteLength" : 15936
    }
  ],
  "bufferViews" : [
    {
      "buffer" : 0,
      "byteOffset" : 0,
      "byteLength" : 936
    },
    {
      "buffer" : 0,
      "byteOffset" : 936,
      "byteLength" : 3000
    },
    {
      "buffer" : 0,
      "byteOffset" : 3936,
      "byteLength" : 3000
    },
    {
      "buffer" : 0,
      "byteOffset" : 6936,
      "byteLength" : 4000
    },
    {
      "buffer" : 0,
      "byteOffset" : 10936,
      "byteLength" : 1000
    },
    {
      "buffer" : 0,
      "byteOffset" : 11936,
      "byteLength" : 2000
    },
    {
      "buffer" : 0,
      "byteOffset" : 13936,
      "byteLength" : 2000
    }
  ],
  "accessors" : [
    {
      "bufferView" : 0,
      "componentType" : 5123,
      "count" : 468,
      "type" : "SCALAR"
    },
    {
      "bufferView" : 1,
      "min" : [ -2.5, 3.05176e-06, -1.22041e-05 ],
      "max" : [ 5.60416e-22, 10.005, 0.199969 ],
      "componentType" : 5126,
      "count" : 250,
      "type" : "VEC3"
    },
    {
      "bufferView" : 2,
      "componentType" : 5126,
      "count" : 250,
      "type" : "VEC3"
    },
    {
      "bufferView" : 3,
      "componentType" : 5126,
      "count" : 250,
      "type" : "VEC4"
    },
    {
      "bufferView" : 4,
      "normalized" : true,
      "componentType" : 5121,
      "count" : 250,
      "type" : "VEC4"
    },
    {
      "bufferView" : 5,
      "componentType" : 5126,
      "count" : 250,
      "type" : "VEC2"
    },
    {
      "bufferView" : 6,
      "componentType" : 5126,
      "count" : 250,
      "type" : "VEC2"
    }
  ]
}
