{
  "asset" : {
    "generator" : "UE Viewer (umodel) build 1579 based",
    "version" : "2.0"
  },
  "scene" : 0,
  "scenes" : [
    {
      "nodes" : [ 0 ]
    }
  ],
  "nodes" : [
    {
      "name" : "SpaceLaserRoom_01",
      "mesh" : 0
    }
  ],
  "materials" : [
    {
      "name" : "LaserStation_Floor_02",
      "pbrMetallicRoughness" : {
        "baseColorFactor" : [ 0.3, 0.3, 0.3, 1.0 ],
        "metallicFactor" : 0.1,
        "roughnessFactor" : 0.5
      }
    },
    {
      "name" : "LaserStation_Floor_01",
      "pbrMetallicRoughness" : {
        "baseColorFactor" : [ 0.9, 0.3, 0.3, 1.0 ],
        "metallicFactor" : 0.1,
        "roughnessFactor" : 0.5
      }
    },
    {
      "name" : "LaserStation_Floor_03",
      "pbrMetallicRoughness" : {
        "baseColorFactor" : [ 0.3, 0.9, 0.3, 1.0 ],
        "metallicFactor" : 0.1,
        "roughnessFactor" : 0.5
      }
    }
  ],
  "meshes" : [
    {
      "primitives" : [
        {
          "attributes" : {
            "POSITION" : 1,
            "NORMAL" : 2,
            "TANGENT" : 3,
            "TEXCOORD_0" : 4,
            "TEXCOORD_1" : 5,
            "TEXCOORD_2" : 6
          },
          "indices" : 0,
          "material" : 0
        },
        {
          "attributes" : {
            "POSITION" : 8,
            "NORMAL" : 9,
            "TANGENT" : 10,
            "TEXCOORD_0" : 11,
            "TEXCOORD_1" : 12,
            "TEXCOORD_2" : 13
          },
          "indices" : 7,
          "material" : 1
        },
        {
          "attributes" : {
            "POSITION" : 15,
            "NORMAL" : 16,
            "TANGENT" : 17,
            "TEXCOORD_0" : 18,
            "TEXCOORD_1" : 19,
            "TEXCOORD_2" : 20
          },
          "indices" : 14,
          "material" : 2
        }
      ],
      "name" : "SpaceLaserRoom_01"
    }
  ],
  "buffers" : [
    {
      "uri" : "SpaceLaserRoom_01.bin",
      "byteLength" : 102304
    }
  ],
  "bufferViews" : [
    {
      "buffer" : 0,
      "byteOffset" : 0,
      "byteLength" : 5184
    },
    {
      "buffer" : 0,
      "byteOffset" : 5184,
      "byteLength" : 10776
    },
    {
      "buffer" : 0,
      "byteOffset" : 15960,
      "byteLength" : 10776
    },
    {
      "buffer" : 0,
      "byteOffset" : 26736,
      "byteLength" : 14368
    },
    {
      "buffer" : 0,
      "byteOffset" : 41104,
      "byteLength" : 7184
    },
    {
      "buffer" : 0,
      "byteOffset" : 48288,
      "byteLength" : 7184
    },
    {
      "buffer" : 0,
      "byteOffset" : 55472,
      "byteLength" : 7184
    },
    {
      "buffer" : 0,
      "byteOffset" : 62656,
      "byteLength" : 3476
    },
    {
      "buffer" : 0,
      "byteOffset" : 66132,
      "byteLength" : 6732
    },
    {
      "buffer" : 0,
      "byteOffset" : 72864,
      "byteLength" : 6732
    },
    {
      "buffer" : 0,
      "byteOffset" : 79596,
      "byteLength" : 8976
    },
    {
      "buffer" : 0,
      "byteOffset" : 88572,
      "byteLength" : 4488
    },
    {
      "buffer" : 0,
      "byteOffset" : 93060,
      "byteLength" : 4488
    },
    {
      "buffer" : 0,
      "byteOffset" : 97548,
      "byteLength" : 4488
    },
    {
      "buffer" : 0,
      "byteOffset" : 102036,
      "byteLength" : 12
    },
    {
      "buffer" : 0,
      "byteOffset" : 102048,
      "byteLength" : 48
    },
    {
      "buffer" : 0,
      "byteOffset" : 102096,
      "byteLength" : 48
    },
    {
      "buffer" : 0,
      "byteOffset" : 102144,
      "byteLength" : 64
    },
    {
      "buffer" : 0,
      "byteOffset" : 102208,
      "byteLength" : 32
    },
    {
      "buffer" : 0,
      "byteOffset" : 102240,
      "byteLength" : 32
    },
    {
      "buffer" : 0,
      "byteOffset" : 102272,
      "byteLength" : 32
    }
  ],
  "accessors" : [
    {
      "bufferView" : 0,
      "componentType" : 5123,
      "count" : 2592,
      "type" : "SCALAR"
    },
    {
      "bufferView" : 1,
      "min" : [ -29.5537, -0.00400016, -20.0625 ],
      "max" : [ 29.5537, 0.646, 52.1667 ],
      "componentType" : 5126,
      "count" : 898,
      "type" : "VEC3"
    },
    {
      "bufferView" : 2,
      "componentType" : 5126,
      "count" : 898,
      "type" : "VEC3"
    },
    {
      "bufferView" : 3,
      "componentType" : 5126,
      "count" : 898,
      "type" : "VEC4"
    },
    {
      "bufferView" : 4,
      "componentType" : 5126,
      "count" : 898,
      "type" : "VEC2"
    },
    {
      "bufferView" : 5,
      "componentType" : 5126,
      "count" : 898,
      "type" : "VEC2"
    },
    {
      "bufferView" : 6,
      "componentType" : 5126,
      "count" : 898,
      "type" : "VEC2"
    },
    {
      "bufferView" : 7,
      "componentType" : 5123,
      "count" : 1737,
      "type" : "SCALAR"
    },
    {
      "bufferView" : 8,
      "min" : [ -29.5537, -0.00400016, -20.0625 ],
      "max" : [ 29.5537, 0.646, 52.1667 ],
      "componentType" : 5126,
      "count" : 561,
      "type" : "VEC3"
    },
    {
      "bufferView" : 9,
      "componentType" : 5126,
      "count" : 561,
      "type" : "VEC3"
    },
    {
      "bufferView" : 10,
      "componentType" : 5126,
      "count" : 561,
      "type" : "VEC4"
    },
    {
      "bufferView" : 11,
      "componentType" : 5126,
      "count" : 561,
      "type" : "VEC2"
    },
    {
      "bufferView" : 12,
      "componentType" : 5126,
      "count" : 561,
      "type" : "VEC2"
    },
    {
      "bufferView" : 13,
      "componentType" : 5126,
      "count" : 561,
      "type" : "VEC2"
    },
    {
      "bufferView" : 14,
      "componentType" : 5123,
      "count" : 6,
      "type" : "SCALAR"
    },
    {
      "bufferView" : 15,
      "min" : [ -27.2619, -1.66931e-15, -11.9336 ],
      "max" : [ 27.2619, 1.66931e-15, 12.0551 ],
      "componentType" : 5126,
      "count" : 4,
      "type" : "VEC3"
    },
    {
      "bufferView" : 16,
      "componentType" : 5126,
      "count" : 4,
      "type" : "VEC3"
    },
    {
      "bufferView" : 17,
      "componentType" : 5126,
      "count" : 4,
      "type" : "VEC4"
    },
    {
      "bufferView" : 18,
      "componentType" : 5126,
      "count" : 4,
      "type" : "VEC2"
    },
    {
      "bufferView" : 19,
      "componentType" : 5126,
      "count" : 4,
      "type" : "VEC2"
    },
    {
      "bufferView" : 20,
      "componentType" : 5126,
      "count" : 4,
      "type" : "VEC2"
    }
  ]
}
