{
  "asset" : {
    "generator" : "UE Viewer (umodel) build 1579 based",
    "version" : "2.0"
  },
  "scene" : 0,
  "scenes" : [
    {
      "nodes" : [ 0 ]
    }
  ],
  "nodes" : [
    {
      "name" : "Space_Beam_01_Medium",
      "mesh" : 0
    }
  ],
  "materials" : [
    {
      "name" : "Space_Beam_01_Blue",
      "pbrMetallicRoughness" : {
        "baseColorFactor" : [ 0.3, 0.3, 0.3, 1.0 ],
        "metallicFactor" : 0.1,
        "roughnessFactor" : 0.5
      }
    }
  ],
  "meshes" : [
    {
      "primitives" : [
        {
          "attributes" : {
            "POSITION" : 1,
            "NORMAL" : 2,
            "TANGENT" : 3,
            "TEXCOORD_0" : 4,
            "TEXCOORD_1" : 5
          },
          "indices" : 0,
          "material" : 0
        }
      ],
      "name" : "Space_Beam_01_Medium"
    }
  ],
  "buffers" : [
    {
      "uri" : "Space_Beam_01_Medium.bin",
      "byteLength" : 149440
    }
  ],
  "bufferViews" : [
    {
      "buffer" : 0,
      "byteOffset" : 0,
      "byteLength" : 15264
    },
    {
      "buffer" : 0,
      "byteOffset" : 15264,
      "byteLength" : 28752
    },
    {
      "buffer" : 0,
      "byteOffset" : 44016,
      "byteLength" : 28752
    },
    {
      "buffer" : 0,
      "byteOffset" : 72768,
      "byteLength" : 38336
    },
    {
      "buffer" : 0,
      "byteOffset" : 111104,
      "byteLength" : 19168
    },
    {
      "buffer" : 0,
      "byteOffset" : 130272,
      "byteLength" : 19168
    }
  ],
  "accessors" : [
    {
      "bufferView" : 0,
      "componentType" : 5123,
      "count" : 7632,
      "type" : "SCALAR"
    },
    {
      "bufferView" : 1,
      "min" : [ -2.00634e-16, -1.81682, -1.81182 ],
      "max" : [ 6.21562, 1.81182, 1.81182 ],
      "componentType" : 5126,
      "count" : 2396,
      "type" : "VEC3"
    },
    {
      "bufferView" : 2,
      "componentType" : 5126,
      "count" : 2396,
      "type" : "VEC3"
    },
    {
      "bufferView" : 3,
      "componentType" : 5126,
      "count" : 2396,
      "type" : "VEC4"
    },
    {
      "bufferView" : 4,
      "componentType" : 5126,
      "count" : 2396,
      "type" : "VEC2"
    },
    {
      "bufferView" : 5,
      "componentType" : 5126,
      "count" : 2396,
      "type" : "VEC2"
    }
  ]
}
