{
  "asset" : {
    "generator" : "UE Viewer (umodel) build 1579 based",
    "version" : "2.0"
  },
  "scene" : 0,
  "scenes" : [
    {
      "nodes" : [ 0 ]
    }
  ],
  "nodes" : [
    {
      "name" : "SpaceHangarPaddedWall_01",
      "mesh" : 0
    }
  ],
  "materials" : [
    {
      "name" : "SpaceHangar_Floor_02",
      "pbrMetallicRoughness" : {
        "baseColorFactor" : [ 0.3, 0.3, 0.3, 1.0 ],
        "metallicFactor" : 0.1,
        "roughnessFactor" : 0.5
      }
    },
    {
      "name" : "GravityRoom_PaddedWall_02",
      "pbrMetallicRoughness" : {
        "baseColorFactor" : [ 0.9, 0.3, 0.3, 1.0 ],
        "metallicFactor" : 0.1,
        "roughnessFactor" : 0.5
      }
    }
  ],
  "meshes" : [
    {
      "primitives" : [
        {
          "attributes" : {
            "POSITION" : 1,
            "NORMAL" : 2,
            "TANGENT" : 3,
            "TEXCOORD_0" : 4,
            "TEXCOORD_1" : 5
          },
          "indices" : 0,
          "material" : 0
        },
        {
          "attributes" : {
            "POSITION" : 7,
            "NORMAL" : 8,
            "TANGENT" : 9,
            "TEXCOORD_0" : 10,
            "TEXCOORD_1" : 11
          },
          "indices" : 6,
          "material" : 1
        }
      ],
      "name" : "SpaceHangarPaddedWall_01"
    }
  ],
  "buffers" : [
    {
      "uri" : "SpaceHangarPaddedWall_01.bin",
      "byteLength" : 12936
    }
  ],
  "bufferViews" : [
    {
      "buffer" : 0,
      "byteOffset" : 0,
      "byteLength" : 888
    },
    {
      "buffer" : 0,
      "byteOffset" : 888,
      "byteLength" : 1920
    },
    {
      "buffer" : 0,
      "byteOffset" : 2808,
      "byteLength" : 1920
    },
    {
      "buffer" : 0,
      "byteOffset" : 4728,
      "byteLength" : 2560
    },
    {
      "buffer" : 0,
      "byteOffset" : 7288,
      "byteLength" : 1280
    },
    {
      "buffer" : 0,
      "byteOffset" : 8568,
      "byteLength" : 1280
    },
    {
      "buffer" : 0,
      "byteOffset" : 9848,
      "byteLength" : 288
    },
    {
      "buffer" : 0,
      "byteOffset" : 10136,
      "byteLength" : 600
    },
    {
      "buffer" : 0,
      "byteOffset" : 10736,
      "byteLength" : 600
    },
    {
      "buffer" : 0,
      "byteOffset" : 11336,
      "byteLength" : 800
    },
    {
      "buffer" : 0,
      "byteOffset" : 12136,
      "byteLength" : 400
    },
    {
      "buffer" : 0,
      "byteOffset" : 12536,
      "byteLength" : 400
    }
  ],
  "accessors" : [
    {
      "bufferView" : 0,
      "componentType" : 5123,
      "count" : 444,
      "type" : "SCALAR"
    },
    {
      "bufferView" : 1,
      "min" : [ -32.0916, -2.00003, -29.5832 ],
      "max" : [ 1.22465e-16, 41.983, 2.98957 ],
      "componentType" : 5126,
      "count" : 160,
      "type" : "VEC3"
    },
    {
      "bufferView" : 2,
      "componentType" : 5126,
      "count" : 160,
      "type" : "VEC3"
    },
    {
      "bufferView" : 3,
      "componentType" : 5126,
      "count" : 160,
      "type" : "VEC4"
    },
    {
      "bufferView" : 4,
      "componentType" : 5126,
      "count" : 160,
      "type" : "VEC2"
    },
    {
      "bufferView" : 5,
      "componentType" : 5126,
      "count" : 160,
      "type" : "VEC2"
    },
    {
      "bufferView" : 6,
      "componentType" : 5123,
      "count" : 144,
      "type" : "SCALAR"
    },
    {
      "bufferView" : 7,
      "min" : [ -29.1011, -2, -29.5832 ],
      "max" : [ 1.22465e-16, 41.983, 7.4988e-33 ],
      "componentType" : 5126,
      "count" : 50,
      "type" : "VEC3"
    },
    {
      "bufferView" : 8,
      "componentType" : 5126,
      "count" : 50,
      "type" : "VEC3"
    },
    {
      "bufferView" : 9,
      "componentType" : 5126,
      "count" : 50,
      "type" : "VEC4"
    },
    {
      "bufferView" : 10,
      "componentType" : 5126,
      "count" : 50,
      "type" : "VEC2"
    },
    {
      "bufferView" : 11,
      "componentType" : 5126,
      "count" : 50,
      "type" : "VEC2"
    }
  ]
}
