{
  "asset" : {
    "generator" : "UE Viewer (umodel) build 1579 based",
    "version" : "2.0"
  },
  "scene" : 0,
  "scenes" : [
    {
      "nodes" : [ 0 ]
    }
  ],
  "nodes" : [
    {
      "name" : "SpaceHangarPillar_01",
      "mesh" : 0
    }
  ],
  "materials" : [
    {
      "name" : "Space_Plastic_Red_02",
      "pbrMetallicRoughness" : {
        "baseColorFactor" : [ 0.3, 0.3, 0.3, 1.0 ],
        "metallicFactor" : 0.1,
        "roughnessFactor" : 0.5
      }
    }
  ],
  "meshes" : [
    {
      "primitives" : [
        {
          "attributes" : {
            "POSITION" : 1,
            "NORMAL" : 2,
            "TANGENT" : 3,
            "TEXCOORD_0" : 4,
            "TEXCOORD_1" : 5
          },
          "indices" : 0,
          "material" : 0
        }
      ],
      "name" : "SpaceHangarPillar_01"
    }
  ],
  "buffers" : [
    {
      "uri" : "SpaceHangarPillar_01.bin",
      "byteLength" : 3584
    }
  ],
  "bufferViews" : [
    {
      "buffer" : 0,
      "byteOffset" : 0,
      "byteLength" : 336
    },
    {
      "buffer" : 0,
      "byteOffset" : 336,
      "byteLength" : 696
    },
    {
      "buffer" : 0,
      "byteOffset" : 1032,
      "byteLength" : 696
    },
    {
      "buffer" : 0,
      "byteOffset" : 1728,
      "byteLength" : 928
    },
    {
      "buffer" : 0,
      "byteOffset" : 2656,
      "byteLength" : 464
    },
    {
      "buffer" : 0,
      "byteOffset" : 3120,
      "byteLength" : 464
    }
  ],
  "accessors" : [
    {
      "bufferView" : 0,
      "componentType" : 5123,
      "count" : 168,
      "type" : "SCALAR"
    },
    {
      "bufferView" : 1,
      "min" : [ -2.27664, -0.4, -2.27664 ],
      "max" : [ 2.27664, 56, 2.27664 ],
      "componentType" : 5126,
      "count" : 58,
      "type" : "VEC3"
    },
    {
      "bufferView" : 2,
      "componentType" : 5126,
      "count" : 58,
      "type" : "VEC3"
    },
    {
      "bufferView" : 3,
      "componentType" : 5126,
      "count" : 58,
      "type" : "VEC4"
    },
    {
      "bufferView" : 4,
      "componentType" : 5126,
      "count" : 58,
      "type" : "VEC2"
    },
    {
      "bufferView" : 5,
      "componentType" : 5126,
      "count" : 58,
      "type" : "VEC2"
    }
  ]
}
