{
  "asset" : {
    "generator" : "UE Viewer (umodel) build 1579 based",
    "version" : "2.0"
  },
  "scene" : 0,
  "scenes" : [
    {
      "nodes" : [ 0 ]
    }
  ],
  "nodes" : [
    {
      "name" : "Wall_SmallDoor_01",
      "mesh" : 0
    }
  ],
  "materials" : [
    {
      "name" : "SpaceGlass_01",
      "pbrMetallicRoughness" : {
        "baseColorFactor" : [ 0.3, 0.3, 0.3, 1.0 ],
        "metallicFactor" : 0.1,
        "roughnessFactor" : 0.5
      }
    },
    {
      "name" : "Toybox_GlassWall_02",
      "pbrMetallicRoughness" : {
        "baseColorFactor" : [ 0.9, 0.3, 0.3, 1.0 ],
        "metallicFactor" : 0.1,
        "roughnessFactor" : 0.5
      }
    },
    {
      "name" : "Wall_SmallDoor_01",
      "pbrMetallicRoughness" : {
        "baseColorFactor" : [ 0.3, 0.9, 0.3, 1.0 ],
        "metallicFactor" : 0.1,
        "roughnessFactor" : 0.5
      }
    }
  ],
  "meshes" : [
    {
      "primitives" : [
        {
          "attributes" : {
            "POSITION" : 1,
            "NORMAL" : 2,
            "TANGENT" : 3,
            "COLOR_0" : 4,
            "TEXCOORD_0" : 5,
            "TEXCOORD_1" : 6,
            "TEXCOORD_2" : 7
          },
          "indices" : 0,
          "material" : 0
        },
        {
          "attributes" : {
            "POSITION" : 9,
            "NORMAL" : 10,
            "TANGENT" : 11,
            "COLOR_0" : 12,
            "TEXCOORD_0" : 13,
            "TEXCOORD_1" : 14,
            "TEXCOORD_2" : 15
          },
          "indices" : 8,
          "material" : 1
        },
        {
          "attributes" : {
            "POSITION" : 17,
            "NORMAL" : 18,
            "TANGENT" : 19,
            "COLOR_0" : 20,
            "TEXCOORD_0" : 21,
            "TEXCOORD_1" : 22,
            "TEXCOORD_2" : 23
          },
          "indices" : 16,
          "material" : 2
        }
      ],
      "name" : "Wall_SmallDoor_01"
    }
  ],
  "buffers" : [
    {
      "uri" : "Wall_SmallDoor_01.bin",
      "byteLength" : 96824
    }
  ],
  "bufferViews" : [
    {
      "buffer" : 0,
      "byteOffset" : 0,
      "byteLength" : 144
    },
    {
      "buffer" : 0,
      "byteOffset" : 144,
      "byteLength" : 576
    },
    {
      "buffer" : 0,
      "byteOffset" : 720,
      "byteLength" : 576
    },
    {
      "buffer" : 0,
      "byteOffset" : 1296,
      "byteLength" : 768
    },
    {
      "buffer" : 0,
      "byteOffset" : 2064,
      "byteLength" : 192
    },
    {
      "buffer" : 0,
      "byteOffset" : 2256,
      "byteLength" : 384
    },
    {
      "buffer" : 0,
      "byteOffset" : 2640,
      "byteLength" : 384
    },
    {
      "buffer" : 0,
      "byteOffset" : 3024,
      "byteLength" : 384
    },
    {
      "buffer" : 0,
      "byteOffset" : 3408,
      "byteLength" : 3456
    },
    {
      "buffer" : 0,
      "byteOffset" : 6864,
      "byteLength" : 13824
    },
    {
      "buffer" : 0,
      "byteOffset" : 20688,
      "byteLength" : 13824
    },
    {
      "buffer" : 0,
      "byteOffset" : 34512,
      "byteLength" : 18432
    },
    {
      "buffer" : 0,
      "byteOffset" : 52944,
      "byteLength" : 4608
    },
    {
      "buffer" : 0,
      "byteOffset" : 57552,
      "byteLength" : 9216
    },
    {
      "buffer" : 0,
      "byteOffset" : 66768,
      "byteLength" : 9216
    },
    {
      "buffer" : 0,
      "byteOffset" : 75984,
      "byteLength" : 9216
    },
    {
      "buffer" : 0,
      "byteOffset" : 85200,
      "byteLength" : 744
    },
    {
      "buffer" : 0,
      "byteOffset" : 85944,
      "byteLength" : 1920
    },
    {
      "buffer" : 0,
      "byteOffset" : 87864,
      "byteLength" : 1920
    },
    {
      "buffer" : 0,
      "byteOffset" : 89784,
      "byteLength" : 2560
    },
    {
      "buffer" : 0,
      "byteOffset" : 92344,
      "byteLength" : 640
    },
    {
      "buffer" : 0,
      "byteOffset" : 92984,
      "byteLength" : 1280
    },
    {
      "buffer" : 0,
      "byteOffset" : 94264,
      "byteLength" : 1280
    },
    {
      "buffer" : 0,
      "byteOffset" : 95544,
      "byteLength" : 1280
    }
  ],
  "accessors" : [
    {
      "bufferView" : 0,
      "componentType" : 5123,
      "count" : 72,
      "type" : "SCALAR"
    },
    {
      "bufferView" : 1,
      "min" : [ -3.91314, 0.123712, 0.0539087 ],
      "max" : [ 3.91314, 9.15058, 0.145753 ],
      "componentType" : 5126,
      "count" : 48,
      "type" : "VEC3"
    },
    {
      "bufferView" : 2,
      "componentType" : 5126,
      "count" : 48,
      "type" : "VEC3"
    },
    {
      "bufferView" : 3,
      "componentType" : 5126,
      "count" : 48,
      "type" : "VEC4"
    },
    {
      "bufferView" : 4,
      "normalized" : true,
      "componentType" : 5121,
      "count" : 48,
      "type" : "VEC4"
    },
    {
      "bufferView" : 5,
      "componentType" : 5126,
      "count" : 48,
      "type" : "VEC2"
    },
    {
      "bufferView" : 6,
      "componentType" : 5126,
      "count" : 48,
      "type" : "VEC2"
    },
    {
      "bufferView" : 7,
      "componentType" : 5126,
      "count" : 48,
      "type" : "VEC2"
    },
    {
      "bufferView" : 8,
      "componentType" : 5123,
      "count" : 1728,
      "type" : "SCALAR"
    },
    {
      "bufferView" : 9,
      "min" : [ -4, -2.44929e-16, -1.15651e-15 ],
      "max" : [ 4, 9.2075, 0.185 ],
      "componentType" : 5126,
      "count" : 1152,
      "type" : "VEC3"
    },
    {
      "bufferView" : 10,
      "componentType" : 5126,
      "count" : 1152,
      "type" : "VEC3"
    },
    {
      "bufferView" : 11,
      "componentType" : 5126,
      "count" : 1152,
      "type" : "VEC4"
    },
    {
      "bufferView" : 12,
      "normalized" : true,
      "componentType" : 5121,
      "count" : 1152,
      "type" : "VEC4"
    },
    {
      "bufferView" : 13,
      "componentType" : 5126,
      "count" : 1152,
      "type" : "VEC2"
    },
    {
      "bufferView" : 14,
      "componentType" : 5126,
      "count" : 1152,
      "type" : "VEC2"
    },
    {
      "bufferView" : 15,
      "componentType" : 5126,
      "count" : 1152,
      "type" : "VEC2"
    },
    {
      "bufferView" : 16,
      "componentType" : 5123,
      "count" : 372,
      "type" : "SCALAR"
    },
    {
      "bufferView" : 17,
      "min" : [ -0.716443, 0.0100944, -0.0681062 ],
      "max" : [ 0.716443, 1.1914, 0.0617218 ],
      "componentType" : 5126,
      "count" : 160,
      "type" : "VEC3"
    },
    {
      "bufferView" : 18,
      "componentType" : 5126,
      "count" : 160,
      "type" : "VEC3"
    },
    {
      "bufferView" : 19,
      "componentType" : 5126,
      "count" : 160,
      "type" : "VEC4"
    },
    {
      "bufferView" : 20,
      "normalized" : true,
      "componentType" : 5121,
      "count" : 160,
      "type" : "VEC4"
    },
    {
      "bufferView" : 21,
      "componentType" : 5126,
      "count" : 160,
      "type" : "VEC2"
    },
    {
      "bufferView" : 22,
      "componentType" : 5126,
      "count" : 160,
      "type" : "VEC2"
    },
    {
      "bufferView" : 23,
      "componentType" : 5126,
      "count" : 160,
      "type" : "VEC2"
    }
  ]
}
